<?xml version="1.0" encoding="UTF-8" standalone="no"?>
<svg
   xmlns:dc="http://purl.org/dc/elements/1.1/"
   xmlns:cc="http://creativecommons.org/ns#"
   xmlns:rdf="http://www.w3.org/1999/02/22-rdf-syntax-ns#"
   xmlns:svg="http://www.w3.org/2000/svg"
   xmlns="http://www.w3.org/2000/svg"
   viewBox="0 0 600 600"
   id="svg4535"
   height="600"
   width="600"
   version="1.1">
  <metadata
     id="metadata4541">
    <rdf:RDF>
      <cc:Work
         rdf:about="">
        <dc:format>image/svg+xml</dc:format>
        <dc:type
           rdf:resource="http://purl.org/dc/dcmitype/StillImage" />
        <dc:title></dc:title>
      </cc:Work>
    </rdf:RDF>
  </metadata>
  <defs
     id="defs4539" />
  <g
     style="stroke-width:0.94488198"
     transform="matrix(1.0583332,0,0,1.0583332,-14.999757,-145.50007)"
     id="Layer1000">
    <path
       id="path4485"
       style="fill:#3365ab;fill-rule:evenodd;stroke-width:0.94488198"
       d="M 297.6377,137.4804 A 283.4646,283.4646 0 0 1 581.1022,420.945 283.4646,283.4646 0 1 1 297.6377,137.4804 Z" />
    <path
       id="path4487"
       style="fill:#ffffff;fill-rule:evenodd;stroke-width:0.94488198"
       d="M 297.6377,149.0682 A 271.8768,271.8768 0 0 1 569.5145,420.945 271.8768,271.8768 0 1 1 297.6377,149.0682 Z" />
    <path
       id="path4489"
       style="fill:#3365ab;fill-rule:evenodd;stroke-width:0.94488198"
       d="m 297.6375,217.07 c 112.5784,0 203.8752,91.2968 203.8752,203.8749 0,41.6091 -12.4742,80.3098 -33.8823,112.5695 9.1861,2.5139 17.5518,0.9691 22.3607,-4.8706 -2.7749,14.1694 -14.7478,18.0632 -26.0127,18.5856 -9.5602,0.4434 -20.6121,-2.4853 -31.3415,-7.6537 -18.4388,-8.882 -33.667,-23.4283 -53.3094,-35.1359 -13.3177,-7.9382 -27.9244,-14.8814 -42.8277,-18.9442 v 29.0362 c 9.7492,3.405 19.2027,7.7812 27.9554,12.7291 20.8339,11.7778 42.2798,28.7267 63.6686,38.2027 5.0004,-4.5186 9.766,-9.2927 14.2749,-14.3023 3.2897,1.0331 6.6529,1.8699 10.0332,2.4392 -4.6632,5.4365 -9.6093,10.6229 -14.8131,15.5395 1.0596,0.3467 2.1187,0.6721 3.1771,0.9709 9.0879,2.5664 20.3533,3.5825 29.8083,2.1858 15.1095,-2.2324 28.4156,-12.4074 31.8431,-25.4735 2.1566,-8.2206 0.3367,-16.2716 -6.0597,-20.7043 9.9874,-0.7855 15.9346,8.657 15.3177,18.6844 -0.8285,13.4622 -9.1101,24.3968 -19.4811,31.4427 -10.3713,7.046 -22.8346,10.2046 -34.0469,10.8074 -12.2361,0.6581 -31.8621,-1.6814 -47.608,-8.9814 -20.8994,-9.6892 -41.3643,-25.443 -62.6589,-37.2897 -3.5175,-1.9568 -7.053,-3.7953 -10.6147,-5.5075 0.809,3.7044 2.43,7.4357 5.6713,11.3651 h -33.699 c 6.4043,-9.695 6.4732,-15.3623 6.4732,-23.481 v -75.6564 c 6.9246,-0.777 13.9688,-2.292 20.7586,-4.5098 v 20.2843 c 7.2237,4.7547 17.052,8.629 25.5668,10.9294 11.8287,3.1955 28.9883,3.2236 40.7163,-0.6248 13.4876,-4.4265 23.5887,-13.0133 31.2409,-23.3972 8.7448,-11.8665 13.7226,-26.9994 13.7226,-43.7047 0,-20.3085 -7.0599,-38.9907 -19.6885,-51.6533 -11.1425,-11.1721 -26.5039,-17.8766 -43.5278,-17.7445 -17.4393,0.1354 -35.256,6.4925 -48.0303,18.0839 v 64.058 c 2.628,-1.6031 5.0843,-3.3836 7.3045,-5.3173 14.3984,-12.5413 23.1395,-31.8053 23.1395,-53.6128 0,-4.5641 -0.3528,-9.0016 -1.0432,-13.282 6.1053,-1.7806 12.4471,-2.7155 18.685,-2.764 1.2338,-0.01 2.4621,0.0228 3.6831,0.0942 0.8712,4.9891 1.3164,10.157 1.3164,15.4697 0,25.8345 -12.0833,48.8548 -30.9015,63.7128 -13.815,10.9074 -34.6199,17.4209 -53.5866,17.4209 -15.8957,0 -34.6373,-3.942 -48.0709,-10.779 v 40.4903 c 5.0489,-4.3814 9.5218,-9.5513 13.2707,-15.3638 2.1755,-3.373 4.1024,-6.9694 5.7582,-10.7513 6.9359,1.6772 14.0743,2.7762 20.9208,3.2699 -2.2319,4.7113 -4.9123,9.19 -8.0364,13.3978 -7.9693,10.7343 -18.5688,19.6565 -30.8375,25.9725 0.8197,3.5778 2.2471,7.2484 4.7181,11.3316 h -32.7336 c 5.6695,-9.258 6.4038,-15.1977 6.4038,-23.2292 v -131.088 c 7.6561,3.0092 14.6408,7.6541 20.5359,13.6983 v 51.9457 c 5.8079,5.7052 14.8296,10.9224 24.9975,14.3652 0.766,-4.7376 1.0932,-9.7389 1.0932,-14.2679 0,-21.7118 -6.587,-41.1112 -19.01,-54.9622 -12.5699,-14.0151 -30.1373,-22.0021 -48.985,-21.9277 -20.525,0.0811 -39.3944,9.2736 -52.0043,25.3497 -10.6132,13.5303 -16.6824,32.1368 -16.6824,51.5402 0,14.8058 3.7523,29.2332 10.2469,40.9246 3.8919,7.0057 8.7683,13.1902 14.4094,18.3599 -2.3969,-7.5299 -1.1119,-14.2072 1.8848,-19.0445 4.7037,-7.593 13.8153,-11.2279 21.0955,-11.252 8.7533,-0.0293 16.8855,3.5529 21.6093,9.9389 3.9484,5.3374 6.487,13.8196 6.1647,23.7266 -0.1561,4.7988 -0.9145,9.3787 -2.2047,13.808 3.3107,-0.2373 6.5562,-0.7343 9.72,-1.4726 -0.9585,4.2271 -2.8393,7.9681 -6.2827,12.283 -2.5743,0.2141 -5.1749,0.3257 -7.7974,0.3257 h -0.1061 c -4.9794,9.7499 -12.4885,19.0149 -21.6938,28.6443 l 0.2833,0.6053 c 30.4776,-14.9713 60.3612,-21.5175 89.5142,-21.0802 8.1965,0.1229 16.7153,0.7135 25.2966,1.9876 v 15.4669 c 0,0.4757 -0.001,0.9358 -0.005,1.3829 -8.7464,-2.3215 -17.7476,-3.8475 -27.1047,-4.4784 -30.2437,-2.0394 -63.8305,2.5551 -104.7319,26.4231 L 165.961,534.872 c 18.7838,-12.0964 31.7425,-26.1874 37.8911,-40.6029 3.7251,-8.7341 6.2015,-19.8998 4.159,-29.546 -1.5637,-7.3854 -6.5913,-12.3004 -13.7711,-12.4999 -6.2973,-0.175 -12.7523,4.7266 -13.2978,12.1196 -0.4318,5.8534 0.537,13.2845 12.8672,18.5895 1.9172,0.6748 3.8707,1.2606 5.8567,1.7522 -0.6833,2.3813 -1.5082,4.6693 -2.4056,6.7733 -0.5779,1.3549 -1.2168,2.6881 -1.9084,4.0003 -24.3434,-5.1386 -45.3593,-19.4949 -58.0488,-39.3411 -8.592,-13.4375 -12.8874,-29.6323 -12.8874,-46.6489 0,-22.3009 8.0288,-43.6858 22.0689,-59.2366 16.6814,-18.4769 41.6436,-29.0419 68.7961,-29.1352 7.2375,-0.025 14.3573,0.8547 21.2093,2.4892 v -22.0152 c 0,-7.0624 -1.7446,-14.4765 -6.4038,-20.1993 h 26.9397 v 8.979 c 13.5497,-7.4829 31.6129,-11.5545 48.2172,-11.6722 22.0101,-0.1558 44.6964,8.4898 59.104,21.5846 7.3292,6.6617 13.1637,14.546 17.3685,23.3649 1.2832,-0.0631 2.5606,-0.1043 3.8294,-0.1223 23.0901,-0.3257 45.1816,8.8869 59.7449,22.1238 16.5062,15.0021 25.5117,36.1364 25.5117,60.195 0,26.1148 -12.2153,50.6055 -31.2366,65.6235 -13.7446,10.8516 -34.337,18.2882 -53.2637,18.5191 v 1.1405 c 5.4917,0.647 16.3579,5.7271 24.7633,10.6616 15.9545,9.3666 33.0492,21.8243 47.7431,28.4525 21.1729,-31.1607 33.5566,-68.7721 33.5566,-109.2761 0,-107.5264 -87.2003,-194.7267 -194.727,-194.7267 -107.5264,0 -194.7266,87.2003 -194.7266,194.7267 0,107.5267 87.2002,194.7269 194.7266,194.7269 39.6942,0 76.6152,-11.8875 107.4029,-32.292 0.8349,0.4047 1.6729,0.8032 2.5148,1.1935 2.3728,1.1 4.8812,2.1172 7.4867,3.0467 -33.1941,23.4317 -73.6927,37.2 -117.4044,37.2 -112.578,0 -203.8749,-91.2968 -203.8749,-203.8751 0,-112.5781 91.2969,-203.8749 203.8749,-203.8749 z m -40.6114,113.993 v -20.1112 c 13.1054,-13.0871 30.2669,-19.0128 47.2134,-19.1445 16.8409,-0.1308 32.3704,7.1673 43.3937,18.2199 4.876,4.8891 8.8869,10.5586 11.9655,16.8486 -8.3468,2.0629 -16.2969,5.0428 -23.0989,8.8683 v -8.6018 H 309.268 c 4.7098,5.1118 6.4732,13.2793 6.4732,20.4183 v 79.6599 c -4.0621,0.727 -8.2187,1.0134 -12.3684,0.9079 1.7071,-8.2829 1.8583,-15.4429 1.8583,-18.6603 0,-18.8002 -5.3017,-36.7347 -15.4007,-50.9873 -7.7818,-10.9821 -19.2558,-20.661 -32.8043,-27.4178 z" />
    <path
       id="path4491"
       style="fill:#3365ab;fill-rule:evenodd;stroke-width:0.94488198"
       d="m 41.3907,409.8885 c -0.0361,2.6252 0.2694,5.0587 0.9077,7.3003 0.6389,2.2418 1.5636,4.2625 2.7745,6.0531 1.2015,1.7994 2.6336,3.3304 4.2957,4.6114 1.6623,1.2807 3.4993,2.2632 5.5015,2.957 2.0018,0.6935 4.1222,1.0601 6.352,1.1086 2.7946,0.0393 5.2942,-0.2842 7.4989,-0.961 2.1951,-0.6771 4.1134,-1.6502 5.7356,-2.9205 1.622,-1.2612 2.9703,-2.7562 4.0402,-4.4759 2.2518,-3.619 3.2817,-8.0106 3.3552,-12.2442 1.8291,-3.6325 4.7461,-8.9052 6.9459,-11.959 -1.2906,-2.5265 -2.7841,-5.2977 -3.1017,-8.1548 -0.9869,4.7194 -2.1101,8.8295 -4.5406,13.3636 -1.0013,-3.0193 -2.6569,-6.6118 -4.4983,-8.7917 -1.8374,-2.1757 -4.0079,-3.8632 -6.5097,-5.0455 -2.5014,-1.192 -5.2478,-1.8231 -8.23,-1.8847 -2.7192,-0.038 -5.1716,0.277 -7.3388,0.9445 -2.1762,0.6776 -4.0754,1.6419 -5.7068,2.9124 -1.6315,1.2701 -2.9945,2.7804 -4.0888,4.54 -1.094,1.7599 -1.9188,3.7029 -2.483,5.8391 -0.5642,2.1358 -0.8674,4.4081 -0.9095,6.8073 z m 19.18,-11.8059 c 3.0765,0.063 5.7327,0.4574 7.9791,1.1746 2.2464,0.707 4.0929,1.6713 5.5494,2.8729 1.4473,1.202 2.5153,2.5664 3.213,4.1034 0.6887,1.5365 1.0177,3.1609 0.9882,4.8642 -0.0182,1.59 -0.3272,3.0902 -0.9161,4.5013 -0.5986,1.4105 -1.5336,2.6554 -2.823,3.7341 -1.2798,1.079 -2.9604,1.9155 -5.0506,2.5093 -2.0811,0.5945 -4.6268,0.8701 -7.6188,0.8274 -2.4463,-0.0428 -4.7181,-0.3646 -6.816,-0.9475 -2.0985,-0.5827 -3.9471,-1.4146 -5.5186,-2.496 -1.5818,-1.0724 -2.8014,-2.383 -3.678,-3.9136 -0.8671,-1.5303 -1.2981,-3.2604 -1.2734,-5.1986 0.0316,-1.8252 0.4275,-3.4845 1.1686,-4.977 0.7507,-1.4928 1.818,-2.7638 3.2014,-3.831 1.3829,-1.0681 3.0441,-1.8858 4.9928,-2.4447 1.958,-0.5588 4.1553,-0.812 6.602,-0.7788 z" />
    <path
       id="path4493"
       style="fill:#3365ab;fill-rule:evenodd;stroke-width:0.94488198"
       d="m 88.8917,363.711 c 0.9568,-3.5152 1.1457,-6.6351 0.5615,-9.3407 -0.5813,-2.7146 -2.0292,-5.0301 -4.3337,-6.9444 -2.3045,-1.9144 -5.5502,-3.4403 -9.7485,-4.5716 -2.3574,-0.6352 -4.5897,-1.2659 -6.6925,-1.8711 -2.0915,-0.6122 -4.0175,-1.1895 -5.775,-1.7407 -1.751,-0.5396 -3.2796,-1.0393 -4.5907,-1.48 -1.3108,-0.4408 -2.3676,-0.8129 -3.1526,-1.112 -0.0429,0.4843 -0.1019,0.9548 -0.1672,1.4139 -0.0744,0.4564 -0.1694,0.9173 -0.2938,1.3794 -0.1246,0.4627 -0.2767,0.9176 -0.4467,1.3679 -0.1787,0.4483 -0.3666,0.8933 -0.573,1.3338 2.5391,0.5379 5.0622,1.1012 7.566,1.6977 2.5069,0.5883 5.0099,1.2235 7.5128,1.8975 2.0332,0.5385 3.9978,1.1163 5.8866,1.7222 1.8771,0.6127 3.5957,1.3091 5.1492,2.078 1.5649,0.7622 2.8697,1.6581 3.9217,2.6614 1.0616,1.0058 1.785,2.1827 2.1665,3.511 0.3902,1.3306 0.3578,2.8581 -0.0994,4.5927 -0.3723,1.4169 -0.8254,2.6658 -1.3713,3.7541 -0.5373,1.0903 -1.2461,1.989 -2.0971,2.6932 -0.8626,0.7108 -1.9492,1.2061 -3.2594,1.4851 -1.3131,0.2884 -2.9196,0.3322 -4.8316,0.1378 -1.9031,-0.192 -4.1848,-0.6411 -6.8229,-1.352 -2.0946,-0.5642 -4.1415,-1.1252 -6.1562,-1.6974 -2.0213,-0.5836 -4.0602,-1.2104 -6.1437,-1.8886 -2.0742,-0.6756 -4.2519,-1.4374 -6.5367,-2.3057 -0.1159,0.7564 -0.2527,1.5169 -0.4012,2.2842 -0.1575,0.7646 -0.3307,1.5159 -0.5283,2.2504 -0.1981,0.7342 -0.426,1.4705 -0.6739,2.2109 -0.257,0.7381 -0.521,1.4646 -0.8005,2.1769 0.9037,0.1847 2.2963,0.502 4.1583,0.9547 1.8594,0.462 4.2336,1.0724 7.1077,1.8467 0.9703,0.2618 1.9021,0.5224 2.8059,0.7759 0.9138,0.2554 1.845,0.5161 2.8102,0.7956 0.9683,0.2708 2.024,0.5745 3.1732,0.8941 1.1489,0.3192 2.4523,0.6803 3.9119,1.0734 2.5532,0.6681 4.8506,0.8399 6.8912,0.4852 2.0473,-0.3435 3.8407,-1.1148 5.3861,-2.3028 1.5479,-1.1974 2.8627,-2.7204 3.9352,-4.5712 1.0751,-1.8596 1.9307,-3.9536 2.5519,-6.2955 z" />
    <path
       id="path4495"
       style="fill:#3365ab;fill-rule:evenodd;stroke-width:0.94488198"
       d="m 84.0408,328.1175 c 1.4146,0.6774 2.7398,1.323 3.9637,1.9197 1.22,0.6056 2.3849,1.195 3.4907,1.7557 1.1016,0.5694 2.1821,1.1394 3.2336,1.7053 1.051,0.5666 2.1197,1.1617 3.1928,1.7693 0.0839,-0.2197 0.1804,-0.4859 0.2929,-0.7861 0.1211,-0.2959 0.2782,-0.6892 0.4761,-1.1673 0.2065,-0.4739 0.4771,-1.1041 0.8212,-1.8658 0.3443,-0.7623 0.7816,-1.7187 1.3253,-2.8745 0.5391,-1.1475 1.2001,-2.5489 1.9913,-4.2004 0.7424,-1.5496 1.3928,-2.8631 1.958,-3.956 0.5612,-1.0844 1.0581,-2.0128 1.4779,-2.7801 0.407,-0.7626 0.7735,-1.4411 1.0788,-2.0343 -0.3125,-0.087 -0.6502,-0.1865 -0.9884,-0.307 -0.3419,-0.1117 -0.7775,-0.2893 -1.294,-0.5365 -0.3472,-0.1666 -0.6483,-0.3212 -0.89,-0.4682 -0.246,-0.1384 -0.4709,-0.2776 -0.6787,-0.4087 -0.1956,-0.1354 -0.4084,-0.2788 -0.6205,-0.4221 -0.7088,2.0661 -1.4768,4.1032 -2.3081,6.0997 -0.8193,1.9919 -1.6936,3.9475 -2.6067,5.8532 -1.0404,-0.4363 -2.1108,-0.897 -3.1902,-1.3828 -1.0877,-0.49 -2.1673,-0.9968 -3.2344,-1.5083 -1.0924,-0.5232 -2.1807,-1.0551 -3.2567,-1.5912 -1.0843,-0.5404 -2.1558,-1.0644 -3.2228,-1.5756 0.9251,-1.9311 1.8801,-3.8371 2.8731,-5.7145 0.993,-1.8774 2.033,-3.7433 3.1104,-5.601 -0.3796,-0.1195 -0.6968,-0.2193 -0.9543,-0.2904 -0.2616,-0.0841 -0.4898,-0.1518 -0.6841,-0.224 -0.1982,-0.0639 -0.3889,-0.1443 -0.5668,-0.2297 -0.2116,-0.1014 -0.4189,-0.2114 -0.6183,-0.3174 -0.1954,-0.114 -0.4115,-0.2493 -0.654,-0.4171 -0.2457,-0.1596 -0.5438,-0.3648 -0.8921,-0.6151 -0.5452,1.311 -1.0781,2.576 -1.6158,3.8074 -0.5259,1.227 -1.076,2.4839 -1.6421,3.7741 -0.575,1.2867 -1.1943,2.6665 -1.8622,4.1478 -1.8588,-0.8801 -3.6969,-1.7817 -5.5225,-2.6873 -1.8254,-0.906 -3.6349,-1.867 -5.4328,-2.8742 0.1497,-0.3131 0.3855,-0.7835 0.7072,-1.3897 0.3254,-0.6143 0.7082,-1.3264 1.1567,-2.1321 0.4361,-0.801 0.9005,-1.6617 1.4023,-2.5562 0.4887,-0.8904 0.9776,-1.7808 1.4713,-2.6585 0.4851,-0.8815 0.95,-1.7004 1.3741,-2.4549 -0.2701,-0.0879 -0.5152,-0.1638 -0.7433,-0.2311 -0.2322,-0.0803 -0.4727,-0.1644 -0.7267,-0.2649 -0.2662,-0.0965 -0.5665,-0.2301 -0.914,-0.3963 -0.4486,-0.2149 -0.8348,-0.431 -1.153,-0.6357 -0.3144,-0.1923 -0.6117,-0.397 -0.8837,-0.5903 -0.1767,0.4991 -0.4911,1.2645 -0.944,2.3181 -0.4609,1.0493 -1.0196,2.3017 -1.6923,3.7495 -0.6605,1.4436 -1.3942,2.9973 -2.1978,4.6744 -0.7268,1.4948 -1.4828,2.9862 -2.2769,4.4695 -0.794,1.4834 -1.559,2.9706 -2.3106,4.453 1.1459,0.4554 2.2707,0.9114 3.3789,1.3796 1.1001,0.4645 2.2211,0.9498 3.3553,1.4517 1.1303,0.5102 2.3194,1.0488 3.5556,1.6204 1.2321,0.5798 2.566,1.2082 3.98,1.8857 z" />
    <path
       id="path4497"
       style="fill:#3365ab;fill-rule:evenodd;stroke-width:0.94488198"
       d="m 101.4539,295.1893 c 1.288,0.8951 2.493,1.7444 3.6059,2.5295 1.1073,0.7925 2.163,1.5604 3.165,2.291 0.9965,0.7384 1.972,1.4733 2.9193,2.2006 0.9471,0.7266 1.9069,1.4851 2.8685,2.2566 0.1183,-0.2036 0.2561,-0.4508 0.4152,-0.729 0.1668,-0.2728 0.3849,-0.6358 0.6568,-1.0763 0.2794,-0.4348 0.6473,-1.014 1.1091,-1.7107 0.4614,-0.6972 1.0461,-1.5713 1.7672,-2.6255 0.7159,-1.0465 1.5924,-2.3241 2.6377,-3.8278 0.9805,-1.4111 1.8324,-2.6035 2.565,-3.592 0.7278,-0.9811 1.3665,-1.8179 1.9037,-2.5084 0.5234,-0.6877 0.9938,-1.2989 1.3902,-1.8357 -0.2946,-0.1357 -0.6121,-0.2878 -0.9265,-0.4606 -0.3199,-0.165 -0.7216,-0.41 -1.1917,-0.7371 -0.3162,-0.2195 -0.5885,-0.4205 -0.8039,-0.6042 -0.2205,-0.176 -0.4205,-0.3495 -0.6048,-0.5117 -0.1713,-0.1652 -0.3583,-0.3406 -0.545,-0.5161 -1.0299,1.9261 -2.1137,3.8143 -3.2536,5.6524 -1.1271,1.8352 -2.303,3.626 -3.5087,5.3611 -0.9571,-0.597 -1.9404,-1.2232 -2.9279,-1.8752 -0.9953,-0.6575 -1.98,-1.3304 -2.9516,-2.006 -0.9951,-0.6913 -1.9844,-1.3903 -2.9607,-2.0914 -0.9839,-0.7069 -1.9581,-1.3953 -2.9296,-2.0709 1.2219,-1.7578 2.4695,-3.4872 3.7497,-5.1816 1.2807,-1.6944 2.6057,-3.37 3.9663,-5.0315 -0.356,-0.1784 -0.6526,-0.3277 -0.8956,-0.4394 -0.2451,-0.1243 -0.4594,-0.2277 -0.6397,-0.33 -0.1857,-0.0948 -0.3606,-0.2049 -0.5226,-0.3178 -0.1927,-0.1339 -0.3799,-0.2755 -0.5597,-0.4119 -0.1743,-0.1439 -0.3665,-0.312 -0.579,-0.5163 -0.2175,-0.1973 -0.4786,-0.447 -0.7822,-0.7499 -0.7477,1.2072 -1.4762,2.3705 -2.2041,3.4999 -0.7151,1.1272 -1.4587,2.2798 -2.2239,3.4635 -0.7732,1.1782 -1.6052,2.4412 -2.5014,3.7963 -1.6943,-1.1656 -3.3646,-2.3497 -5.0219,-3.5358 -1.6573,-1.186 -3.29,-2.4238 -4.9037,-3.7054 0.1986,-0.2856 0.5061,-0.712 0.9203,-1.2588 0.4197,-0.5542 0.9115,-1.1964 1.4832,-1.9199 0.5584,-0.7211 1.1543,-1.4963 1.7925,-2.299 0.6248,-0.801 1.25,-1.6017 1.8776,-2.3889 0.6198,-0.793 1.2093,-1.527 1.7489,-2.204 -0.2526,-0.1298 -0.4823,-0.2438 -0.6965,-0.3469 -0.2168,-0.1163 -0.4408,-0.2378 -0.6751,-0.3777 -0.2476,-0.1381 -0.5226,-0.3178 -0.8391,-0.5373 -0.4087,-0.2843 -0.755,-0.5592 -1.0367,-0.8118 -0.2792,-0.2399 -0.54,-0.49 -0.7779,-0.7239 -0.2538,0.4643 -0.6868,1.1695 -1.3021,2.1372 -0.6231,0.962 -1.3748,2.1093 -2.2704,3.4311 -0.8825,1.3189 -1.8556,2.7356 -2.9167,4.2622 -0.9564,1.3595 -1.9412,2.711 -2.9623,4.0481 -1.0211,1.3375 -2.0137,2.6833 -2.9929,4.0267 1.0585,0.6327 2.0959,1.2623 3.1153,1.9019 1.0111,0.6345 2.0406,1.2928 3.0799,1.9694 1.0341,0.6844 2.1215,1.4061 3.2507,2.1679 1.1234,0.7693 2.3396,1.603 3.6272,2.4978 z" />
    <path
       id="path4499"
       style="fill:#3365ab;fill-rule:evenodd;stroke-width:0.94488198"
       d="m 116.261,255.671 c 1.3375,1.3846 2.7004,2.8233 4.0688,4.308 1.3825,1.4853 2.7244,2.9565 4.0468,4.4209 1.3163,1.4706 2.5603,2.8672 3.7326,4.2027 1.1653,1.3285 2.2207,2.5294 3.1508,3.6144 0.9245,1.0789 1.6859,1.9889 2.2711,2.7034 0.5986,0.7136 0.9752,1.199 1.1372,1.4341 0.2454,-0.3546 0.5101,-0.7017 0.7884,-1.049 0.2849,-0.3403 0.5762,-0.6607 0.8804,-0.9543 0.3036,-0.2932 0.6339,-0.5733 0.9906,-0.8526 0.3569,-0.2662 0.7271,-0.5318 1.1098,-0.7842 -0.3862,-0.3322 -0.8437,-0.752 -1.3665,-1.2394 -0.5293,-0.4806 -1.1762,-1.1097 -1.9467,-1.8535 -0.7702,-0.7574 -1.7104,-1.69 -2.8262,-2.8189 -1.1165,-1.1284 -2.4472,-2.4931 -4.0064,-4.1075 -0.9848,-1.0198 -1.9895,-2.0603 -3.0199,-3.1277 -1.0177,-1.0669 -2.0418,-2.1408 -3.0585,-3.2212 -1.0178,-1.0671 -2.0017,-2.1272 -2.9601,-3.1731 6.2915,0.2691 12.5016,0.6166 18.624,1.0489 6.1287,0.4257 12.1632,0.9426 18.1103,1.5446 0.1841,-0.2955 0.3955,-0.5908 0.6195,-0.8859 0.2309,-0.2881 0.4813,-0.5688 0.7653,-0.843 0.2834,-0.274 0.5803,-0.5212 0.883,-0.7485 0.3094,-0.2201 0.6323,-0.4401 0.9742,-0.6535 -1.7286,-1.7903 -3.3333,-3.4517 -4.8204,-5.0053 -1.4872,-1.5401 -2.9023,-3.0195 -4.252,-4.4445 -1.3506,-1.4115 -2.674,-2.8227 -3.9844,-4.2334 -1.3036,-1.4043 -2.6462,-2.8622 -4.0011,-4.373 -1.3683,-1.5116 -2.8147,-3.1309 -4.3384,-4.8575 -1.5238,-1.727 -3.1779,-3.6155 -4.9615,-5.6791 -0.2453,0.3546 -0.5039,0.6958 -0.7688,1.0296 -0.2709,0.3271 -0.5555,0.6411 -0.8594,0.9347 -0.3042,0.2937 -0.6278,0.5669 -0.9642,0.8263 -0.3431,0.2533 -0.6928,0.4994 -1.0555,0.7324 0.3471,0.2647 0.9098,0.766 1.6808,1.4968 0.771,0.7308 1.6852,1.6233 2.7489,2.6846 1.0641,1.0613 2.2193,2.2306 3.4589,3.4875 1.2463,1.2635 2.5126,2.5607 3.8107,3.8919 1.2982,1.344 2.5639,2.6413 3.7967,3.9177 1.2329,1.2768 2.3684,2.4526 3.4185,3.5397 -6.0839,-0.3515 -12.1411,-0.7161 -18.158,-1.107 -6.0165,-0.3904 -12.0399,-0.788 -18.0629,-1.1986 -0.2454,0.3546 -0.5034,0.6953 -0.7683,1.0292 -0.2718,0.3272 -0.5561,0.6415 -0.86,0.9351 -0.3039,0.2933 -0.6276,0.5664 -0.9644,0.8263 -0.3429,0.253 -0.6926,0.4994 -1.0549,0.7322 0.6326,0.6285 1.3513,1.3186 2.1418,2.0695 0.7903,0.7642 1.6723,1.6096 2.6387,2.5564 0.9726,0.9532 2.0432,2.0347 3.2107,3.2438 z" />
    <path
       id="path4501"
       style="fill:#3365ab;fill-rule:evenodd;stroke-width:0.94488198"
       d="m 170.2233,207.1822 c -0.2405,-0.8181 -0.461,-1.5369 -0.6334,-2.1644 -0.1799,-0.622 -0.3471,-1.2077 -0.4864,-1.7666 -0.1472,-0.5542 -0.2835,-1.1259 -0.4065,-1.7292 -1.363,-0.1337 -2.8183,0.005 -4.368,0.4295 -1.5576,0.429 -3.1788,1.1907 -4.8852,2.2876 -1.4176,0.9205 -2.6213,2.0156 -3.6024,3.2801 -0.99,1.2697 -1.6969,2.647 -2.1318,4.1498 -0.4266,1.4978 -0.5157,3.0674 -0.2698,4.688 0.2387,1.6256 0.8957,3.2587 1.9389,4.8993 0.8721,1.3261 1.8287,2.3506 2.8622,3.0793 1.0327,0.7288 2.1077,1.2287 3.2424,1.5106 1.1351,0.2823 2.2953,0.4134 3.4727,0.399 1.1824,-0.007 2.3529,-0.084 3.524,-0.2288 1.1715,-0.1443 2.306,-0.2767 3.412,-0.4016 1.111,-0.1168 2.1589,-0.1589 3.145,-0.1054 0.9921,0.0615 1.8874,0.2861 2.7007,0.6761 0.8133,0.3901 1.5142,1.0209 2.0949,1.8978 0.5781,0.8899 0.8998,1.8343 0.9612,2.8246 0.0608,0.991 -0.1801,1.9645 -0.7179,2.9296 -0.5381,0.9652 -1.4185,1.8504 -2.6419,2.6563 -1.2862,0.8128 -2.534,1.2874 -3.7418,1.4111 -1.2072,0.1233 -2.3307,-0.0204 -3.3703,-0.4315 -1.0446,-0.4191 -1.9463,-1.0312 -2.7229,-1.8481 l -0.8981,0.583 c 0.3452,0.7727 0.6667,1.5264 0.9468,2.2514 0.2859,0.7327 0.5555,1.4757 0.8097,2.2291 0.2458,0.7584 0.5098,1.5608 0.7706,2.4104 0.6945,0.0532 1.5159,-0.0103 2.4716,-0.1937 0.95,-0.1918 1.9804,-0.5025 3.0794,-0.9476 1.1127,-0.4425 2.229,-1.0334 3.3763,-1.767 1.8773,-1.2305 3.4174,-2.6001 4.6205,-4.1095 1.2034,-1.5091 2.0483,-3.0877 2.5318,-4.7566 0.4893,-1.6612 0.6055,-3.327 0.355,-5.023 -0.2584,-1.6911 -0.8948,-3.3268 -1.92,-4.9226 -0.8727,-1.326 -1.8339,-2.3588 -2.875,-3.0823 -1.0411,-0.7232 -2.1368,-1.2214 -3.293,-1.5006 -1.1505,-0.2719 -2.3235,-0.406 -3.5218,-0.3887 -1.1983,0.0167 -2.3977,0.1008 -3.5898,0.248 -1.1871,0.1554 -2.3504,0.2947 -3.4718,0.4297 -1.1268,0.1269 -2.1824,0.1746 -3.1846,0.1313 -1.0022,-0.0436 -1.9089,-0.2498 -2.7245,-0.6271 -0.8162,-0.377 -1.5069,-0.9918 -2.0772,-1.8533 -0.4884,-0.769 -0.7359,-1.6163 -0.7409,-2.5199 0.003,-0.909 0.2407,-1.802 0.7305,-2.6687 0.4763,-0.8699 1.1991,-1.6189 2.1629,-2.2557 1.4409,-0.9358 2.8503,-1.3696 4.2325,-1.2932 1.3849,0.0637 2.7614,0.614 4.1242,1.6438 z" />
    <path
       id="path4503"
       style="fill:#3365ab;fill-rule:evenodd;stroke-width:0.94488198"
       d="m 214.4609,202.7211 c 0.4868,1.4907 0.933,2.8864 1.3496,4.1923 0.405,1.3003 0.7832,2.5498 1.1419,3.7369 0.3493,1.1901 0.6836,2.3649 1,3.516 0.317,1.1512 0.6246,2.3351 0.9263,3.5307 0.5687,-0.2552 1.2121,-0.5242 1.9142,-0.823 0.7147,-0.2926 1.5093,-0.5816 2.3904,-0.8794 0.8864,-0.2798 1.6983,-0.5153 2.4477,-0.701 0.7436,-0.1738 1.4214,-0.3361 2.0314,-0.466 -1.0535,-2.6199 -2.0531,-5.2565 -2.9818,-7.9171 -0.9284,-2.6606 -1.8297,-5.3297 -2.6954,-8.0105 l 2.7313,-0.8921 c 2.0085,-0.6562 3.7804,-1.4624 5.3067,-2.4451 1.5382,-0.9768 2.7658,-2.1188 3.6973,-3.4405 0.9342,-1.3131 1.5014,-2.812 1.7047,-4.4888 0.2031,-1.6764 -0.0293,-3.5366 -0.6881,-5.5839 -0.5131,-1.5708 -1.2272,-2.8491 -2.1508,-3.8319 -0.9353,-0.9889 -2.1066,-1.762 -3.5321,-2.314 -0.6958,-0.2864 -1.5056,-0.4665 -2.4229,-0.522 -0.9201,-0.0653 -2.0015,0.0114 -3.2443,0.2297 -1.2427,0.2183 -2.7,0.5957 -4.3692,1.141 -1.2916,0.4316 -2.5981,0.9079 -3.9017,1.4226 -1.3125,0.5178 -2.5926,0.9854 -3.8303,1.3997 -0.8839,0.2884 -1.6991,0.5154 -2.4516,0.6921 -0.7404,0.1825 -1.4211,0.336 -2.0276,0.4746 0.4621,1.143 0.9098,2.2713 1.3367,3.3963 0.4236,1.1163 0.8475,2.2621 1.2682,3.4288 0.4115,1.1697 0.8435,2.4016 1.2842,3.6901 0.4316,1.2913 0.8987,2.6899 1.3855,4.1803 z m 12.0936,-17.0502 c 0.5515,1.717 0.753,3.1821 0.6034,4.3867 -0.1466,1.2138 -0.5214,2.2151 -1.1408,3.0102 -0.6166,0.8046 -1.3656,1.4439 -2.2421,1.9378 -0.8755,0.4934 -1.7688,0.8742 -2.682,1.1625 -0.8138,-2.4902 -1.6213,-4.9923 -2.4168,-7.5183 -0.8018,-2.5145 -1.597,-5.0402 -2.3925,-7.5665 0.2858,-0.1229 0.6283,-0.2546 1.0119,-0.38 0.381,-0.134 0.7916,-0.2685 1.2198,-0.4085 1.0295,-0.3559 2.0396,-0.4388 3.0455,-0.2637 1.0056,0.1754 1.9292,0.7036 2.7942,1.597 0.8645,0.8928 1.5988,2.2334 2.1994,4.0428 z" />
    <path
       id="path4505"
       style="fill:#3365ab;fill-rule:evenodd;stroke-width:0.94488198"
       d="m 256.8777,167.2422 c -0.3513,0.1184 -0.6915,0.244 -1.0242,0.3593 -0.3311,0.1244 -0.6762,0.2226 -1.0371,0.2851 -0.3608,0.0628 -0.7187,0.0872 -1.0726,0.0818 -0.3517,0.004 -0.7145,5e-4 -1.0849,0.007 -0.3694,1.9323 -0.7829,3.9963 -1.2308,6.1905 -0.4491,2.1845 -0.917,4.4292 -1.4117,6.7363 -0.4951,2.3067 -0.9994,4.6154 -1.5047,6.9146 -0.5062,2.2993 -1.0063,4.5213 -1.4976,6.6847 -0.4929,2.154 -0.9513,4.178 -1.3951,6.0662 -0.4345,1.8863 -0.8272,3.5752 -1.1873,5.0672 -0.3509,1.4913 -0.6434,2.7142 -0.8867,3.6716 0.5066,-0.155 0.9875,-0.2954 1.4205,-0.4376 0.4345,-0.1328 0.8734,-0.2376 1.3066,-0.3226 0.4459,-0.0679 0.8855,-0.1157 1.3204,-0.1342 0.4371,-0.009 0.8813,-0.0293 1.3371,-0.0417 0.1944,-2.007 0.4364,-4.0125 0.7281,-6.0078 0.2904,-2.0043 0.647,-4.0106 1.0684,-6.0285 0.9667,-0.1968 1.9239,-0.3914 2.8735,-0.5758 0.9484,-0.1934 1.9089,-0.37 2.8799,-0.5388 1.194,-0.2075 2.3799,-0.4041 3.5598,-0.5809 1.1781,-0.1857 2.3671,-0.3637 3.5654,-0.5432 1.0221,1.7664 2.0179,3.5475 2.9876,5.3423 0.9697,1.7951 1.9102,3.5855 2.8212,5.3715 0.7656,-0.2 1.5424,-0.392 2.327,-0.5951 0.7857,-0.1937 1.5674,-0.3583 2.3431,-0.5025 0.7788,-0.1258 1.5699,-0.2351 2.375,-0.3177 0.8166,-0.0752 1.6679,-0.1663 2.5581,-0.254 -0.9666,-1.3954 -2.0228,-2.9753 -3.167,-4.7301 -1.1439,-1.7551 -2.3471,-3.6333 -3.6118,-5.6439 -1.2551,-2.0118 -2.5513,-4.0935 -3.8709,-6.2563 -1.3196,-2.1631 -2.6423,-4.3448 -3.9594,-6.5464 -1.3275,-2.2091 -2.621,-4.3861 -3.8898,-6.5295 -1.2684,-2.1431 -2.4855,-4.2098 -3.6401,-6.1919 z m -5.2779,25.5662 c 0.4142,-2.388 0.8606,-4.7534 1.3478,-7.1062 0.4789,-2.3424 1.006,-4.6836 1.5737,-7.0126 1.2554,2.0121 2.4859,4.0478 3.672,6.1004 1.1879,2.0619 2.3789,4.1428 3.5651,6.2522 z" />
    <path
       id="path4507"
       style="fill:#3365ab;fill-rule:evenodd;stroke-width:0.94488198"
       d="m 305.6848,202.8359 c 0.8453,-0.063 1.7004,-0.1164 2.5643,-0.1794 0.864,-0.0535 1.7185,-0.079 2.5639,-0.0855 0.8449,0.0121 1.6899,0.043 2.5353,0.1022 0.8447,0.0686 1.6898,0.1276 2.5345,0.1962 -1.3639,-2.127 -2.7375,-4.2629 -4.1204,-6.3993 -1.3733,-2.1359 -2.7185,-4.2722 -4.0357,-6.4083 -1.3175,-2.1267 -2.5778,-4.2626 -3.7826,-6.3885 2.81,-0.6951 4.9644,-1.9089 6.4724,-3.6414 1.5083,-1.7328 2.2671,-3.9652 2.2947,-6.6975 -0.004,-1.6623 -0.3282,-3.1189 -0.9721,-4.3606 -0.6436,-1.2417 -1.5323,-2.2681 -2.6665,-3.0889 -0.4773,-0.3582 -1.0024,-0.6512 -1.5462,-0.8969 -0.5534,-0.246 -1.2009,-0.4457 -1.9234,-0.5984 -0.7318,-0.1524 -1.605,-0.2678 -2.6278,-0.3369 -1.0141,-0.0785 -2.2256,-0.1106 -3.6436,-0.1152 -1.2676,-0.004 -2.404,0.0204 -3.3995,0.064 -0.9958,0.0436 -1.888,0.0784 -2.6859,0.1226 -0.7988,0.0446 -1.5314,0.0704 -2.1979,0.0683 -0.9296,-0.003 -1.7748,-0.0431 -2.5445,-0.1116 -0.7605,-0.0588 -1.4554,-0.1268 -2.0751,-0.1852 0.0809,1.2305 0.1518,2.4423 0.2042,3.6441 0.0529,1.1928 0.0957,2.414 0.1292,3.6536 0.0241,1.2398 0.0478,2.5451 0.0623,3.9068 0.005,1.3615 0.01,2.8361 0.004,4.4042 l -0.0248,7.6625 c -0.005,1.5687 -0.0193,3.0335 -0.033,4.4045 -0.0234,1.3616 -0.0556,2.6666 -0.0878,3.9062 -0.042,1.2395 -0.0925,2.4601 -0.153,3.6525 -0.0602,1.192 -0.139,2.4132 -0.2279,3.6428 0.6199,-0.0639 1.3154,-0.1175 2.0761,-0.181 0.7699,-0.0537 1.6155,-0.0791 2.5452,-0.0854 0.9297,0.0123 1.7748,0.0432 2.5445,0.1021 0.7607,0.0683 1.4548,0.1266 2.0747,0.1945 -0.0802,-1.2302 -0.1517,-2.4516 -0.204,-3.6445 -0.0525,-1.1928 -0.0956,-2.4137 -0.1291,-3.6532 -0.0241,-1.2399 -0.048,-2.5451 -0.0626,-3.9068 -0.005,-1.3711 -0.009,-2.8361 -0.004,-4.4045 l 0.008,-2.3096 0.5069,0.001 z m -1.5983,-28.29 c -0.0178,2.6481 -0.6819,4.6554 -1.9914,6.0035 -1.3099,1.3575 -3.2091,2.0273 -5.6976,2.0286 -0.1969,-7e-4 -0.3944,-0.0105 -0.6007,-0.0394 -0.1974,-0.0194 -0.4132,-0.0484 -0.6384,-0.0774 0.008,-2.5637 0.0262,-5.118 0.0622,-7.6622 0.0365,-2.5452 0.0917,-5.0992 0.1566,-7.6623 1.5311,-0.0142 2.8546,0.0654 3.9527,0.2287 1.1075,0.1634 2.0079,0.4946 2.7109,0.9853 0.7026,0.5001 1.2262,1.2436 1.5608,2.2307 0.3348,0.9967 0.4905,2.3118 0.4849,3.9645 z" />
    <path
       id="path4509"
       style="fill:#3365ab;fill-rule:evenodd;stroke-width:0.94488198"
       d="m 398.4615,227.0596 c 0.7908,0.305 1.5864,0.623 2.3941,0.9359 0.8037,0.3216 1.5868,0.6645 2.3536,1.0206 0.7583,0.3727 1.5087,0.7625 2.2473,1.178 0.734,0.4237 1.4724,0.8388 2.2063,1.2625 -0.3217,-2.5061 -0.6484,-5.0244 -0.9833,-7.5472 -0.3264,-2.5183 -0.6273,-5.0249 -0.9029,-7.5192 -0.2799,-2.486 -0.5043,-4.9558 -0.6827,-7.3929 2.8369,0.5751 5.3037,0.4007 7.4083,-0.5191 2.1049,-0.9201 3.7466,-2.6126 4.9415,-5.0699 0.7083,-1.5039 1.039,-2.959 0.9888,-4.3568 -0.05,-1.3978 -0.4135,-2.7058 -1.087,-3.9333 -0.2779,-0.528 -0.6271,-1.0176 -1.0133,-1.4725 -0.3947,-0.4593 -0.8943,-0.917 -1.4819,-1.3644 -0.596,-0.451 -1.3357,-0.9292 -2.2304,-1.4296 -0.8828,-0.5052 -1.9638,-1.053 -3.2433,-1.6643 -1.1438,-0.5465 -2.1812,-1.0111 -3.0994,-1.3979 -0.9186,-0.387 -1.7398,-0.7376 -2.4798,-1.0394 -0.741,-0.3017 -1.414,-0.5921 -2.0154,-0.8793 -0.8388,-0.4008 -1.5854,-0.799 -2.2517,-1.1905 -0.662,-0.3787 -1.2609,-0.7378 -1.7959,-1.0559 -0.4538,1.1466 -0.9086,2.2721 -1.3758,3.3806 -0.463,1.1005 -0.9473,2.2224 -1.4478,3.357 -0.5091,1.1307 -1.0467,2.3204 -1.6166,3.5571 -0.5783,1.2326 -1.2056,2.5671 -1.8819,3.9819 l -3.3036,6.9139 c -0.6762,1.4154 -1.3163,2.7331 -1.9157,3.9661 -0.6043,1.2205 -1.1922,2.386 -1.752,3.4924 -0.5688,1.1022 -1.1371,2.1835 -1.7023,3.2352 -0.5648,1.0514 -1.159,2.1213 -1.7659,3.1943 0.5876,0.2077 1.2391,0.4571 1.9537,0.7255 0.7188,0.2811 1.4937,0.6202 2.3366,1.0127 0.835,0.4091 1.5854,0.7989 2.2557,1.1817 0.6582,0.3875 1.2605,0.7374 1.7916,1.0642 0.4543,-1.1461 0.9127,-2.2804 1.3762,-3.3808 0.4633,-1.1004 0.9472,-2.2221 1.4477,-3.3567 0.5091,-1.1307 1.0464,-2.3205 1.6163,-3.5572 0.5828,-1.2411 1.2059,-2.567 1.8823,-3.982 l 0.9958,-2.084 0.4575,0.2184 z M 409.131,200.81 c -1.15,2.3855 -2.6097,3.9151 -4.3703,4.5726 -1.765,0.6658 -3.7682,0.4578 -6.0175,-0.6066 -0.1777,-0.0849 -0.3519,-0.1784 -0.526,-0.2928 -0.1701,-0.1021 -0.3527,-0.2207 -0.5437,-0.3433 1.1053,-2.3132 2.2151,-4.6138 3.3371,-6.8976 1.1229,-2.2844 2.2664,-4.5687 3.4226,-6.8572 1.3897,0.6428 2.5516,1.2815 3.4741,1.8993 0.9308,0.6218 1.6027,1.3067 2.0278,2.0512 0.4208,0.7527 0.5756,1.6488 0.4552,2.6841 -0.1242,1.0441 -0.5466,2.2992 -1.2593,3.7903 z" />
    <path
       id="path4511"
       style="fill:#3365ab;fill-rule:evenodd;stroke-width:0.94488198"
       d="m 513.5691,387.5259 c 0.2128,0.8204 0.418,1.6523 0.6343,2.491 0.2069,0.8406 0.3845,1.6768 0.5418,2.5075 0.139,0.8335 0.2595,1.6704 0.3521,2.5128 0.0833,0.8434 0.1762,1.6854 0.2595,2.5287 1.8493,-1.7216 3.7057,-3.4545 5.5608,-5.1966 1.8565,-1.7326 3.7183,-3.4376 5.5848,-5.1149 1.8573,-1.6761 3.7339,-3.2975 5.6106,-4.8625 1.1856,2.6407 2.7646,4.5439 4.7384,5.7183 1.9742,1.1747 4.3063,1.5228 6.9996,1.0621 1.6349,-0.3007 3.0102,-0.8797 4.117,-1.735 1.1069,-0.855 1.9581,-1.9126 2.5632,-3.1752 0.2672,-0.5335 0.4617,-1.1026 0.6064,-1.6815 0.1433,-0.5884 0.2242,-1.2611 0.2454,-1.9993 0.0193,-0.7472 -0.0231,-1.627 -0.1377,-2.6457 -0.1038,-1.0118 -0.2884,-2.2096 -0.5371,-3.6056 -0.2224,-1.248 -0.4492,-2.3618 -0.6699,-3.3335 -0.2207,-0.972 -0.4142,-1.8437 -0.6002,-2.6209 -0.1865,-0.778 -0.3426,-1.4942 -0.4596,-2.1503 -0.163,-0.9152 -0.2744,-1.754 -0.3445,-2.5236 -0.0779,-0.7587 -0.1351,-1.4546 -0.1883,-2.0748 -1.1962,0.2993 -2.3759,0.5854 -3.5491,0.8516 -1.1641,0.2649 -2.3581,0.525 -3.5717,0.7794 -1.2157,0.245 -2.4957,0.5013 -3.8329,0.7587 -1.3388,0.2482 -2.7888,0.516 -4.3327,0.7906 l -7.5439,1.3437 c -1.5443,0.2751 -2.9881,0.5226 -4.3395,0.7539 -1.344,0.2201 -2.6337,0.4214 -3.8591,0.611 -1.2272,0.18 -2.4371,0.3482 -3.6212,0.5016 -1.1836,0.1536 -2.3993,0.2941 -3.6249,0.4261 0.1735,0.5985 0.3504,1.2733 0.5487,2.0105 0.1903,0.7479 0.3662,1.5754 0.5384,2.489 0.1539,0.917 0.2744,1.754 0.3539,2.5218 0.0686,0.7607 0.1352,1.454 0.179,2.0761 1.1961,-0.2986 2.3851,-0.587 3.5495,-0.8513 1.1643,-0.2647 2.3578,-0.525 3.5715,-0.7794 1.2156,-0.245 2.4956,-0.5016 3.8328,-0.759 1.3482,-0.2496 2.7889,-0.5156 4.333,-0.7904 l 2.2739,-0.4049 0.089,0.499 z m 27.5501,-6.6234 c -2.6088,0.4553 -4.7024,0.1602 -6.2627,-0.8876 -1.5695,-1.0465 -2.5676,-2.7957 -3.0132,-5.2439 -0.0345,-0.1939 -0.06,-0.39 -0.0684,-0.5981 -0.0162,-0.1977 -0.0262,-0.4152 -0.0379,-0.6419 2.524,-0.4495 5.0405,-0.888 7.5502,-1.3068 2.5109,-0.4185 5.0336,-0.8201 7.5672,-1.2139 0.2873,1.5039 0.4452,2.8203 0.4807,3.93 0.0369,1.1189 -0.1282,2.064 -0.4856,2.8433 -0.3666,0.7805 -1.0046,1.4285 -1.9162,1.9339 -0.9209,0.5074 -2.1871,0.8954 -3.8141,1.185 z" />
    <path
       id="path4513"
       style="fill:#3365ab;fill-rule:evenodd;stroke-width:0.94488198"
       d="m 338.2072,188.6491 c 1.2813,3.225 2.5793,6.4629 3.8921,9.722 1.3054,3.2489 2.5996,6.5049 3.885,9.7595 0.8153,0.0874 1.6282,0.184 2.4429,0.2718 0.8132,0.0966 1.6214,0.2212 2.426,0.3641 0.7914,0.1596 1.6076,0.343 2.4643,0.5627 0.8455,0.2272 1.7947,0.4643 2.8527,0.7317 -0.4567,-0.9178 -1.0156,-2.104 -1.6654,-3.5656 -0.6616,-1.4534 -1.3758,-3.08 -2.162,-4.8825 -0.7769,-1.8007 -1.5861,-3.6842 -2.4125,-5.6281 -0.8261,-1.9439 -1.6377,-3.8662 -2.4356,-5.7566 -0.7891,-1.8893 -1.5357,-3.6458 -2.2192,-5.2855 0.6046,-0.5168 1.3751,-1.1543 2.3109,-1.904 0.9352,-0.7497 1.9678,-1.5581 3.099,-2.4328 1.1329,-0.8846 2.2843,-1.7654 3.4687,-2.6686 1.1843,-0.9036 2.3213,-1.7585 3.4143,-2.5836 1.0915,-0.8158 2.0802,-1.5456 2.9453,-2.1755 0.8757,-0.6366 1.5615,-1.1278 2.0665,-1.4718 -0.6474,-0.065 -1.2408,-0.1112 -1.7956,-0.1587 -0.5568,-0.0383 -1.0803,-0.0998 -1.5785,-0.1942 -0.5261,-0.0996 -1.0358,-0.2342 -1.5311,-0.3951 -0.4969,-0.1519 -1.0011,-0.3142 -1.5166,-0.4693 -0.5052,0.4969 -1.2368,1.1804 -2.1807,2.0241 -0.9451,0.8531 -2.037,1.8213 -3.2823,2.8951 -1.2357,1.0751 -2.5471,2.1935 -3.9367,3.3733 -1.3786,1.1721 -2.765,2.3336 -4.1473,3.4766 -1.383,1.1431 -2.6855,2.2148 -3.9167,3.2147 0.3413,-1.7991 0.6803,-3.5892 1.0253,-5.3586 0.3359,-1.7715 0.6743,-3.4567 1.003,-5.0384 0.3281,-1.5817 0.6436,-2.9938 0.9368,-4.2377 0.3009,-1.2339 0.5725,-2.2145 0.825,-2.9407 -0.6194,-0.0599 -1.3143,-0.125 -2.0721,-0.2113 -0.7689,-0.0785 -1.6063,-0.199 -2.5196,-0.3721 -0.9137,-0.1731 -1.737,-0.3675 -2.4814,-0.576 -0.7368,-0.1967 -1.4072,-0.3905 -2.0054,-0.5614 -0.1463,1.2243 -0.298,2.4289 -0.4664,3.6198 -0.1667,1.1824 -0.348,2.3907 -0.5421,3.6153 -0.2031,1.2232 -0.4186,2.5112 -0.6537,3.8525 -0.2442,1.3394 -0.5097,2.7897 -0.8016,4.3306 l -1.4269,7.5284 c -0.2922,1.5409 -0.5761,2.9878 -0.8391,4.3238 -0.2721,1.3348 -0.5428,2.6117 -0.8012,3.8243 -0.2675,1.2111 -0.5409,2.4016 -0.8185,3.563 -0.2777,1.1612 -0.5789,2.3468 -0.8907,3.5395 0.6212,0.0507 1.3143,0.125 2.0741,0.2021 0.7667,0.0881 1.6024,0.2178 2.5177,0.3819 0.9116,0.182 1.7367,0.3672 2.4827,0.5659 0.7354,0.2062 1.4072,0.3909 2.0044,0.5712 0.1199,-1.7932 0.4335,-4.152 0.9414,-7.0854 0.5065,-2.9248 1.1437,-6.388 1.9104,-10.3811 z" />
    <path
       id="path4515"
       style="fill:#3365ab;fill-rule:evenodd;stroke-width:0.94488198"
       d="m 450.4911,213.4333 c -0.33,-0.1683 -0.6577,-0.3239 -0.9727,-0.4814 -0.3203,-0.1499 -0.6318,-0.3281 -0.9289,-0.5423 -0.2967,-0.2142 -0.5641,-0.4534 -0.8077,-0.7099 -0.2486,-0.249 -0.4995,-0.5112 -0.7636,-0.7709 -1.6404,1.0862 -3.4055,2.2328 -5.2877,3.4461 -1.8766,1.2053 -3.8091,2.4398 -5.8048,3.6979 -1.9956,1.2584 -3.9995,2.5112 -5.9973,3.7564 -1.9982,1.2453 -3.9368,2.4406 -5.8274,3.6008 -1.8851,1.1533 -3.653,2.2399 -5.3136,3.2421 -1.6531,1.0077 -3.135,1.907 -4.4545,2.6922 -1.3115,0.791 -2.3909,1.4369 -3.2455,1.9317 0.4647,0.2543 0.9014,0.4997 1.3057,0.7099 0.3986,0.2183 0.7804,0.4591 1.1439,0.7095 0.3602,0.2714 0.7018,0.5523 1.019,0.8505 0.3118,0.3063 0.6369,0.6101 0.9641,0.9272 1.5712,-1.2638 3.1751,-2.4921 4.8059,-3.678 1.6366,-1.1929 3.3208,-2.3404 5.0582,-3.4489 0.8165,0.5534 1.625,1.1022 2.4204,1.6525 0.8009,0.5431 1.5986,1.1069 2.3983,1.6834 0.9824,0.7088 1.952,1.4197 2.9028,2.14 0.9565,0.713 1.9146,1.4387 2.8805,2.1705 -0.549,1.9657 -1.127,3.9226 -1.7331,5.8704 -0.606,1.9482 -1.2293,3.8723 -1.8702,5.7718 0.6785,0.4081 1.3585,0.8296 2.0524,1.2485 0.6878,0.4266 1.3516,0.8709 1.9971,1.3247 0.634,0.4689 1.2651,0.9588 1.887,1.4768 0.6243,0.5312 1.2845,1.0768 1.9695,1.6519 0.3219,-1.6666 0.7138,-3.5261 1.1698,-5.5708 0.4557,-2.0447 0.958,-4.2182 1.512,-6.528 0.5619,-2.3038 1.1447,-4.685 1.7696,-7.1409 0.6249,-2.4558 1.2607,-4.9261 1.9151,-7.4067 0.6522,-2.4939 1.3049,-4.9404 1.9516,-7.346 0.6463,-2.405 1.2735,-4.7198 1.8841,-6.931 z m -21.974,14.0934 c 1.9971,-1.3732 4.0013,-2.7067 6.0249,-4.003 2.0097,-1.294 4.0526,-2.5535 6.1151,-3.7751 -0.5619,2.3038 -1.1578,4.6068 -1.7972,6.8898 -0.6441,2.2904 -1.3,4.5963 -1.9798,6.9198 z" />
    <path
       id="path4517"
       style="fill:#3365ab;fill-rule:evenodd;stroke-width:0.94488198"
       d="m 466.7925,241.5656 c -1.4079,1.313 -2.8702,2.6507 -4.3786,3.9932 -1.509,1.3558 -3.0037,2.6721 -4.4908,3.969 -1.4932,1.2898 -2.9112,2.5097 -4.2668,3.6583 -1.349,1.1421 -2.568,2.1761 -3.6693,3.0878 -1.0947,0.9053 -2.0177,1.6504 -2.7424,2.2233 -0.7243,0.5857 -1.2157,0.9541 -1.4539,1.1115 0.3499,0.2515 0.6927,0.5227 1.0353,0.8071 0.3353,0.2904 0.6504,0.5873 0.9385,0.8966 0.2884,0.309 0.5623,0.6442 0.8354,1.0057 0.2599,0.3611 0.519,0.7359 0.7644,1.1231 0.3389,-0.3804 0.7671,-0.8303 1.2634,-1.3446 0.4895,-0.5209 1.1299,-1.1564 1.8868,-1.914 0.7709,-0.7571 1.7202,-1.681 2.8677,-2.7769 1.1481,-1.0963 2.5358,-2.4032 4.1772,-3.9335 1.0369,-0.9673 2.0949,-1.9536 3.1797,-2.9655 1.0848,-0.9984 2.1768,-2.0035 3.2741,-3.0019 1.0849,-0.9985 2.1619,-1.9643 3.2245,-2.9039 -0.3789,6.2855 -0.8346,12.4889 -1.374,18.6027 -0.5325,6.1208 -1.1545,12.1453 -1.8604,18.0806 0.2925,0.1896 0.5839,0.4058 0.875,0.6349 0.284,0.2361 0.5607,0.4915 0.8298,0.78 0.2686,0.2883 0.5109,0.5889 0.7329,0.8959 0.2146,0.3132 0.4291,0.6396 0.6363,0.9858 1.8201,-1.6975 3.5094,-3.2725 5.0888,-4.7329 1.566,-1.4599 3.0695,-2.8491 4.5177,-4.1737 1.4349,-1.3257 2.8693,-2.6244 4.3028,-3.9098 1.4263,-1.279 2.9074,-2.5961 4.4421,-3.9243 1.5355,-1.3417 3.1796,-2.7594 4.9323,-4.2526 1.7533,-1.4937 3.6705,-3.1146 5.7645,-4.862 -0.35,-0.2512 -0.6864,-0.5155 -1.016,-0.7863 -0.3223,-0.277 -0.6311,-0.5666 -0.9194,-0.8756 -0.2884,-0.3093 -0.5557,-0.6376 -0.8092,-0.9787 -0.2472,-0.3473 -0.4874,-0.7013 -0.7139,-1.068 -0.2708,0.3427 -0.7819,0.8962 -1.5262,1.6545 -0.744,0.7578 -1.6525,1.6566 -2.732,2.7017 -1.0795,1.0451 -2.2688,2.18 -3.547,3.3974 -1.2852,1.2241 -2.6043,2.467 -3.9577,3.7422 -1.367,1.2744 -2.6861,2.5175 -3.984,3.7278 -1.2978,1.2102 -2.4932,2.325 -3.5989,3.356 0.4582,-6.0766 0.9284,-12.1266 1.4241,-18.1358 0.4952,-6.0088 0.9978,-12.0246 1.5134,-18.0395 -0.3497,-0.2516 -0.6864,-0.5152 -1.0156,-0.7861 -0.3224,-0.2773 -0.6311,-0.5669 -0.9195,-0.8762 -0.288,-0.3087 -0.5557,-0.6373 -0.8095,-0.9783 -0.2471,-0.3474 -0.4874,-0.7014 -0.7135,-1.0678 -0.6396,0.6217 -1.3425,1.3283 -2.1069,2.1055 -0.7777,0.7769 -1.6384,1.6436 -2.6019,2.5934 -0.9703,0.9563 -2.07,2.0074 -3.2993,3.1539 z" />
    <path
       id="path4519"
       style="fill:#3365ab;fill-rule:evenodd;stroke-width:0.94488198"
       d="m 519.277,306.7308 c 0.9153,-0.3339 1.8545,-0.6278 2.8225,-0.8727 0.9676,-0.2452 1.9404,-0.4823 2.9273,-0.6951 -0.0693,-1.5188 -0.2322,-2.9937 -0.4887,-4.4238 -0.2698,-1.4337 -0.6793,-2.8826 -1.2418,-4.3501 -0.5543,-1.4722 -1.3111,-3.0102 -2.2718,-4.6349 -1.3532,-2.2874 -2.8718,-4.3023 -4.56,-6.0313 -1.6879,-1.7288 -3.5216,-3.1323 -5.4877,-4.2061 -1.9706,-1.0818 -4.0455,-1.7858 -6.2416,-2.1237 -2.1916,-0.3296 -4.4626,-0.2411 -6.8225,0.271 -2.3593,0.5117 -4.7699,1.4899 -7.2403,2.9399 -2.4719,1.4835 -4.4334,3.2764 -5.8676,5.3899 -1.4418,2.1183 -2.3635,4.4527 -2.7726,7.0077 -0.4139,2.5468 -0.3017,5.2083 0.3198,7.9936 0.6167,2.7771 1.7524,5.5641 3.4031,8.3734 1.283,2.1324 2.7664,4.1794 4.4526,6.1273 1.6918,1.9562 3.4644,3.81 5.3394,5.5601 0.1715,-0.1347 0.4399,-0.326 0.8181,-0.5716 0.3709,-0.241 0.7978,-0.5153 1.2939,-0.8197 0.4916,-0.3125 1.0125,-0.6315 1.5491,-0.9599 0.5448,-0.3331 1.0698,-0.6438 1.5873,-0.9495 0.7841,-0.4639 1.6052,-0.9386 2.4557,-1.4194 0.8548,-0.4731 1.6692,-0.9219 2.4644,-1.3484 0.7869,-0.4218 1.4897,-0.7829 2.0928,-1.0737 0.6103,-0.2958 1.0641,-0.4878 1.3641,-0.5893 -0.1516,-0.1826 -0.3369,-0.4224 -0.5685,-0.7219 -0.2269,-0.2913 -0.5031,-0.6842 -0.8235,-1.1712 -0.3258,-0.495 -0.7192,-1.1235 -1.1733,-1.8915 -0.3872,-0.6548 -0.7009,-1.222 -0.9492,-1.6974 -0.2436,-0.4666 -0.4408,-0.8738 -0.5818,-1.2047 -0.1414,-0.3314 -0.2571,-0.6009 -0.3491,-0.8302 -0.2848,0.2008 -0.7342,0.511 -1.3396,0.9447 -0.6179,0.4314 -1.4654,1.0085 -2.5605,1.7217 -1.0946,0.7131 -2.503,1.5783 -4.2409,2.6063 -0.7063,0.4288 -1.3499,0.798 -1.941,1.1261 -0.592,0.328 -1.1004,0.5747 -1.5398,0.7361 -0.2571,-0.1209 -0.5601,-0.3564 -0.9088,-0.7063 -0.3485,-0.35 -0.71,-0.7582 -1.0968,-1.2276 -0.3787,-0.4745 -0.7463,-0.9663 -1.0926,-1.4598 -0.3512,-0.501 -0.6525,-0.9562 -0.901,-1.3765 -1.0962,-1.8719 -1.7331,-3.7422 -1.9278,-5.6019 -0.1813,-1.857 0.0333,-3.6528 0.6607,-5.3769 0.6233,-1.732 1.5995,-3.3463 2.9296,-4.8418 1.3303,-1.4958 2.9588,-2.8187 4.8987,-3.9664 2.0416,-1.1966 4.0071,-2.0424 5.8993,-2.5506 1.8929,-0.5081 3.6752,-0.7224 5.369,-0.6436 1.6856,0.0829 3.2282,0.4034 4.6482,0.9602 1.425,0.5644 2.678,1.3183 3.7757,2.2512 1.0934,0.9459 1.9982,2.0146 2.7154,3.2271 0.8622,1.476 1.4438,2.9209 1.7507,4.3432 0.2984,1.4274 0.3587,2.8207 0.1845,4.1678 -0.1827,1.3516 -0.5585,2.6539 -1.1348,3.9112 z" />
    <path
       id="path4521"
       style="fill:#3365ab;fill-rule:evenodd;stroke-width:0.94488198"
       d="m 513.5264,330.6369 c -1.4675,0.5541 -2.8498,1.0664 -4.127,1.539 -1.2804,0.4636 -2.511,0.8987 -3.6807,1.3106 -1.1728,0.4031 -2.3312,0.7904 -3.4671,1.1592 -1.1353,0.369 -2.3043,0.7305 -3.4847,1.0862 0.1004,0.2126 0.2266,0.4665 0.366,0.7551 0.1302,0.2921 0.3058,0.6775 0.515,1.1506 0.2,0.4765 0.4687,1.1079 0.7813,1.8829 0.3133,0.7754 0.7027,1.7522 1.1625,2.944 0.457,1.1827 1.0136,2.6287 1.6611,4.3415 0.6073,1.6075 1.1077,2.985 1.5072,4.1487 0.3965,1.1552 0.7244,2.1555 0.989,2.989 0.2704,0.8215 0.5074,1.5553 0.7253,2.1858 0.2789,-0.1656 0.5842,-0.3416 0.9047,-0.5024 0.3173,-0.1702 0.7465,-0.3625 1.2823,-0.565 0.3602,-0.1362 0.68,-0.2469 0.9531,-0.32 0.2702,-0.0821 0.5263,-0.1487 0.7647,-0.2087 0.2327,-0.0477 0.4834,-0.1023 0.7338,-0.1566 -1.0039,-1.9398 -1.9463,-3.9026 -2.8155,-5.8829 -0.8743,-1.9684 -1.6839,-3.9518 -2.4305,-5.9283 1.0339,-0.4508 2.1068,-0.9063 3.2037,-1.3511 1.1057,-0.4479 2.2181,-0.8781 3.3244,-1.2963 1.1335,-0.4284 2.2701,-0.8476 3.401,-1.2551 1.14,-0.4107 2.259,-0.8233 3.3657,-1.2415 0.7569,2.0029 1.4754,4.0102 2.1463,6.0251 0.6715,2.0152 1.3017,4.0561 1.9003,6.1185 0.3489,-0.1919 0.6397,-0.3521 0.8694,-0.4891 0.2413,-0.1312 0.4479,-0.2493 0.6343,-0.3402 0.1835,-0.0994 0.3731,-0.1812 0.5579,-0.2507 0.2198,-0.0831 0.4422,-0.1572 0.6569,-0.2283 0.2173,-0.0619 0.4642,-0.125 0.7533,-0.1843 0.2855,-0.0675 0.6392,-0.1413 1.0608,-0.22 -0.5713,-1.3001 -1.1174,-2.5594 -1.6361,-3.7992 -0.5241,-1.2272 -1.0522,-2.4932 -1.5942,-3.7942 -0.5332,-1.3047 -1.1028,-2.7056 -1.7121,-4.2119 1.9204,-0.7356 3.8422,-1.4419 5.7581,-2.1358 1.9165,-0.6941 3.8614,-1.3382 5.8317,-1.9423 0.1226,0.3248 0.3,0.8199 0.5157,1.4715 0.2191,0.6598 0.4696,1.4286 0.7422,2.3097 0.2784,0.8681 0.5793,1.7988 0.8798,2.7795 0.3058,0.9685 0.6116,1.9369 0.9052,2.9001 0.3024,0.9602 0.573,1.8618 0.8254,2.6899 0.2504,-0.1347 0.4744,-0.2593 0.6807,-0.3777 0.2182,-0.1126 0.4454,-0.2284 0.6936,-0.3423 0.2539,-0.1259 0.5579,-0.2511 0.9181,-0.3869 0.4657,-0.1762 0.8883,-0.306 1.2563,-0.3948 0.3557,-0.0943 0.7095,-0.1677 1.0368,-0.2311 -0.2385,-0.4722 -0.5748,-1.2284 -1.0234,-2.2835 -0.4404,-1.0584 -0.9597,-2.3278 -1.5419,-3.8145 -0.5871,-1.4744 -1.2036,-3.079 -1.8605,-4.818 -0.5787,-1.5583 -1.1346,-3.1354 -1.658,-4.7344 -0.5243,-1.5985 -1.0711,-3.1791 -1.6236,-4.7471 -1.1209,0.5141 -2.2276,1.0121 -3.3321,1.49 -1.0957,0.4743 -2.221,0.9496 -3.3674,1.4231 -1.1496,0.4642 -2.3607,0.9521 -3.6279,1.4509 -1.2703,0.4903 -2.6463,1.0202 -4.1128,1.5746 z" />
    <path
       id="path4523"
       style="fill:#3365ab;fill-rule:evenodd;stroke-width:0.94488198"
       d="m 547.2964,427.4286 c 0.8212,0.2296 1.5477,0.4238 2.1708,0.6097 0.623,0.1773 1.2084,0.3456 1.7563,0.5237 0.5476,0.1692 1.1049,0.3566 1.6816,0.5719 0.8359,-1.085 1.4892,-2.3926 1.9507,-3.932 0.4615,-1.5482 0.6743,-3.3271 0.6483,-5.355 -0.0293,-1.6904 -0.32,-3.2914 -0.8722,-4.7938 -0.5525,-1.512 -1.3457,-2.841 -2.3901,-4.0062 -1.0438,-1.1557 -2.3275,-2.0633 -3.8321,-2.7132 -1.5051,-0.6591 -3.2386,-0.9672 -5.1824,-0.9524 -1.5865,0.0373 -2.9625,0.3058 -4.1284,0.7958 -1.1649,0.4898 -2.159,1.1364 -2.9994,1.9491 -0.8405,0.8132 -1.5667,1.7276 -2.1781,2.7335 -0.6212,1.0067 -1.1759,2.0402 -1.6737,3.1099 -0.4981,1.0701 -0.9873,2.1024 -1.4675,3.1065 -0.4899,1.004 -1.0089,1.9147 -1.5772,2.7228 -0.5778,0.8085 -1.2429,1.4495 -2.0044,1.9325 -0.7618,0.4829 -1.6683,0.7426 -2.7196,0.7705 -1.0611,0.0183 -2.0324,-0.2087 -2.9045,-0.6816 -0.8728,-0.4734 -1.5709,-1.1936 -2.1042,-2.1611 -0.5337,-0.9678 -0.8175,-2.1835 -0.8526,-3.6481 -0.008,-1.5213 0.2508,-2.8314 0.786,-3.9211 0.5353,-1.0891 1.2525,-1.966 2.1517,-2.6297 0.909,-0.6637 1.9061,-1.1038 3.0107,-1.3297 l -0.0185,-1.0704 c -0.8383,-0.1168 -1.6479,-0.2439 -2.4114,-0.3901 -0.7727,-0.1461 -1.5459,-0.3109 -2.319,-0.4949 -0.7736,-0.1935 -1.5941,-0.3948 -2.4528,-0.6238 -0.4131,0.561 -0.7947,1.2909 -1.1451,2.1987 -0.3409,0.9075 -0.6236,1.9461 -0.8286,3.114 -0.2144,1.178 -0.3048,2.438 -0.2907,3.7994 0.0487,2.2441 0.394,4.276 1.0365,6.0961 0.6424,1.8202 1.5333,3.3733 2.6924,4.6676 1.1496,1.2952 2.5003,2.2766 4.0713,2.9629 1.5712,0.6769 3.2958,1.004 5.1923,0.9802 1.5868,-0.0374 2.9718,-0.3054 4.1374,-0.8049 1.1653,-0.4995 2.1683,-1.1648 3.0173,-1.997 0.8405,-0.8314 1.5757,-1.7555 2.1962,-2.7807 0.621,-1.0252 1.1852,-2.087 1.6916,-3.1757 0.4976,-1.0888 0.9959,-2.1497 1.4758,-3.1722 0.4894,-1.0227 1.0085,-1.943 1.5763,-2.7703 0.5681,-0.8269 1.2233,-1.4865 1.9757,-1.9782 0.752,-0.4923 1.6394,-0.7521 2.6723,-0.7793 0.9107,-0.007 1.7608,0.232 2.5295,0.707 0.769,0.4845 1.4008,1.1591 1.8761,2.0334 0.4851,0.8652 0.7374,1.8753 0.7668,3.03 0.0302,1.7181 -0.3488,3.1428 -1.1463,4.2744 -0.7877,1.1408 -1.984,2.0165 -3.5796,2.6267 z" />
    <g
       style="stroke-width:0.94488198"
       id="Layer1001">
      <path
         id="path4525"
         style="fill:#3365ab;fill-rule:evenodd;stroke-width:0.94488198"
         d="m 241.6252,630.8922 c -2.1599,0.4126 -4.2182,0.7762 -6.187,1.0689 -1.9626,0.304 -3.9065,0.5454 -5.8401,0.7506 -1.9313,0.1963 -3.9173,0.3471 -5.9724,0.4678 0.1746,0.2367 0.3735,0.5584 0.5907,0.9827 0.2198,0.4159 0.4292,0.8675 0.6462,1.3604 0.208,0.4898 0.3851,0.9517 0.5379,1.3965 0.5781,-0.0747 1.2028,-0.1751 1.9008,-0.2927 0.6915,-0.1298 1.3834,-0.259 2.0659,-0.3911 0.6916,-0.1294 1.3126,-0.2506 1.8806,-0.3577 0.5565,-0.1005 0.9955,-0.1671 1.3082,-0.2025 l -4.4492,15.2091 c -0.4391,1.5012 -0.9025,2.9856 -1.3785,4.4469 -0.4739,1.4519 -0.9379,2.8383 -1.3874,4.1413 -0.4495,1.303 -0.8711,2.4775 -1.247,3.529 -0.3734,1.0422 -0.6847,1.9073 -0.9349,2.595 0.7195,0.1423 1.4454,0.296 2.1828,0.4435 0.735,0.1565 1.4532,0.3375 2.1568,0.5334 0.6984,0.2141 1.3919,0.4462 2.0771,0.7052 0.6828,0.2681 1.368,0.5271 2.0508,0.7949 0.4736,-1.8518 0.8972,-3.5333 1.2949,-5.027 0.3891,-1.4962 0.7608,-2.9001 1.1239,-4.2086 0.3517,-1.3023 0.7126,-2.6022 1.0795,-3.8902 0.3644,-1.2791 0.7614,-2.6366 1.1794,-4.0656 l 0.9625,-3.2901 c 0.3997,-1.3662 0.8218,-2.7746 1.2693,-4.2054 0.4451,-1.4213 0.8992,-2.8399 1.3662,-4.2352 0.4603,-1.4073 0.9087,-2.7399 1.3502,-4.0159 0.4531,-1.2822 0.8724,-2.4478 1.2714,-3.5116 z" />
      <path
         id="path4527"
         style="fill:#3365ab;fill-rule:evenodd;stroke-width:0.94488198"
         d="m 274.2174,664.9879 c -0.2501,2.0644 -0.6791,3.7211 -1.289,4.9888 -0.6097,1.2678 -1.3177,2.1659 -2.1264,2.713 -0.7992,0.5477 -1.6269,0.772 -2.4814,0.6631 -0.977,-0.1138 -1.7855,-0.5383 -2.4341,-1.2835 -0.6499,-0.7354 -1.1024,-1.7877 -1.3509,-3.1368 -0.2467,-1.358 -0.2617,-3.01 -0.0435,-4.9649 0.2554,-2.1105 0.6585,-3.7888 1.2082,-5.0262 0.5508,-1.2465 1.2082,-2.1126 1.9833,-2.6163 0.7834,-0.4932 1.6358,-0.6865 2.5743,-0.5675 0.9778,0.1044 1.798,0.5112 2.4708,1.2118 0.6727,0.701 1.1483,1.7181 1.4183,3.0414 0.2689,1.3325 0.293,2.9855 0.0704,4.9771 z m -9.1681,-11.1387 c -1.0415,0.1146 -2.044,0.3841 -3.0267,0.8068 -0.9731,0.4242 -1.8631,1.0182 -2.6756,1.7628 -0.8138,0.754 -1.4882,1.6842 -2.0333,2.7993 -0.5436,1.1054 -0.9124,2.4111 -1.0953,3.8982 -0.2043,1.834 -0.0651,3.472 0.4078,4.913 0.4815,1.4516 1.2508,2.7014 2.3063,3.7575 1.0472,1.0462 2.3343,1.894 3.8522,2.5426 1.5286,0.6401 3.2224,1.0732 5.1014,1.2921 1.9255,0.2245 3.7227,0.1793 5.3904,-0.1352 1.6692,-0.3245 3.1604,-0.905 4.4674,-1.7612 1.3057,-0.8473 2.3791,-1.9672 3.2109,-3.3597 0.8225,-1.3939 1.3545,-3.0481 1.5884,-4.9725 0.1552,-1.4154 0.0693,-2.6984 -0.2587,-3.8489 -0.3277,-1.1508 -0.8138,-2.16 -1.4659,-3.0376 -0.6623,-0.869 -1.3989,-1.5869 -2.2287,-2.155 -0.8388,-0.5691 -1.6869,-0.9793 -2.5449,-1.2204 l 0.0455,-0.3907 c 1.2005,-0.1056 2.3162,-0.4564 3.3569,-1.0516 1.0405,-0.5956 1.9108,-1.4274 2.6113,-2.5057 0.7102,-1.0771 1.1573,-2.4016 1.3577,-3.9624 0.1377,-1.181 0.0249,-2.3165 -0.3386,-3.4054 -0.3723,-1.0899 -1.0014,-2.0874 -1.8951,-2.9931 -0.8939,-0.9055 -2.0597,-1.6636 -3.5045,-2.294 -1.4454,-0.6214 -3.1871,-1.0507 -5.2048,-1.2949 -1.7114,-0.1997 -3.3075,-0.1783 -4.795,0.0443 -1.4793,0.233 -2.794,0.6741 -3.9446,1.3226 -1.16,0.647 -2.089,1.5008 -2.8063,2.5579 -0.7181,1.0666 -1.1666,2.3251 -1.3475,3.7937 -0.1363,1.3327 0.0204,2.5769 0.4693,3.7416 0.4593,1.1568 1.1252,2.1583 2.0091,2.9875 0.8839,0.8292 1.8889,1.4269 3.0363,1.7777 z m 10.8229,-6.942 c -0.1829,1.4874 -0.5173,2.7403 -1.0228,3.756 -0.5038,1.0071 -1.119,1.7558 -1.8632,2.2349 -0.7441,0.4788 -1.5583,0.6669 -2.4614,0.5709 -0.735,-0.0856 -1.4034,-0.4181 -1.9983,-0.978 -0.5939,-0.5686 -1.0292,-1.3645 -1.3255,-2.3794 -0.2966,-1.0153 -0.3707,-2.2403 -0.213,-3.6741 0.1719,-1.5544 0.484,-2.857 0.9198,-3.9283 0.4361,-1.0712 1.0279,-1.8602 1.7671,-2.3778 0.7472,-0.5068 1.667,-0.7108 2.7551,-0.584 0.9668,0.1222 1.7331,0.5037 2.2892,1.1531 0.5558,0.6493 0.9277,1.504 1.1156,2.5629 0.1876,1.0588 0.1967,2.2763 0.0374,3.6438 z" />
      <path
         id="path4529"
         style="fill:#3365ab;fill-rule:evenodd;stroke-width:0.94488198"
         d="m 320.1489,665.257 c 0.1335,2.0751 0.0164,3.7825 -0.3501,5.1407 -0.3663,1.3582 -0.8972,2.3712 -1.5915,3.0577 -0.6849,0.6852 -1.4573,1.0578 -2.3173,1.1078 -0.9813,0.0677 -1.854,-0.201 -2.6285,-0.8142 -0.774,-0.6035 -1.4122,-1.5546 -1.9044,-2.835 -0.4922,-1.2896 -0.8105,-2.9107 -0.9554,-4.8724 -0.1369,-2.1214 -0.0491,-3.8453 0.2638,-5.1626 0.3123,-1.3265 0.7992,-2.2987 1.4686,-2.9363 0.6794,-0.6288 1.4817,-0.9755 2.4261,-1.031 0.9804,-0.0771 1.8614,0.172 2.6515,0.737 0.7901,0.5654 1.4445,1.4778 1.9531,2.729 0.5093,1.2603 0.8368,2.8807 0.9841,4.8793 z m -11.0593,-9.2638 c -1.0027,0.304 -1.9385,0.7532 -2.8268,1.3494 -0.8786,0.5958 -1.6443,1.3432 -2.306,2.2245 -0.6614,0.8908 -1.1533,1.9291 -1.4841,3.1254 -0.3312,1.1865 -0.4538,2.5377 -0.3602,4.0331 0.1363,1.8403 0.5742,3.4248 1.3039,4.7543 0.7401,1.3384 1.726,2.4255 2.9577,3.2696 1.2216,0.8359 2.6426,1.4326 4.2539,1.7912 1.6201,0.3483 3.3647,0.4626 5.252,0.3324 1.9339,-0.1332 3.6922,-0.508 5.2736,-1.1237 1.5811,-0.6257 2.9403,-1.4704 4.0676,-2.5523 1.1277,-1.0728 1.977,-2.3709 2.5387,-3.8926 0.5522,-1.5214 0.7712,-3.2452 0.6474,-5.1797 -0.1077,-1.4198 -0.4279,-2.6652 -0.9618,-3.7359 -0.5337,-1.0709 -1.1969,-1.9735 -1.9992,-2.7164 -0.8109,-0.7324 -1.6668,-1.3027 -2.5868,-1.7086 -0.9292,-0.4052 -1.8382,-0.6525 -2.7259,-0.7318 l -0.0271,-0.3925 c 1.1606,-0.3244 2.1928,-0.8742 3.1064,-1.6506 0.9133,-0.7767 1.6159,-1.7543 2.1062,-2.943 0.5001,-1.1893 0.6962,-2.5734 0.6062,-4.1444 -0.0817,-1.1863 -0.4013,-2.2816 -0.9587,-3.2852 -0.5663,-1.0029 -1.368,-1.8677 -2.413,-2.5938 -1.045,-0.7258 -2.3303,-1.2567 -3.8663,-1.6107 -1.5351,-0.3452 -3.326,-0.447 -5.3542,-0.3162 -1.7189,0.1183 -3.2839,0.4327 -4.7052,0.9249 -1.4113,0.501 -2.6225,1.1761 -3.6343,2.0251 -1.0212,0.8492 -1.7775,1.8592 -2.2883,3.0302 -0.5098,1.1804 -0.7193,2.4999 -0.6272,3.9767 0.111,1.335 0.4937,2.5292 1.149,3.5916 0.6641,1.0527 1.5027,1.9147 2.524,2.5673 1.0212,0.6526 2.119,1.0554 3.3113,1.1893 z m 9.3626,-8.8131 c 0.0936,1.4958 -0.005,2.7887 -0.315,3.8801 -0.3102,1.0825 -0.7773,1.9315 -1.4208,2.5392 -0.6434,0.6075 -1.4091,0.942 -2.3145,1.0137 -0.7382,0.0509 -1.4564,-0.1531 -2.144,-0.5941 -0.6883,-0.4498 -1.2625,-1.152 -1.7403,-2.0952 -0.4781,-0.9435 -0.7761,-2.134 -0.8846,-3.5724 -0.1168,-1.5595 -0.0494,-2.8972 0.182,-4.0304 0.2318,-1.1332 0.6684,-2.0175 1.3,-2.6621 0.6413,-0.6355 1.5079,-1.0051 2.6008,-1.0804 0.9728,-0.0577 1.7961,0.1765 2.4621,0.7126 0.6657,0.5361 1.1884,1.3079 1.5677,2.3142 0.3791,1.0063 0.6117,2.2014 0.7066,3.5748 z" />
      <path
         id="path4531"
         style="fill:#3365ab;fill-rule:evenodd;stroke-width:0.94488198"
         d="m 349.1502,672.0587 c 1.9486,-0.5604 3.8998,-1.1116 5.8507,-1.6628 1.9489,-0.5601 3.9069,-1.0843 5.8694,-1.59 2.049,-0.5081 4.0936,-0.9957 6.138,-1.4449 2.0425,-0.4581 4.0939,-0.9188 6.1567,-1.3725 -0.1878,-0.5913 -0.3762,-1.1822 -0.5828,-1.7688 -0.2059,-0.5865 -0.3852,-1.18 -0.546,-1.778 -0.1424,-0.6029 -0.2647,-1.2008 -0.3575,-1.7968 -0.0922,-0.5962 -0.2053,-1.1966 -0.3211,-1.8062 -2.5191,0.8305 -5.0634,1.599 -7.6355,2.2978 -2.5718,0.6987 -5.139,1.3765 -7.6998,2.0431 l -0.0824,-0.0953 c 1.9843,-2.7955 3.648,-5.2869 5.001,-7.4771 1.3618,-2.1929 2.4557,-4.1436 3.2708,-5.8592 0.8262,-1.7092 1.4274,-3.2353 1.8037,-4.5789 0.3792,-1.3345 0.5737,-2.5549 0.5985,-3.6447 0.0155,-1.0878 -0.0965,-2.1047 -0.347,-3.0578 -0.2051,-0.8483 -0.544,-1.6914 -1.01,-2.5025 -0.4686,-0.8206 -1.0943,-1.5722 -1.8719,-2.2369 -0.7891,-0.6715 -1.7464,-1.2038 -2.8829,-1.6038 -1.1459,-0.3974 -2.4844,-0.6011 -4.0433,-0.6038 -1.5519,-0.0142 -3.3378,0.2339 -5.3505,0.7332 -2.1261,0.5468 -3.8741,1.3274 -5.2483,2.3232 -1.383,0.998 -2.4272,2.1522 -3.1267,3.4418 -0.709,1.2922 -1.1107,2.6519 -1.2118,4.0904 0.8524,0.3846 1.7068,0.7782 2.5635,1.1813 0.8566,0.4028 1.7249,0.8512 2.6045,1.3452 l 0.5043,-0.3019 c -0.1563,-0.5799 -0.2808,-1.2258 -0.3576,-1.9517 -0.0771,-0.7259 -0.0837,-1.4788 -0.024,-2.2393 0.0661,-0.7715 0.2211,-1.4977 0.47,-2.1993 0.2505,-0.6925 0.6312,-1.2918 1.1305,-1.8052 0.4995,-0.5134 1.154,-0.8722 1.9521,-1.0838 0.698,-0.1863 1.4149,-0.2221 2.1386,-0.115 0.7242,0.1076 1.4166,0.3972 2.1009,0.8823 0.6723,0.4784 1.2955,1.1822 1.8533,2.1251 0.5667,0.9407 1.0362,2.1476 1.4202,3.6283 0.4618,1.7898 0.6307,3.6439 0.5195,5.5785 -0.1223,1.9279 -0.5447,4.0091 -1.29,6.2296 -0.7363,2.2185 -1.8195,4.6699 -3.2373,7.3314 -1.4155,2.6709 -3.1943,5.6267 -5.3408,8.8889 z" />
    </g>
  </g>
</svg>
