<?xml version="1.0" encoding="utf-8"?>
<!-- Generator: Adobe Illustrator 21.0.2, SVG Export Plug-In . SVG Version: 6.00 Build 0)  -->
<svg version="1.1"
	 id="svg2" inkscape:output_extension="org.inkscape.output.svg.inkscape" inkscape:version="0.48.1 " sodipodi:docname="S.S.C. Napoli logo.svg" sodipodi:version="0.32" xmlns:cc="http://creativecommons.org/ns#" xmlns:dc="http://purl.org/dc/elements/1.1/" xmlns:inkscape="http://www.inkscape.org/namespaces/inkscape" xmlns:rdf="http://www.w3.org/1999/02/22-rdf-syntax-ns#" xmlns:sodipodi="http://sodipodi.sourceforge.net/DTD/sodipodi-0.dtd" xmlns:svg="http://www.w3.org/2000/svg"
	 xmlns="http://www.w3.org/2000/svg" xmlns:xlink="http://www.w3.org/1999/xlink" x="0px" y="0px" viewBox="0 0 500 500"
	 style="enable-background:new 0 0 500 500;" xml:space="preserve">
<style type="text/css">
	.st0{fill:#2651A5;}
	.st1{clip-path:url(#SVGID_2_);fill:#7EA7D1;}
	.st2{clip-path:url(#SVGID_2_);fill:#7DA6D0;}
	.st3{clip-path:url(#SVGID_2_);fill:#7CA5D0;}
	.st4{clip-path:url(#SVGID_2_);fill:#7BA4CF;}
	.st5{clip-path:url(#SVGID_2_);fill:#7AA3CF;}
	.st6{clip-path:url(#SVGID_2_);fill:#79A2CE;}
	.st7{clip-path:url(#SVGID_2_);fill:#78A1CE;}
	.st8{clip-path:url(#SVGID_2_);fill:#77A0CD;}
	.st9{clip-path:url(#SVGID_2_);fill:#769FCD;}
	.st10{clip-path:url(#SVGID_2_);fill:#759ECC;}
	.st11{clip-path:url(#SVGID_2_);fill:#749DCC;}
	.st12{clip-path:url(#SVGID_2_);fill:#739CCB;}
	.st13{clip-path:url(#SVGID_2_);fill:#729BCB;}
	.st14{clip-path:url(#SVGID_2_);fill:#719ACA;}
	.st15{clip-path:url(#SVGID_2_);fill:#7099CA;}
	.st16{clip-path:url(#SVGID_2_);fill:#6F98C9;}
	.st17{clip-path:url(#SVGID_2_);fill:#6E97C9;}
	.st18{clip-path:url(#SVGID_2_);fill:#6D96C8;}
	.st19{clip-path:url(#SVGID_2_);fill:#6C95C8;}
	.st20{clip-path:url(#SVGID_2_);fill:#6B94C7;}
	.st21{clip-path:url(#SVGID_2_);fill:#6A93C7;}
	.st22{clip-path:url(#SVGID_2_);fill:#6992C6;}
	.st23{clip-path:url(#SVGID_2_);fill:#6891C6;}
	.st24{clip-path:url(#SVGID_2_);fill:#6790C5;}
	.st25{clip-path:url(#SVGID_2_);fill:#668FC5;}
	.st26{clip-path:url(#SVGID_2_);fill:#658EC4;}
	.st27{clip-path:url(#SVGID_2_);fill:#648DC4;}
	.st28{clip-path:url(#SVGID_2_);fill:#638CC3;}
	.st29{clip-path:url(#SVGID_2_);fill:#628BC3;}
	.st30{clip-path:url(#SVGID_2_);fill:#618AC2;}
	.st31{clip-path:url(#SVGID_2_);fill:#6089C2;}
	.st32{clip-path:url(#SVGID_2_);fill:#5F88C1;}
	.st33{clip-path:url(#SVGID_2_);fill:#5E87C1;}
	.st34{clip-path:url(#SVGID_2_);fill:#5D86C0;}
	.st35{clip-path:url(#SVGID_2_);fill:#5C85C0;}
	.st36{clip-path:url(#SVGID_2_);fill:#5B84BF;}
	.st37{clip-path:url(#SVGID_2_);fill:#5A83BF;}
	.st38{clip-path:url(#SVGID_2_);fill:#5982BE;}
	.st39{clip-path:url(#SVGID_2_);fill:#5881BE;}
	.st40{clip-path:url(#SVGID_2_);fill:#5780BD;}
	.st41{clip-path:url(#SVGID_2_);fill:#567FBD;}
	.st42{clip-path:url(#SVGID_2_);fill:#557EBC;}
	.st43{clip-path:url(#SVGID_2_);fill:#547DBC;}
	.st44{clip-path:url(#SVGID_2_);fill:#537CBB;}
	.st45{clip-path:url(#SVGID_2_);fill:#517CBB;}
	.st46{clip-path:url(#SVGID_2_);fill:#507BBA;}
	.st47{clip-path:url(#SVGID_2_);fill:#4F7ABA;}
	.st48{clip-path:url(#SVGID_2_);fill:#4E79B9;}
	.st49{clip-path:url(#SVGID_2_);fill:#4D78B9;}
	.st50{clip-path:url(#SVGID_2_);fill:#4C77B8;}
	.st51{clip-path:url(#SVGID_2_);fill:#4B76B8;}
	.st52{clip-path:url(#SVGID_2_);fill:#4A75B7;}
	.st53{clip-path:url(#SVGID_2_);fill:#4974B7;}
	.st54{clip-path:url(#SVGID_2_);fill:#4873B6;}
	.st55{clip-path:url(#SVGID_2_);fill:#4772B6;}
	.st56{clip-path:url(#SVGID_2_);fill:#4671B5;}
	.st57{clip-path:url(#SVGID_2_);fill:#4570B5;}
	.st58{clip-path:url(#SVGID_2_);fill:#446FB4;}
	.st59{clip-path:url(#SVGID_2_);fill:#436EB4;}
	.st60{clip-path:url(#SVGID_2_);fill:#426DB3;}
	.st61{clip-path:url(#SVGID_2_);fill:#416CB3;}
	.st62{clip-path:url(#SVGID_2_);fill:#406BB2;}
	.st63{clip-path:url(#SVGID_2_);fill:#3F6AB2;}
	.st64{clip-path:url(#SVGID_2_);fill:#3E69B1;}
	.st65{clip-path:url(#SVGID_2_);fill:#3D68B1;}
	.st66{clip-path:url(#SVGID_2_);fill:#3C67B0;}
	.st67{clip-path:url(#SVGID_2_);fill:#3B66B0;}
	.st68{clip-path:url(#SVGID_2_);fill:#3A65AF;}
	.st69{clip-path:url(#SVGID_2_);fill:#3964AF;}
	.st70{clip-path:url(#SVGID_2_);fill:#3863AE;}
	.st71{clip-path:url(#SVGID_2_);fill:#3762AE;}
	.st72{clip-path:url(#SVGID_2_);fill:#3661AD;}
	.st73{clip-path:url(#SVGID_2_);fill:#3560AD;}
	.st74{clip-path:url(#SVGID_2_);fill:#345FAC;}
	.st75{clip-path:url(#SVGID_2_);fill:#335EAC;}
	.st76{clip-path:url(#SVGID_2_);fill:#325DAB;}
	.st77{clip-path:url(#SVGID_2_);fill:#315CAB;}
	.st78{clip-path:url(#SVGID_2_);fill:#305BAA;}
	.st79{clip-path:url(#SVGID_2_);fill:#2F5AAA;}
	.st80{clip-path:url(#SVGID_2_);fill:#2E59A9;}
	.st81{clip-path:url(#SVGID_2_);fill:#2D58A9;}
	.st82{clip-path:url(#SVGID_2_);fill:#2C57A8;}
	.st83{clip-path:url(#SVGID_2_);fill:#2B56A8;}
	.st84{clip-path:url(#SVGID_2_);fill:#2A55A7;}
	.st85{clip-path:url(#SVGID_2_);fill:#2954A7;}
	.st86{clip-path:url(#SVGID_2_);fill:#2853A6;}
	.st87{clip-path:url(#SVGID_2_);fill:#2752A6;}
	.st88{clip-path:url(#SVGID_2_);fill:#2651A5;}
	.st89{fill:#FFFFFF;}
	.st90{fill:#4393D7;}
	.st91{clip-path:url(#SVGID_4_);fill:#4393D7;}
	.st92{clip-path:url(#SVGID_4_);fill:#4494D7;}
	.st93{clip-path:url(#SVGID_4_);fill:#4595D8;}
	.st94{clip-path:url(#SVGID_4_);fill:#4696D8;}
	.st95{clip-path:url(#SVGID_4_);fill:#4797D9;}
	.st96{clip-path:url(#SVGID_4_);fill:#4898D9;}
	.st97{clip-path:url(#SVGID_4_);fill:#4999DA;}
	.st98{clip-path:url(#SVGID_4_);fill:#4A9ADA;}
	.st99{clip-path:url(#SVGID_4_);fill:#4B9BDB;}
	.st100{clip-path:url(#SVGID_4_);fill:#4C9CDB;}
	.st101{clip-path:url(#SVGID_4_);fill:#4D9DDB;}
	.st102{clip-path:url(#SVGID_4_);fill:#4D9EDC;}
	.st103{clip-path:url(#SVGID_4_);fill:#4E9FDC;}
	.st104{clip-path:url(#SVGID_4_);fill:#4FA0DD;}
	.st105{clip-path:url(#SVGID_4_);fill:#50A1DD;}
	.st106{clip-path:url(#SVGID_4_);fill:#51A2DE;}
	.st107{clip-path:url(#SVGID_4_);fill:#52A3DE;}
	.st108{clip-path:url(#SVGID_4_);fill:#53A4DF;}
	.st109{clip-path:url(#SVGID_4_);fill:#54A5DF;}
	.st110{clip-path:url(#SVGID_4_);fill:#55A6DF;}
	.st111{clip-path:url(#SVGID_4_);fill:#56A7E0;}
	.st112{clip-path:url(#SVGID_4_);fill:#57A8E0;}
	.st113{clip-path:url(#SVGID_4_);fill:#58AAE1;}
	.st114{clip-path:url(#SVGID_4_);fill:#59ABE1;}
	.st115{clip-path:url(#SVGID_4_);fill:#5AACE2;}
	.st116{clip-path:url(#SVGID_4_);fill:#5BADE2;}
	.st117{clip-path:url(#SVGID_4_);fill:#5CAEE2;}
	.st118{clip-path:url(#SVGID_4_);fill:#5DAFE3;}
	.st119{clip-path:url(#SVGID_4_);fill:#5EB0E3;}
	.st120{clip-path:url(#SVGID_4_);fill:#5FB1E4;}
	.st121{clip-path:url(#SVGID_4_);fill:#60B2E4;}
	.st122{clip-path:url(#SVGID_4_);fill:#61B3E5;}
	.st123{clip-path:url(#SVGID_4_);fill:#62B4E5;}
	.st124{clip-path:url(#SVGID_4_);fill:#62B5E6;}
	.st125{clip-path:url(#SVGID_4_);fill:#63B6E6;}
	.st126{clip-path:url(#SVGID_4_);fill:#64B7E6;}
	.st127{clip-path:url(#SVGID_4_);fill:#65B8E7;}
	.st128{clip-path:url(#SVGID_4_);fill:#66B9E7;}
	.st129{clip-path:url(#SVGID_4_);fill:#67BAE8;}
	.st130{clip-path:url(#SVGID_4_);fill:#68BBE8;}
	.st131{clip-path:url(#SVGID_4_);fill:#69BCE9;}
	.st132{clip-path:url(#SVGID_4_);fill:#6ABDE9;}
	.st133{clip-path:url(#SVGID_4_);fill:#6BBEEA;}
	.st134{clip-path:url(#SVGID_4_);fill:#6CBFEA;}
	.st135{clip-path:url(#SVGID_6_);fill:#CAEDF8;}
	.st136{clip-path:url(#SVGID_6_);fill:#CBEDF8;}
	.st137{clip-path:url(#SVGID_6_);fill:#CCEEF8;}
	.st138{clip-path:url(#SVGID_6_);fill:#CDEEF8;}
	.st139{clip-path:url(#SVGID_6_);fill:#CEEEF9;}
	.st140{clip-path:url(#SVGID_6_);fill:#CFEFF9;}
	.st141{clip-path:url(#SVGID_6_);fill:#D0EFF9;}
	.st142{clip-path:url(#SVGID_6_);fill:#D1EFF9;}
	.st143{clip-path:url(#SVGID_6_);fill:#D2F0F9;}
	.st144{clip-path:url(#SVGID_6_);fill:#D3F0F9;}
	.st145{clip-path:url(#SVGID_6_);fill:#D4F1F9;}
	.st146{clip-path:url(#SVGID_6_);fill:#D5F1FA;}
	.st147{clip-path:url(#SVGID_6_);fill:#D6F1FA;}
	.st148{clip-path:url(#SVGID_6_);fill:#D7F2FA;}
	.st149{clip-path:url(#SVGID_6_);fill:#D8F2FA;}
	.st150{clip-path:url(#SVGID_6_);fill:#D9F2FA;}
	.st151{clip-path:url(#SVGID_6_);fill:#DAF3FA;}
	.st152{clip-path:url(#SVGID_6_);fill:#DBF3FA;}
	.st153{clip-path:url(#SVGID_6_);fill:#DCF3FA;}
	.st154{clip-path:url(#SVGID_6_);fill:#DDF4FB;}
	.st155{clip-path:url(#SVGID_6_);fill:#DEF4FB;}
	.st156{clip-path:url(#SVGID_6_);fill:#DFF4FB;}
	.st157{clip-path:url(#SVGID_6_);fill:#E0F5FB;}
	.st158{clip-path:url(#SVGID_6_);fill:#E1F5FB;}
	.st159{clip-path:url(#SVGID_6_);fill:#E2F5FB;}
	.st160{clip-path:url(#SVGID_6_);fill:#E3F6FB;}
	.st161{clip-path:url(#SVGID_6_);fill:#E5F6FC;}
	.st162{clip-path:url(#SVGID_6_);fill:#E6F7FC;}
	.st163{clip-path:url(#SVGID_6_);fill:#E7F7FC;}
	.st164{clip-path:url(#SVGID_6_);fill:#E8F7FC;}
	.st165{clip-path:url(#SVGID_6_);fill:#E9F8FC;}
	.st166{clip-path:url(#SVGID_6_);fill:#EAF8FC;}
	.st167{clip-path:url(#SVGID_6_);fill:#EBF8FC;}
	.st168{clip-path:url(#SVGID_6_);fill:#ECF9FD;}
	.st169{clip-path:url(#SVGID_6_);fill:#EDF9FD;}
	.st170{clip-path:url(#SVGID_6_);fill:#EEF9FD;}
	.st171{clip-path:url(#SVGID_6_);fill:#EFFAFD;}
	.st172{clip-path:url(#SVGID_6_);fill:#F0FAFD;}
	.st173{clip-path:url(#SVGID_6_);fill:#F1FAFD;}
	.st174{clip-path:url(#SVGID_6_);fill:#F2FBFD;}
	.st175{clip-path:url(#SVGID_6_);fill:#F3FBFD;}
	.st176{clip-path:url(#SVGID_6_);fill:#F4FBFE;}
	.st177{clip-path:url(#SVGID_6_);fill:#F5FCFE;}
	.st178{clip-path:url(#SVGID_6_);fill:#F6FCFE;}
	.st179{clip-path:url(#SVGID_6_);fill:#F7FDFE;}
	.st180{clip-path:url(#SVGID_6_);fill:#F8FDFE;}
	.st181{clip-path:url(#SVGID_6_);fill:#F9FDFE;}
	.st182{clip-path:url(#SVGID_6_);fill:#FAFEFE;}
	.st183{clip-path:url(#SVGID_6_);fill:#FBFEFF;}
	.st184{clip-path:url(#SVGID_6_);fill:#FCFEFF;}
	.st185{clip-path:url(#SVGID_6_);fill:#FDFFFF;}
	.st186{clip-path:url(#SVGID_6_);fill:#FEFFFF;}
</style>
<defs>
	
	
		<inkscape:perspective  id="perspective9" inkscape:persp3d-origin="372.04724 : 350.78739 : 1" inkscape:vp_x="0 : 526.18109 : 1" inkscape:vp_y="0 : 1000 : 0" inkscape:vp_z="744.09448 : 526.18109 : 1" sodipodi:type="inkscape:persp3d">
		</inkscape:perspective>
</defs>
<sodipodi:namedview  bordercolor="#666666" borderopacity="1.0" gridtolerance="10.0" guidetolerance="10.0" id="base" inkscape:current-layer="g11" inkscape:cx="250" inkscape:cy="250" inkscape:pageopacity="0.0" inkscape:pageshadow="2" inkscape:window-height="750" inkscape:window-maximized="0" inkscape:window-width="1280" inkscape:window-x="-8" inkscape:window-y="-8" inkscape:zoom="1.062" objecttolerance="10.0" pagecolor="#ffffff" showgrid="false">
	</sodipodi:namedview>
<g id="g11" transform="matrix(1.25,0,0,-1.25,63.301372,794.06091)" inkscape:groupmode="layer" inkscape:label="SSC_Napoli">
	<g id="g13" transform="matrix(1.0961634,0,0,1.0961604,-176.90098,-26.173963)">
		<g>
			<g id="g15">
				<g id="path21">
					<path inkscape:connector-curvature="0" class="st0" d="M478.3,420.9c0-99.8-80.9-180.6-180.6-180.6
						c-99.8,0-180.6,80.9-180.6,180.6s80.9,180.6,180.6,180.6C397.4,601.6,478.3,520.7,478.3,420.9"/>
				</g>
				<g id="g23">
					<g id="g25">
						<g id="g31">
							<g id="g33">
								<g id="path45">
									<g>
										<defs>
											<path id="SVGID_1_" inkscape:connector-curvature="0" d="M175.3,543.2c-32.7-32.7-50.7-76.1-50.7-122.3
												c0-46.2,18-89.6,50.7-122.3C208,266,251.4,248,297.6,248s89.6,18,122.3,50.7s50.7,76.1,50.7,122.3
												c0,46.2-18,89.6-50.7,122.3s-76.1,50.7-122.3,50.7C251.4,593.9,208,575.9,175.3,543.2"/>
										</defs>
										<clipPath id="SVGID_2_">
											<use xlink:href="#SVGID_1_"  style="overflow:visible;"/>
										</clipPath>
										<polygon class="st1" points="226,593.9 124.7,492.6 124.7,593.9 										"/>
										<polygon class="st1" points="227.3,593.9 124.7,491.2 124.7,492.6 226,593.9 										"/>
										<polygon class="st2" points="228.7,593.9 124.7,489.9 124.7,491.2 227.3,593.9 										"/>
										<polygon class="st3" points="230,593.9 124.7,488.6 124.7,489.9 228.7,593.9 										"/>
										<polygon class="st4" points="231.4,593.9 124.7,487.2 124.7,488.6 230,593.9 										"/>
										<polygon class="st5" points="232.7,593.9 124.7,485.9 124.7,487.2 231.4,593.9 										"/>
										<polygon class="st6" points="234.1,593.9 124.7,484.5 124.7,485.9 232.7,593.9 										"/>
										<polygon class="st7" points="235.4,593.9 124.7,483.2 124.7,484.5 234.1,593.9 										"/>
										<polygon class="st8" points="236.7,593.9 124.7,481.8 124.7,483.2 235.4,593.9 										"/>
										<polygon class="st9" points="238.1,593.9 124.7,480.5 124.7,481.8 236.7,593.9 										"/>
										<polygon class="st10" points="239.4,593.9 124.7,479.2 124.7,480.5 238.1,593.9 										"/>
										<polygon class="st11" points="240.8,593.9 124.7,477.8 124.7,479.2 239.4,593.9 										"/>
										<polygon class="st12" points="242.1,593.9 124.7,476.5 124.7,477.8 240.8,593.9 										"/>
										<polygon class="st13" points="243.5,593.9 124.7,475.1 124.7,476.5 242.1,593.9 										"/>
										<polygon class="st14" points="244.8,593.9 124.7,473.8 124.7,475.1 243.5,593.9 										"/>
										<polygon class="st15" points="246.1,593.9 124.7,472.4 124.7,473.8 244.8,593.9 										"/>
										<polygon class="st16" points="247.5,593.9 124.7,471.1 124.7,472.4 246.1,593.9 										"/>
										<polygon class="st17" points="248.8,593.9 124.7,469.8 124.7,471.1 247.5,593.9 										"/>
										<polygon class="st18" points="250.2,593.9 124.7,468.4 124.7,469.8 248.8,593.9 										"/>
										<polygon class="st19" points="251.5,593.9 124.7,467.1 124.7,468.4 250.2,593.9 										"/>
										<polygon class="st20" points="252.9,593.9 124.7,465.7 124.7,467.1 251.5,593.9 										"/>
										<polygon class="st21" points="254.2,593.9 124.7,464.4 124.7,465.7 252.9,593.9 										"/>
										<polygon class="st22" points="255.5,593.9 124.7,463 124.7,464.4 254.2,593.9 										"/>
										<polygon class="st23" points="256.9,593.9 124.7,461.7 124.7,463 255.5,593.9 										"/>
										<polygon class="st24" points="258.2,593.9 124.7,460.4 124.7,461.7 256.9,593.9 										"/>
										<polygon class="st25" points="259.6,593.9 124.7,459 124.7,460.4 258.2,593.9 										"/>
										<polygon class="st26" points="260.9,593.9 124.7,457.7 124.7,459 259.6,593.9 										"/>
										<polygon class="st27" points="262.3,593.9 124.7,456.3 124.7,457.7 260.9,593.9 										"/>
										<polygon class="st28" points="263.6,593.9 124.7,455 124.7,456.3 262.3,593.9 										"/>
										<polygon class="st29" points="264.9,593.9 124.7,453.6 124.7,455 263.6,593.9 										"/>
										<polygon class="st30" points="266.3,593.9 124.7,452.3 124.7,453.6 264.9,593.9 										"/>
										<polygon class="st31" points="267.6,593.9 124.7,451 124.7,452.3 266.3,593.9 										"/>
										<polygon class="st32" points="269,593.9 124.7,449.6 124.7,451 267.6,593.9 										"/>
										<polygon class="st33" points="270.3,593.9 124.7,448.3 124.7,449.6 269,593.9 										"/>
										<polygon class="st34" points="271.7,593.9 124.7,446.9 124.7,448.3 270.3,593.9 										"/>
										<polygon class="st35" points="273,593.9 124.7,445.6 124.7,446.9 271.7,593.9 										"/>
										<polygon class="st36" points="274.3,593.9 124.7,444.2 124.7,445.6 273,593.9 										"/>
										<polygon class="st37" points="275.7,593.9 124.7,442.9 124.7,444.2 274.3,593.9 										"/>
										<polygon class="st38" points="277,593.9 124.7,441.6 124.7,442.9 275.7,593.9 										"/>
										<polygon class="st39" points="278.4,593.9 124.7,440.2 124.7,441.6 277,593.9 										"/>
										<polygon class="st40" points="279.7,593.9 124.7,438.9 124.7,440.2 278.4,593.9 										"/>
										<polygon class="st41" points="281.1,593.9 124.7,437.5 124.7,438.9 279.7,593.9 										"/>
										<polygon class="st42" points="282.4,593.9 124.7,436.2 124.7,437.5 281.1,593.9 										"/>
										<polygon class="st43" points="283.7,593.9 124.7,434.8 124.7,436.2 282.4,593.9 										"/>
										<polygon class="st44" points="285.1,593.9 124.7,433.5 124.7,434.8 283.7,593.9 										"/>
										<polygon class="st45" points="286.4,593.9 124.7,432.2 124.7,433.5 285.1,593.9 										"/>
										<polygon class="st46" points="287.8,593.9 124.7,430.8 124.7,432.2 286.4,593.9 										"/>
										<polygon class="st47" points="289.1,593.9 124.7,429.5 124.7,430.8 287.8,593.9 										"/>
										<polygon class="st48" points="290.5,593.9 124.7,428.1 124.7,429.5 289.1,593.9 										"/>
										<polygon class="st49" points="291.8,593.9 124.7,426.8 124.7,428.1 290.5,593.9 										"/>
										<polygon class="st50" points="293.1,593.9 124.7,425.4 124.7,426.8 291.8,593.9 										"/>
										<polygon class="st51" points="294.5,593.9 124.7,424.1 124.7,425.4 293.1,593.9 										"/>
										<polygon class="st52" points="295.8,593.9 124.7,422.8 124.7,424.1 294.5,593.9 										"/>
										<polygon class="st53" points="297.2,593.9 124.7,421.4 124.7,422.8 295.8,593.9 										"/>
										<polygon class="st54" points="298.5,593.9 124.7,420.1 124.7,421.4 297.2,593.9 										"/>
										<polygon class="st55" points="299.9,593.9 124.7,418.7 124.7,420.1 298.5,593.9 										"/>
										<polygon class="st56" points="301.2,593.9 124.7,417.4 124.7,418.7 299.9,593.9 										"/>
										<polygon class="st57" points="302.5,593.9 124.7,416 124.7,417.4 301.2,593.9 										"/>
										<polygon class="st58" points="303.9,593.9 124.7,414.7 124.7,416 302.5,593.9 										"/>
										<polygon class="st59" points="305.2,593.9 124.7,413.4 124.7,414.7 303.9,593.9 										"/>
										<polygon class="st60" points="306.6,593.9 124.7,412 124.7,413.4 305.2,593.9 										"/>
										<polygon class="st61" points="307.9,593.9 124.7,410.7 124.7,412 306.6,593.9 										"/>
										<polygon class="st62" points="309.3,593.9 124.7,409.3 124.7,410.7 307.9,593.9 										"/>
										<polygon class="st63" points="310.6,593.9 124.7,408 124.7,409.3 309.3,593.9 										"/>
										<polygon class="st64" points="311.9,593.9 124.7,406.6 124.7,408 310.6,593.9 										"/>
										<polygon class="st65" points="313.3,593.9 124.7,405.3 124.7,406.6 311.9,593.9 										"/>
										<polygon class="st66" points="314.6,593.9 124.7,404 124.7,405.3 313.3,593.9 										"/>
										<polygon class="st67" points="316,593.9 124.7,402.6 124.7,404 314.6,593.9 										"/>
										<polygon class="st68" points="317.3,593.9 124.7,401.3 124.7,402.6 316,593.9 										"/>
										<polygon class="st69" points="318.7,593.9 124.7,399.9 124.7,401.3 317.3,593.9 										"/>
										<polygon class="st70" points="320,593.9 124.7,398.6 124.7,399.9 318.7,593.9 										"/>
										<polygon class="st71" points="321.3,593.9 124.7,397.2 124.7,398.6 320,593.9 										"/>
										<polygon class="st72" points="322.7,593.9 124.7,395.9 124.7,397.2 321.3,593.9 										"/>
										<polygon class="st73" points="324,593.9 124.7,394.6 124.7,395.9 322.7,593.9 										"/>
										<polygon class="st74" points="325.4,593.9 124.7,393.2 124.7,394.6 324,593.9 										"/>
										<polygon class="st75" points="326.7,593.9 124.7,391.9 124.7,393.2 325.4,593.9 										"/>
										<polygon class="st76" points="328.1,593.9 124.7,390.5 124.7,391.9 326.7,593.9 										"/>
										<polygon class="st77" points="329.4,593.9 124.7,389.2 124.7,390.5 328.1,593.9 										"/>
										<polygon class="st78" points="330.7,593.9 124.7,387.8 124.7,389.2 329.4,593.9 										"/>
										<polygon class="st79" points="332.1,593.9 124.7,386.5 124.7,387.8 330.7,593.9 										"/>
										<polygon class="st80" points="333.4,593.9 124.7,385.2 124.7,386.5 332.1,593.9 										"/>
										<polygon class="st81" points="334.8,593.9 124.7,383.8 124.7,385.2 333.4,593.9 										"/>
										<polygon class="st82" points="336.1,593.9 124.7,382.5 124.7,383.8 334.8,593.9 										"/>
										<polygon class="st83" points="337.5,593.9 124.7,381.1 124.7,382.5 336.1,593.9 										"/>
										<polygon class="st84" points="338.8,593.9 124.7,379.8 124.7,381.1 337.5,593.9 										"/>
										<polygon class="st85" points="340.1,593.9 124.7,378.4 124.7,379.8 338.8,593.9 										"/>
										<polygon class="st86" points="341.5,593.9 124.7,377.1 124.7,378.4 340.1,593.9 										"/>
										<polygon class="st87" points="342.8,593.9 124.7,375.8 124.7,377.1 341.5,593.9 										"/>
										<polygon class="st88" points="344.2,593.9 124.7,374.4 124.7,375.8 342.8,593.9 										"/>
										<polygon class="st88" points="124.7,374.4 344.2,593.9 344.2,593.9 124.7,374.4 										"/>
										<polygon class="st88" points="470.6,349.3 369.3,248 124.7,248 124.7,374.4 344.2,593.9 470.6,593.9 										"/>
										<polygon class="st88" points="369.3,248 470.6,349.3 470.6,248 										"/>
									</g>
								</g>
							</g>
						</g>
					</g>
				</g>
				<g id="path47">
					<path inkscape:connector-curvature="0" class="st89" d="M165,420.9c0-73.1,59.5-132.6,132.6-132.6s132.6,59.5,132.6,132.6
						c0,73.1-59.5,132.6-132.6,132.6S165,494.1,165,420.9"/>
				</g>
				<g id="path49">
					<path inkscape:connector-curvature="0" class="st90" d="M170.1,420.9c0-70.3,57.2-127.5,127.5-127.5
						c70.3,0,127.5,57.2,127.5,127.5s-57.2,127.5-127.5,127.5C227.3,548.5,170.1,491.3,170.1,420.9"/>
				</g>
				<g id="g51">
					<g id="g53">
						<g id="g59">
							<g id="g61">
								<g id="path73">
									<g>
										<defs>
											<path id="SVGID_3_" inkscape:connector-curvature="0" d="M174.6,420.9c0-67.8,55.2-123,123-123s123,55.2,123,123
												c0,67.8-55.2,123-123,123S174.6,488.8,174.6,420.9"/>
										</defs>
										<clipPath id="SVGID_4_">
											<use xlink:href="#SVGID_3_"  style="overflow:visible;"/>
										</clipPath>
										<polygon class="st91" points="246.8,544 174.6,471.8 174.6,544 										"/>
										<polygon class="st91" points="254.4,544 174.6,464.2 174.6,471.8 246.8,544 										"/>
										<polygon class="st92" points="261.9,544 174.6,456.6 174.6,464.2 254.4,544 										"/>
										<polygon class="st93" points="269.5,544 174.6,449 174.6,456.6 261.9,544 										"/>
										<polygon class="st94" points="277.1,544 174.6,441.4 174.6,449 269.5,544 										"/>
										<polygon class="st95" points="284.7,544 174.6,433.9 174.6,441.4 277.1,544 										"/>
										<polygon class="st96" points="292.3,544 174.6,426.3 174.6,433.9 284.7,544 										"/>
										<polygon class="st97" points="299.9,544 174.6,418.7 174.6,426.3 292.3,544 										"/>
										<polygon class="st98" points="307.5,544 174.6,411.1 174.6,418.7 299.9,544 										"/>
										<polygon class="st99" points="315.1,544 174.6,403.5 174.6,411.1 307.5,544 										"/>
										<polygon class="st100" points="322.7,544 174.6,395.9 174.6,403.5 315.1,544 										"/>
										<polygon class="st101" points="330.3,544 174.6,388.3 174.6,395.9 322.7,544 										"/>
										<polygon class="st102" points="337.9,544 174.6,380.7 174.6,388.3 330.3,544 										"/>
										<polygon class="st103" points="345.5,544 174.6,373.1 174.6,380.7 337.9,544 										"/>
										<polygon class="st104" points="353.1,544 174.6,365.5 174.6,373.1 345.5,544 										"/>
										<polygon class="st105" points="360.7,544 174.6,357.9 174.6,365.5 353.1,544 										"/>
										<polygon class="st106" points="368.3,544 174.6,350.3 174.6,357.9 360.7,544 										"/>
										<polygon class="st107" points="375.9,544 174.6,342.7 174.6,350.3 368.3,544 										"/>
										<polygon class="st108" points="383.5,544 174.6,335.1 174.6,342.7 375.9,544 										"/>
										<polygon class="st109" points="391,544 174.6,327.5 174.6,335.1 383.5,544 										"/>
										<polygon class="st110" points="398.6,544 174.6,319.9 174.6,327.5 391,544 										"/>
										<polygon class="st111" points="406.2,544 174.6,312.3 174.6,319.9 398.6,544 										"/>
										<polygon class="st112" points="413.8,544 174.6,304.8 174.6,312.3 406.2,544 										"/>
										<polygon class="st113" points="420.7,543.2 175.4,297.9 174.6,297.9 174.6,304.8 413.8,544 420.7,544 										"/>
										<polygon class="st114" points="420.7,535.6 183,297.9 175.4,297.9 420.7,543.2 										"/>
										<polygon class="st115" points="420.7,528 190.6,297.9 183,297.9 420.7,535.6 										"/>
										<polygon class="st116" points="420.7,520.4 198.1,297.9 190.6,297.9 420.7,528 										"/>
										<polygon class="st117" points="420.7,512.8 205.7,297.9 198.1,297.9 420.7,520.4 										"/>
										<polygon class="st118" points="420.7,505.2 213.3,297.9 205.7,297.9 420.7,512.8 										"/>
										<polygon class="st119" points="420.7,497.7 220.9,297.9 213.3,297.9 420.7,505.2 										"/>
										<polygon class="st120" points="420.7,490.1 228.5,297.9 220.9,297.9 420.7,497.7 										"/>
										<polygon class="st121" points="420.7,482.5 236.1,297.9 228.5,297.9 420.7,490.1 										"/>
										<polygon class="st122" points="420.7,474.9 243.7,297.9 236.1,297.9 420.7,482.5 										"/>
										<polygon class="st123" points="420.7,467.3 251.3,297.9 243.7,297.9 420.7,474.9 										"/>
										<polygon class="st124" points="420.7,459.7 258.9,297.9 251.3,297.9 420.7,467.3 										"/>
										<polygon class="st125" points="420.7,452.1 266.5,297.9 258.9,297.9 420.7,459.7 										"/>
										<polygon class="st126" points="420.7,444.5 274.1,297.9 266.5,297.9 420.7,452.1 										"/>
										<polygon class="st127" points="420.7,436.9 281.7,297.9 274.1,297.9 420.7,444.5 										"/>
										<polygon class="st128" points="420.7,429.3 289.3,297.9 281.7,297.9 420.7,436.9 										"/>
										<polygon class="st129" points="420.7,421.7 296.9,297.9 289.3,297.9 420.7,429.3 										"/>
										<polygon class="st130" points="420.7,414.1 304.5,297.9 296.9,297.9 420.7,421.7 										"/>
										<polygon class="st131" points="420.7,406.5 312.1,297.9 304.5,297.9 420.7,414.1 										"/>
										<polygon class="st132" points="420.7,398.9 319.7,297.9 312.1,297.9 420.7,406.5 										"/>
										<polygon class="st133" points="420.7,391.3 327.2,297.9 319.7,297.9 420.7,398.9 										"/>
										<polygon class="st134" points="420.7,383.7 334.8,297.9 327.2,297.9 420.7,391.3 										"/>
										<polygon class="st134" points="334.8,297.9 420.7,383.7 420.7,383.7 334.8,297.9 										"/>
										<polygon class="st134" points="420.7,370.1 348.5,297.9 334.8,297.9 420.7,383.7 										"/>
										<polygon class="st134" points="348.5,297.9 420.7,370.1 420.7,297.9 										"/>
									</g>
								</g>
							</g>
						</g>
					</g>
				</g>
				<g id="g75">
					<g id="g77">
						<g id="g83">
							<g id="g85">
								<g id="path99">
									<g>
										<defs>
											<path id="SVGID_5_" inkscape:connector-curvature="0" d="M222.3,496.9h46.6l75.8-90.6c0.5-0.6,1.4-0.2,1.4,0.5v68.1
												c0,8.7-7,15.7-15.7,15.7h-4.7v6.4h47.2v-6.4h-3.1c-7.8,0-14.1-6.3-14.1-14.1V346.3h-6.2l-97.1,116
												c-0.3,0.3-0.8,0.1-0.8-0.3v-89.5c0-9.2,7.5-16.6,16.6-16.6h3.8v-5.7h-49.8v5.7h5.1c7.8,0,14.1,6.3,14.1,14.1v105.6
												l-7.1,8.4l-2.6,3.2c-1.8,2.2-4.5,3.4-7.4,3.4h-2.1L222.3,496.9L222.3,496.9z"/>
										</defs>
										<clipPath id="SVGID_6_">
											<use xlink:href="#SVGID_5_"  style="overflow:visible;"/>
										</clipPath>
										<polygon class="st135" points="222.3,496.9 222.3,496.9 222.3,496.9 										"/>
										<polygon class="st135" points="224.3,496.9 222.3,494.9 222.3,496.9 222.3,496.9 										"/>
										<polygon class="st136" points="226.3,496.9 222.3,492.9 222.3,494.9 224.3,496.9 										"/>
										<polygon class="st137" points="228.3,496.9 222.3,490.9 222.3,492.9 226.3,496.9 										"/>
										<polygon class="st138" points="230.3,496.9 222.3,488.9 222.3,490.9 228.3,496.9 										"/>
										<polygon class="st139" points="232.3,496.9 222.3,486.9 222.3,488.9 230.3,496.9 										"/>
										<polygon class="st140" points="234.3,496.9 222.3,484.9 222.3,486.9 232.3,496.9 										"/>
										<polygon class="st141" points="236.2,496.9 222.3,482.9 222.3,484.9 234.3,496.9 										"/>
										<polygon class="st142" points="238.2,496.9 222.3,480.9 222.3,482.9 236.2,496.9 										"/>
										<polygon class="st143" points="240.2,496.9 222.3,478.9 222.3,480.9 238.2,496.9 										"/>
										<polygon class="st144" points="242.2,496.9 222.3,476.9 222.3,478.9 240.2,496.9 										"/>
										<polygon class="st145" points="244.2,496.9 222.3,474.9 222.3,476.9 242.2,496.9 										"/>
										<polygon class="st146" points="246.2,496.9 222.3,472.9 222.3,474.9 244.2,496.9 										"/>
										<polygon class="st147" points="248.2,496.9 222.3,470.9 222.3,472.9 246.2,496.9 										"/>
										<polygon class="st148" points="250.2,496.9 222.3,468.9 222.3,470.9 248.2,496.9 										"/>
										<polygon class="st149" points="252.2,496.9 222.3,466.9 222.3,468.9 250.2,496.9 										"/>
										<polygon class="st150" points="254.2,496.9 222.3,464.9 222.3,466.9 252.2,496.9 										"/>
										<polygon class="st151" points="256.2,496.9 222.3,462.9 222.3,464.9 254.2,496.9 										"/>
										<polygon class="st152" points="258.2,496.9 222.3,461 222.3,462.9 256.2,496.9 										"/>
										<polygon class="st153" points="260.2,496.9 222.3,459 222.3,461 258.2,496.9 										"/>
										<polygon class="st154" points="262.2,496.9 222.3,457 222.3,459 260.2,496.9 										"/>
										<polygon class="st155" points="264.2,496.9 222.3,455 222.3,457 262.2,496.9 										"/>
										<polygon class="st156" points="266.2,496.9 222.3,453 222.3,455 264.2,496.9 										"/>
										<polygon class="st157" points="268.2,496.9 222.3,451 222.3,453 266.2,496.9 										"/>
										<polygon class="st158" points="270.2,496.9 222.3,449 222.3,451 268.2,496.9 										"/>
										<polygon class="st159" points="272.2,496.9 222.3,447 222.3,449 270.2,496.9 										"/>
										<polygon class="st160" points="274.1,496.9 222.3,445 222.3,447 272.2,496.9 										"/>
										<polygon class="st161" points="276.1,496.9 222.3,443 222.3,445 274.1,496.9 										"/>
										<polygon class="st162" points="278.1,496.9 222.3,441 222.3,443 276.1,496.9 										"/>
										<polygon class="st163" points="280.1,496.9 222.3,439 222.3,441 278.1,496.9 										"/>
										<polygon class="st164" points="282.1,496.9 222.3,437 222.3,439 280.1,496.9 										"/>
										<polygon class="st165" points="284.1,496.9 222.3,435 222.3,437 282.1,496.9 										"/>
										<polygon class="st166" points="286.1,496.9 222.3,433 222.3,435 284.1,496.9 										"/>
										<polygon class="st167" points="288.1,496.9 222.3,431 222.3,433 286.1,496.9 										"/>
										<polygon class="st168" points="290.1,496.9 222.3,429 222.3,431 288.1,496.9 										"/>
										<polygon class="st169" points="292.1,496.9 222.3,427 222.3,429 290.1,496.9 										"/>
										<polygon class="st170" points="294.1,496.9 222.3,425 222.3,427 292.1,496.9 										"/>
										<polygon class="st171" points="296.1,496.9 222.3,423.1 222.3,425 294.1,496.9 										"/>
										<polygon class="st172" points="298.1,496.9 222.3,421.1 222.3,423.1 296.1,496.9 										"/>
										<polygon class="st173" points="300.1,496.9 222.3,419.1 222.3,421.1 298.1,496.9 										"/>
										<polygon class="st174" points="302.1,496.9 222.3,417.1 222.3,419.1 300.1,496.9 										"/>
										<polygon class="st175" points="304.1,496.9 222.3,415.1 222.3,417.1 302.1,496.9 										"/>
										<polygon class="st176" points="306.1,496.9 222.3,413.1 222.3,415.1 304.1,496.9 										"/>
										<polygon class="st177" points="308.1,496.9 222.3,411.1 222.3,413.1 306.1,496.9 										"/>
										<polygon class="st178" points="310.1,496.9 222.3,409.1 222.3,411.1 308.1,496.9 										"/>
										<polygon class="st179" points="312,496.9 222.3,407.1 222.3,409.1 310.1,496.9 										"/>
										<polygon class="st180" points="314,496.9 222.3,405.1 222.3,407.1 312,496.9 										"/>
										<polygon class="st181" points="316,496.9 222.3,403.1 222.3,405.1 314,496.9 										"/>
										<polygon class="st182" points="318,496.9 222.3,401.1 222.3,403.1 316,496.9 										"/>
										<polygon class="st183" points="320,496.9 222.3,399.1 222.3,401.1 318,496.9 										"/>
										<polygon class="st184" points="322,496.9 222.3,397.1 222.3,399.1 320,496.9 										"/>
										<polygon class="st185" points="324,496.9 222.3,395.1 222.3,397.1 322,496.9 										"/>
										<polygon class="st186" points="326,496.9 222.3,393.1 222.3,395.1 324,496.9 										"/>
										<polygon class="st186" points="222.3,393.1 326,496.9 326,496.9 222.3,393.1 										"/>
										<polygon class="st186" points="328.2,496.9 222.3,390.9 222.3,393.1 326,496.9 										"/>
										<polygon class="st185" points="330.5,496.9 222.3,388.7 222.3,390.9 328.2,496.9 										"/>
										<polygon class="st184" points="332.7,496.9 222.3,386.4 222.3,388.7 330.5,496.9 										"/>
										<polygon class="st183" points="335,496.9 222.3,384.2 222.3,386.4 332.7,496.9 										"/>
										<polygon class="st182" points="337.2,496.9 222.3,381.9 222.3,384.2 335,496.9 										"/>
										<polygon class="st181" points="339.4,496.9 222.3,379.7 222.3,381.9 337.2,496.9 										"/>
										<polygon class="st180" points="341.7,496.9 222.3,377.5 222.3,379.7 339.4,496.9 										"/>
										<polygon class="st179" points="343.9,496.9 222.3,375.2 222.3,377.5 341.7,496.9 										"/>
										<polygon class="st178" points="346.2,496.9 222.3,373 222.3,375.2 343.9,496.9 										"/>
										<polygon class="st177" points="348.4,496.9 222.3,370.7 222.3,373 346.2,496.9 										"/>
										<polygon class="st176" points="350.7,496.9 222.3,368.5 222.3,370.7 348.4,496.9 										"/>
										<polygon class="st175" points="352.9,496.9 222.3,366.3 222.3,368.5 350.7,496.9 										"/>
										<polygon class="st174" points="355.1,496.9 222.3,364 222.3,366.3 352.9,496.9 										"/>
										<polygon class="st173" points="357.4,496.9 222.3,361.8 222.3,364 355.1,496.9 										"/>
										<polygon class="st172" points="359.6,496.9 222.3,359.5 222.3,361.8 357.4,496.9 										"/>
										<polygon class="st171" points="361.9,496.9 222.3,357.3 222.3,359.5 359.6,496.9 										"/>
										<polygon class="st170" points="364.1,496.9 222.3,355 222.3,357.3 361.9,496.9 										"/>
										<polygon class="st169" points="366.3,496.9 222.3,352.8 222.3,355 364.1,496.9 										"/>
										<polygon class="st168" points="368.6,496.9 222.3,350.6 222.3,352.8 366.3,496.9 										"/>
										<polygon class="st167" points="370.8,496.9 222.3,348.3 222.3,350.6 368.6,496.9 										"/>
										<polygon class="st166" points="372.9,496.7 222.5,346.3 222.3,346.3 222.3,348.3 370.8,496.9 372.9,496.9 										"/>
										<polygon class="st165" points="372.9,494.5 224.7,346.3 222.5,346.3 372.9,496.7 										"/>
										<polygon class="st164" points="372.9,492.3 226.9,346.3 224.7,346.3 372.9,494.5 										"/>
										<polygon class="st163" points="372.9,490 229.2,346.3 226.9,346.3 372.9,492.3 										"/>
										<polygon class="st162" points="372.9,487.8 231.4,346.3 229.2,346.3 372.9,490 										"/>
										<polygon class="st161" points="372.9,485.5 233.7,346.3 231.4,346.3 372.9,487.8 										"/>
										<polygon class="st160" points="372.9,483.3 235.9,346.3 233.7,346.3 372.9,485.5 										"/>
										<polygon class="st159" points="372.9,481.1 238.1,346.3 235.9,346.3 372.9,483.3 										"/>
										<polygon class="st158" points="372.9,478.8 240.4,346.3 238.1,346.3 372.9,481.1 										"/>
										<polygon class="st157" points="372.9,476.6 242.6,346.3 240.4,346.3 372.9,478.8 										"/>
										<polygon class="st156" points="372.9,474.3 244.9,346.3 242.6,346.3 372.9,476.6 										"/>
										<polygon class="st155" points="372.9,472.1 247.1,346.3 244.9,346.3 372.9,474.3 										"/>
										<polygon class="st154" points="372.9,469.9 249.3,346.3 247.1,346.3 372.9,472.1 										"/>
										<polygon class="st153" points="372.9,467.6 251.6,346.3 249.3,346.3 372.9,469.9 										"/>
										<polygon class="st152" points="372.9,465.4 253.8,346.3 251.6,346.3 372.9,467.6 										"/>
										<polygon class="st151" points="372.9,463.1 256.1,346.3 253.8,346.3 372.9,465.4 										"/>
										<polygon class="st150" points="372.9,460.9 258.3,346.3 256.1,346.3 372.9,463.1 										"/>
										<polygon class="st149" points="372.9,458.7 260.5,346.3 258.3,346.3 372.9,460.9 										"/>
										<polygon class="st148" points="372.9,456.4 262.8,346.3 260.5,346.3 372.9,458.7 										"/>
										<polygon class="st147" points="372.9,454.2 265,346.3 262.8,346.3 372.9,456.4 										"/>
										<polygon class="st146" points="372.9,451.9 267.3,346.3 265,346.3 372.9,454.2 										"/>
										<polygon class="st145" points="372.9,449.7 269.5,346.3 267.3,346.3 372.9,451.9 										"/>
										<polygon class="st144" points="372.9,447.5 271.7,346.3 269.5,346.3 372.9,449.7 										"/>
										<polygon class="st143" points="372.9,445.2 274,346.3 271.7,346.3 372.9,447.5 										"/>
										<polygon class="st142" points="372.9,443 276.2,346.3 274,346.3 372.9,445.2 										"/>
										<polygon class="st141" points="372.9,440.7 278.5,346.3 276.2,346.3 372.9,443 										"/>
										<polygon class="st140" points="372.9,438.5 280.7,346.3 278.5,346.3 372.9,440.7 										"/>
										<polygon class="st139" points="372.9,436.3 282.9,346.3 280.7,346.3 372.9,438.5 										"/>
										<polygon class="st138" points="372.9,434 285.2,346.3 282.9,346.3 372.9,436.3 										"/>
										<polygon class="st137" points="372.9,431.8 287.4,346.3 285.2,346.3 372.9,434 										"/>
										<polygon class="st136" points="372.9,429.5 289.7,346.3 287.4,346.3 372.9,431.8 										"/>
										<polygon class="st135" points="372.9,427.3 291.9,346.3 289.7,346.3 372.9,429.5 										"/>
										<polygon class="st135" points="372.9,426.1 293.1,346.3 291.9,346.3 372.9,427.3 										"/>
										<polygon class="st136" points="372.9,424.8 294.4,346.3 293.1,346.3 372.9,426.1 										"/>
										<polygon class="st137" points="372.9,423.6 295.6,346.3 294.4,346.3 372.9,424.8 										"/>
										<polygon class="st138" points="372.9,422.4 296.8,346.3 295.6,346.3 372.9,423.6 										"/>
										<polygon class="st139" points="372.9,421.2 298,346.3 296.8,346.3 372.9,422.4 										"/>
										<polygon class="st140" points="372.9,419.9 299.3,346.3 298,346.3 372.9,421.2 										"/>
										<polygon class="st141" points="372.9,418.7 300.5,346.3 299.3,346.3 372.9,419.9 										"/>
										<polygon class="st142" points="372.9,417.5 301.7,346.3 300.5,346.3 372.9,418.7 										"/>
										<polygon class="st143" points="372.9,416.3 303,346.3 301.7,346.3 372.9,417.5 										"/>
										<polygon class="st144" points="372.9,415 304.2,346.3 303,346.3 372.9,416.3 										"/>
										<polygon class="st145" points="372.9,413.8 305.4,346.3 304.2,346.3 372.9,415 										"/>
										<polygon class="st146" points="372.9,412.6 306.6,346.3 305.4,346.3 372.9,413.8 										"/>
										<polygon class="st147" points="372.9,411.3 307.9,346.3 306.6,346.3 372.9,412.6 										"/>
										<polygon class="st148" points="372.9,410.1 309.1,346.3 307.9,346.3 372.9,411.3 										"/>
										<polygon class="st149" points="372.9,408.9 310.3,346.3 309.1,346.3 372.9,410.1 										"/>
										<polygon class="st150" points="372.9,407.7 311.5,346.3 310.3,346.3 372.9,408.9 										"/>
										<polygon class="st151" points="372.9,406.4 312.8,346.3 311.5,346.3 372.9,407.7 										"/>
										<polygon class="st152" points="372.9,405.2 314,346.3 312.8,346.3 372.9,406.4 										"/>
										<polygon class="st153" points="372.9,404 315.2,346.3 314,346.3 372.9,405.2 										"/>
										<polygon class="st154" points="372.9,402.7 316.5,346.3 315.2,346.3 372.9,404 										"/>
										<polygon class="st155" points="372.9,401.5 317.7,346.3 316.5,346.3 372.9,402.7 										"/>
										<polygon class="st156" points="372.9,400.3 318.9,346.3 317.7,346.3 372.9,401.5 										"/>
										<polygon class="st157" points="372.9,399.1 320.1,346.3 318.9,346.3 372.9,400.3 										"/>
										<polygon class="st158" points="372.9,397.8 321.4,346.3 320.1,346.3 372.9,399.1 										"/>
										<polygon class="st159" points="372.9,396.6 322.6,346.3 321.4,346.3 372.9,397.8 										"/>
										<polygon class="st160" points="372.9,395.4 323.8,346.3 322.6,346.3 372.9,396.6 										"/>
										<polygon class="st161" points="372.9,394.2 325,346.3 323.8,346.3 372.9,395.4 										"/>
										<polygon class="st162" points="372.9,392.9 326.3,346.3 325,346.3 372.9,394.2 										"/>
										<polygon class="st163" points="372.9,391.7 327.5,346.3 326.3,346.3 372.9,392.9 										"/>
										<polygon class="st164" points="372.9,390.5 328.7,346.3 327.5,346.3 372.9,391.7 										"/>
										<polygon class="st165" points="372.9,389.2 330,346.3 328.7,346.3 372.9,390.5 										"/>
										<polygon class="st166" points="372.9,388 331.2,346.3 330,346.3 372.9,389.2 										"/>
										<polygon class="st167" points="372.9,386.8 332.4,346.3 331.2,346.3 372.9,388 										"/>
										<polygon class="st168" points="372.9,385.6 333.6,346.3 332.4,346.3 372.9,386.8 										"/>
										<polygon class="st169" points="372.9,384.3 334.9,346.3 333.6,346.3 372.9,385.6 										"/>
										<polygon class="st170" points="372.9,383.1 336.1,346.3 334.9,346.3 372.9,384.3 										"/>
										<polygon class="st171" points="372.9,381.9 337.3,346.3 336.1,346.3 372.9,383.1 										"/>
										<polygon class="st172" points="372.9,380.7 338.6,346.3 337.3,346.3 372.9,381.9 										"/>
										<polygon class="st173" points="372.9,379.4 339.8,346.3 338.6,346.3 372.9,380.7 										"/>
										<polygon class="st174" points="372.9,378.2 341,346.3 339.8,346.3 372.9,379.4 										"/>
										<polygon class="st175" points="372.9,377 342.2,346.3 341,346.3 372.9,378.2 										"/>
										<polygon class="st176" points="372.9,375.7 343.5,346.3 342.2,346.3 372.9,377 										"/>
										<polygon class="st177" points="372.9,374.5 344.7,346.3 343.5,346.3 372.9,375.7 										"/>
										<polygon class="st178" points="372.9,373.3 345.9,346.3 344.7,346.3 372.9,374.5 										"/>
										<polygon class="st179" points="372.9,372.1 347.1,346.3 345.9,346.3 372.9,373.3 										"/>
										<polygon class="st180" points="372.9,370.8 348.4,346.3 347.1,346.3 372.9,372.1 										"/>
										<polygon class="st181" points="372.9,369.6 349.6,346.3 348.4,346.3 372.9,370.8 										"/>
										<polygon class="st182" points="372.9,368.4 350.8,346.3 349.6,346.3 372.9,369.6 										"/>
										<polygon class="st183" points="372.9,367.2 352.1,346.3 350.8,346.3 372.9,368.4 										"/>
										<polygon class="st184" points="372.9,365.9 353.3,346.3 352.1,346.3 372.9,367.2 										"/>
										<polygon class="st185" points="372.9,364.7 354.5,346.3 353.3,346.3 372.9,365.9 										"/>
										<polygon class="st186" points="372.9,363.5 355.7,346.3 354.5,346.3 372.9,364.7 										"/>
										<polygon class="st186" points="355.7,346.3 372.9,363.5 372.9,346.3 										"/>
									</g>
								</g>
							</g>
						</g>
					</g>
				</g>
			</g>
		</g>
	</g>
</g>
</svg>
