<?xml version="1.0" encoding="utf-8"?>
<!-- Generator: Adobe Illustrator 21.0.2, SVG Export Plug-In . SVG Version: 6.00 Build 0)  -->
<svg version="1.1" id="Ebene_1" xmlns="http://www.w3.org/2000/svg" xmlns:xlink="http://www.w3.org/1999/xlink" x="0px" y="0px"
	 viewBox="0 0 273.7 501.8" style="enable-background:new 0 0 273.7 501.8;" xml:space="preserve">
<style type="text/css">
	.st0{fill:#FFDD00;stroke:#FFDD00;stroke-width:0.3297;stroke-miterlimit:2.6131;}
	.st1{fill:#FFFFFF;}
	.st2{fill:#E2001A;}
	.st3{fill:#E2001A;stroke:#E2001A;stroke-width:0.3297;stroke-miterlimit:2.6131;}
</style>
<path d="M148.4,0.6c0.5,0.2,0.2,0.6,0,1c-3.3,3.7-5.1,8.3-7.5,12.6l0.2,0.8c5.9-0.8,11.4-3.5,16.8-6.4c0.6,1,0.2,2.4-0.3,3.3
	c-0.2,7.6-1.6,16.6,1.6,23.9v1.3c-4.3-1.6-8.4-4.1-12.9-5.3l-4-1.1c4.4,3,8.4,7.8,7.6,13.8c0.3,4.8-3.7,7.2-6,10.5
	c0.5,0,1,0.3,1.1,0c4.1,0.3,9.1-0.5,13.2-1c12.6-2.4,25.6-10.7,38.6-3.7c3.7,0.6,6,3.7,8.9,5.7l-0.2,0.2c2.5,1.8,3.7,4.9,4.9,7.5
	c7-1.4,15.1-1.4,21.9-1.3c7.9,0.8,15.3,3.3,21.4,8.6c0.2,1.8,1.9,2.2,2.9,3.8c2.4,4.8,5.1,9.9,4,16.1c-0.6,6.7-3.2,12.9-6.4,18.3
	c-7.8,11.3-20.6,17-31,24.8l-10.2,8c-3,4.9-9.1,8.4-7.3,14.3c2.2,4.3,0,8.9-1.9,12.3c-2.1,2.4-4.9,3.2-7.1,5.3
	c0,0.6,0.5,1.6,0.8,2.4h76.1l-0.3,113.2C268,376.3,218.1,457.8,139,501.4c-1.9,1.1-4-0.3-5.7-1.1C64.5,461.1,14.9,389.3,3.3,313.1
	C1.9,304,0.8,294.6,0,285.4V176.7l76.4-0.3c0.6-0.5,1-1.3,0.5-1.9c-5.6-3.7-9.7-9.1-10-15.8l2.2-4.1c-2.2-11.3-14.3-15.6-22.2-22.1
	c-10.2-6.2-22.7-12.9-28.4-24.2c-4.3-8.6-8.3-19.6-3.8-29.3c3.3-8.3,11.1-13.1,19.2-15.3c9.8-2.1,20.3-0.6,30,0.8h0.5
	c1.9-7.6,9.4-14.3,17.2-15.9c6.7-0.3,13.8-1.8,20-0.2c9.7,2.1,18.6,7,28.9,6.7c-4-1.1-6.4-5.1-7.3-8.6c-1.4-6,1.9-11.6,6-14.6
	l2.7-1.3c-2.2-0.8-4.4,0.6-6.7,1.3c-3,1.6-6.4,2.7-9.2,4.8l-1-0.2c1.6-5.9,1.1-12.9,1-18.9c0-3.2-1-5.6-1.4-8.3c1-0.5,1.7,0,2.7,0.5
	c3.5,2.4,7.9,3,11.9,4.9l2.4,0.2c-2.4-4.9-4.8-9.6-7.6-14.2l0.2-0.6C131.9,1.1,140.6,0.5,148.4,0.6L148.4,0.6z"/>
<path class="st0" d="M269.3,278.5c-2.2,75-33.8,142-92.5,191.2l-0.2-0.2l-0.3,0.8c-12.6,10.2-25.1,18.8-38.8,26.4
	C76.9,464.9,30.8,404.6,13.5,340.1c-5.6-20.7-8.6-42.8-9.1-64.8l-0.2-91.7V181h265.1L269.3,278.5L269.3,278.5z"/>
<path d="M259.6,267.4c0.6,88.7-44.2,172.2-122.5,218.2c-77.5-46-124.1-129.7-123-218.2L259.6,267.4L259.6,267.4z"/>
<path class="st1" d="M255,272.3c0.2,84.2-44,163.8-117.4,207.9c-7.3-4-14-8.9-21-13.4c-61.8-46.2-97.1-117.1-97.7-194.5L255,272.3
	L255,272.3z"/>
<path class="st2" d="M80.4,436.1c-2.7-1.1-3.8-3.5-5.7-5.6c-11.1-12.6-20.5-25.8-28.4-40l0.9-118.8h34.2L80.4,436.1L80.4,436.1z"/>
<path class="st2" d="M153.9,471.3c-5.6,4-11.1,8-17,10.8l-17.3-10.7V271.8h34.3V471.3L153.9,471.3z"/>
<path class="st2" d="M226.9,388.4c-7.6,15.4-18.4,30.1-30,43.8c-1.3,1.3-2.4,2.9-4,3.5V272.1h34V388.4L226.9,388.4z"/>
<path class="st0" d="M142.2,4.5c-2.1,3-4,6.8-5.1,9.7l0.2,0.6c-0.8,0.6-1.1-0.5-1.9-0.5c-1.7-3-2.9-6.8-5.2-9.7V4
	C133.3,4.1,138.7,4.1,142.2,4.5L142.2,4.5z"/>
<path class="st0" d="M126.9,17.2c4.1,1.6,9.2,1.1,13.5,1.6c1.7-1,4.4-0.2,6.2-1.1c2.2-0.5,5.1-0.2,6.8-1.6c-0.6,4.5-0.6,10,0.5,14.6
	c-1.6,0-3-1.1-4.3-1.6c-6.4-1.8-12.7-3.7-19.5-1.9c-3.8,0-7.3,1.3-10.2,3.5c0.2-5.1,0.3-10.3-0.3-15.9
	C121.8,16.4,124.5,16.1,126.9,17.2L126.9,17.2z"/>
<path class="st0" d="M145.2,39.2c1.7,2.9,0.8,7-0.6,9.7c-2.5,2.7-5.6,5.1-9.2,4c-4.3-0.5-6.8-4.3-8.3-7.8c-1.3-2.5-0.2-5.7,1.6-7.6
	c2.9-3.3,7.3-4.3,11.3-2.9C142.3,34.9,143.8,37.4,145.2,39.2L145.2,39.2z"/>
<path class="st0" d="M131.4,59.8l-3.2,7.8c-5.4-0.6-9.4-6-15.4-5.3c-8.4-3.3-17.6-0.5-24,5.4c-10.6,12.3-1.7,28.2,3.3,40.3
	c2.9,8.4,10.2,14.3,13,22.8c1.3,4.1,2.4,8.6,3.7,12.9l-4,0.6c-1.9-10.2-6.2-17.7-12.1-26.3C83.9,104.7,69.1,95,67.8,78.5
	C66.1,70.7,68.5,63,73.7,57c9.5-7,23-4.1,34.3-1.8C115.7,57,123,60.3,131.4,59.8L131.4,59.8z"/>
<path class="st0" d="M191.4,53.3c4,1.3,8.3,2.4,11.4,5.7c2.7,3.7,4.4,8,4,12.6c-0.5,5.3-2.4,9.6-3.5,14.8
	c-5.7,17.7-23,29.1-33.5,44.7c-1.6,3.8-3.7,8.1-2.5,12.6l-3.5-0.3c-1.9-11.5,6.8-19.6,11.9-28.6c4.6-6.7,7.5-12.4,10.8-19.7
	c0.5-2.2,1.6-4.6,2.2-7.3c1.3-5.1,1.3-11.3-0.5-16.7c-5.7-10-18.1-9.7-28.3-8.4l-0.3-0.2c-5.1,0.8-10,2.5-14.6,5.3l-5.1-8.4
	c15.4,2.2,28.3-4.6,42.4-6.4C185.4,52.5,188.3,53.3,191.4,53.3L191.4,53.3z"/>
<path class="st0" d="M138.7,63.8c3,7.2,7.3,13.5,7.9,21.5c-0.3,3.3,1.1,6.2,0.3,9.2c0.5,5.4-1.3,10.2-1.7,15.6
	c-1.1,5.9-0.8,11.9-3.2,17.3c-1.4,4.9-2.5,9.7-4.8,14.2c-0.3,0.3-1.3,0.3-1.9,0.3c-4.9-18-10.2-35.8-7.9-55.5
	c0.2-6.7,2.4-12.6,5.2-18.1c1.1-2.4,2.9-4.5,4.3-6.7C137.6,62.6,137.7,63.2,138.7,63.8L138.7,63.8z"/>
<path class="st1" d="M110.2,66.4c-3.2,0.8-6.7,1.9-10.2,1.4c-1.1,0.5-2.9,1-4,0.3C100.1,64.9,105.2,64.9,110.2,66.4L110.2,66.4z"/>
<path class="st1" d="M181.4,69.6c-6.4,1-13-0.3-18.6-3c3.3-1,7.8,0.2,11.6,0C177,66.7,179.2,68.1,181.4,69.6L181.4,69.6z"/>
<path class="st0" d="M255.3,81.3c0.3,2.4,1.9,5.1,1.1,7.8c-0.2,9.1-4,16.2-10.2,22.9c-6.8,7.5-16,12.6-24.5,18.1
	c-5.7,5.1-12.7,8.1-17,14.6l-3.5,6.5c-1.9-0.6-4.1-0.8-5.9-1.8c4.6-6.4,8.6-13.5,14.1-19.3c4.3-6.8,11.9-12.1,14.5-19.6
	c3.5-5.4,6.7-12.4,4-18.6c-2.2-4.6-6.5-8.4-11.3-9.7c-2.4-0.5-5.2-0.5-7.5,0.5c1.7-4.6,2.7-9.7,2.2-15.1c10.2-1.4,22.1-1.9,31.6,1.4
	C248.8,71,252.9,76.4,255.3,81.3L255.3,81.3z"/>
<path class="st0" d="M57.7,68.9c2.2,0,3.5,0,5.6,0.3c-0.5,5.3-0.3,11,1.3,15.9c-1-0.3-1.9,0-2.4-1c-6.5-0.6-12.2,1.6-15.7,6.7
	c-5.2,6.5-1.6,15.4,2.1,21.6c7.9,13.1,19.9,22.8,29.1,35.3c0.2,0.5,1.1,1.1,1.3,2.1c-1.7,0.8-3.7,0.8-5.4,1.4
	c-4-10.3-14.6-15.3-22.7-21.3c-10.2-6.7-21.4-13.1-27.8-23.7c-5.4-7.8-7.8-19.9-2.2-28.5c0.3-2.2,2.9-3.5,4.6-4.9
	c5.7-4,13.2-4.5,20.3-5.3C49.6,68.1,53.9,67.6,57.7,68.9L57.7,68.9z"/>
<path class="st0" d="M126.1,71.8v1c-4.9,2.4-9.1,4.8-14.6,5.6c-3.8,0.6-7.8,1.8-11.9,1.4c-3.2,0-6.7,0.3-9.5-0.6
	c-0.5,0-0.8,0.5-1.1,0c-0.2-1.9,1.1-4.1,1.7-6.4c8.6,1.1,18.7,0,26.1-4.9C120.3,68.3,122.5,71.6,126.1,71.8L126.1,71.8z"/>
<path class="st0" d="M166.8,72.4c5.6,1.6,11.8,2.5,18,1.4c-0.2,2.2,1,4,0.6,5.9c-4.1,1.1-8.7-0.2-13.7,0c-8.1-2.2-16.4-3.3-23.8-7.3
	c-0.2,0.3-0.6,0-0.6-0.2c0-0.5,0.6-0.5,0.8-0.6c1.9-2.4,4.4-2.2,6.7-3.5C158.2,71,162.7,71.1,166.8,72.4L166.8,72.4z"/>
<path class="st1" d="M185.4,85.2c-1.6,4.6-3,8.6-5.1,13.1l-0.6,0.2c-9.1-1.8-18.6-3.3-27.8-4.1c-1.1-5.1-1.1-11.3-2.7-16.2
	C160.3,82.6,172.8,84.8,185.4,85.2L185.4,85.2z"/>
<path class="st1" d="M124.1,79.1c-1.6,5.1-1.1,9.2-1.7,14.8c-9.7,1.8-20.5,1.8-29.9,4.6c-1.7-4.3-3-9.1-3.7-13.8
	c1.1-0.3,2.4,0.5,3.5,0.5C103.7,85.8,114.4,83.1,124.1,79.1L124.1,79.1z"/>
<path class="st1" d="M223.4,93.4c3,4.3,0,9.7-2.4,13.5c-1.1,1.6-1,3.3-2.5,4.6l-2.4-1.4c-5.7-2.1-11.6-4.3-17.2-6.7
	c4.1-4.6,5.7-10.2,8.6-15.8c4.1,0,9.7-1.1,13.2,2.2L223.4,93.4L223.4,93.4z"/>
<path class="st1" d="M65.5,89.5c2.4,4.9,5.2,9.7,9.4,14c-7.3,2.7-14.3,5.6-21.3,8.6c-2.9-5.1-7.3-10.7-4.4-17.2
	C52.4,89.5,59.3,86.9,65.5,89.5L65.5,89.5z"/>
<path class="st3" d="M122.2,98.5c0,8.8,2.1,16.6,3.2,25c1.4,6.2,3.7,12.4,5.1,18.5c-5.9,0-12.2,0.8-18.1,1.3
	c-0.3-10.7-4.8-19.9-11.1-28.3c-3.2-3.5-4.8-8-6.7-12.1C103.3,100.3,112.6,99.2,122.2,98.5L122.2,98.5z"/>
<path class="st3" d="M178.4,102.8c-4.4,9.2-13,17-17,26.4c-1.6,4.3-2.2,9.4-1.7,13.5c-5.7-0.6-11.9-0.6-17.6-0.8
	c4.8-10.8,6-22.9,8.3-34.5c0.5-2.9,0.6-6.4,1.4-8.9C161.1,99.2,169.8,100.3,178.4,102.8L178.4,102.8z"/>
<path class="st3" d="M81.5,111.4c6.4,6.4,12.9,14.2,15.4,22.8c2.1,3.3,3.5,6.8,3.8,10.8c-5.7,1.1-11.8,2.2-17.3,3.8
	c-1.3-5.6-6.4-9.6-10-13.8c-6.2-6.4-11.8-12.3-17.5-19.1c7-3.7,14.3-6.7,22.1-8.4L81.5,111.4L81.5,111.4z"/>
<path class="st3" d="M215.9,114.9c-1.6,3.5-4.6,6.2-6.8,9.2c-7.1,7.6-12.4,16.2-18.1,24.4l-18.3-4c-2.1-2.9-1-5.9-0.5-9.1
	c1.9-5.1,6.5-8.6,9.9-13.1c4.4-5.1,9.4-9.7,13.5-15C202.6,109.2,209.2,111.9,215.9,114.9L215.9,114.9z"/>
<path class="st0" d="M201.1,156.8c2.2,2.1,1.7,5.3,0.8,8c-1.3,1.9-3.3,3.7-5.2,4.6l-1.6-1.1c-36.2-11.1-80.7-11.8-116.6,0.6
	c-3-1.6-5.6-4.5-6.5-7.8c-0.8-2.4,2.1-2.4,2.5-4.3c4.6-2.2,9.4-3.7,14.3-4.8c21.6-5.4,42.6-7,65.9-5.3
	C170.5,148.3,186.5,151.2,201.1,156.8L201.1,156.8z"/>
<path class="st3" d="M192.1,173.3c-0.3,1.1,0,2.2,0.8,3h-112c0-0.8,0.8-1.4,0.2-2.4C116.1,161.9,156.5,161.9,192.1,173.3
	L192.1,173.3z"/>
<polygon points="14.1,193.4 259.3,193.4 259.3,257.4 14.1,257.4 "/>
<polygon class="st1" points="255,252.6 18.9,252.6 18.9,197.8 156.3,197.7 255,197.8 "/>
<path class="st2" d="M145.2,206.3c2.1,2.5,3.8,5.7,3.3,9.1h-8.1c-0.3-2.1-1.4-4.3-3.5-5.4c-3.7-1.9-9.1-1.8-12.2,1
	c-1.3,1.1-1.7,2.9-1.3,4.5c4.4,5.4,12.1,4.1,17.8,6.8c4.3,1.3,8.4,5.3,8.7,9.7c0.6,5.3-1.6,10.8-6.7,13.4
	c-7.8,3.7-17.6,3.8-24.8-1.3c-3.5-2.4-5.1-6.4-5.4-10.7l8.3-0.3c0.8,2.2,1.6,5.4,4.4,6.5c4.3,1.8,10,1.8,13.5-1.4
	c0.8-1.1,1.7-2.2,1.3-3.8c-0.2-4-4.8-4.6-7.6-5.6c-7.2-1.9-17-2.5-18.4-11.6c-0.6-4.3,0.6-8.3,3.7-11.1
	C125.3,199.8,138.7,199.8,145.2,206.3L145.2,206.3z"/>
<path class="st2" d="M189.2,203.1c3,11.1,6.5,22.1,9.2,33.4c1-1.6,0.6-3.8,1.3-5.3l7.8-28.2h12.9v43.3h-7.9c0-10.8,0-22.1,0-32.2
	c-3.3,10.5-6.5,21.3-9.5,32.2h-8.6c-3.2-10.8-6.5-21.3-9.4-32.2l-0.3,0.2l0.2,32h-7.9v-43.3L189.2,203.1L189.2,203.1z"/>
<path class="st2" d="M78.5,203.4c4.9,14.5,10,29.1,14.9,43.9h-8.9c-1.1-3.2-1.9-6.4-3.2-9.2H65.8l-0.6,0.6l-2.4,8.4
	c-2.7,0.3-6,0-8.9,0.2c4.4-14.8,10.2-29.4,14.8-43.9L78.5,203.4L78.5,203.4z"/>
<path class="st1" d="M79.1,230.8c-3.7,0.2-7.6,0.2-11.3,0.2l5.7-19.3L79.1,230.8L79.1,230.8z"/>
</svg>
