<?xml version="1.0" encoding="utf-8"?>
<!-- Generator: Adobe Illustrator 21.0.2, SVG Export Plug-In . SVG Version: 6.00 Build 0)  -->
<svg version="1.1"
	 id="svg2" xmlns:cc="http://creativecommons.org/ns#" xmlns:dc="http://purl.org/dc/elements/1.1/" xmlns:rdf="http://www.w3.org/1999/02/22-rdf-syntax-ns#" xmlns:svg="http://www.w3.org/2000/svg"
	 xmlns="http://www.w3.org/2000/svg" xmlns:xlink="http://www.w3.org/1999/xlink" x="0px" y="0px" viewBox="0 0 480 480"
	 style="enable-background:new 0 0 480 480;" xml:space="preserve">
<style type="text/css">
	.st0{fill:#AE9962;}
	.st1{fill:#E2001A;}
	.st2{fill:#FFFFFF;}
</style>
<g id="g3062" transform="matrix(0.88209282,0,0,0.88209282,-17436.311,-7571.8388)">
	<g id="_206857656">
		<g id="path22">
			<path class="st0" d="M19767,8856.3c-0.2-150.3,121.5-272.2,271.8-272.4c150.3-0.2,272.2,121.5,272.4,271.8
				c0.2,150.3-121.5,272.2-271.8,272.4C19889.1,9128.3,19767.2,9006.6,19767,8856.3L19767,8856.3z"/>
		</g>
		<g id="path24">
			<path d="M19778.7,8856.3c-0.2-143.8,116.3-260.5,260.1-260.7c143.8-0.2,260.5,116.3,260.7,260.1c0.2,143.8-116.2,260.5-260,260.7
				C19895.6,9116.5,19778.9,9000.1,19778.7,8856.3L19778.7,8856.3z"/>
		</g>
		<g id="path26">
			<path class="st0" d="M19851.7,8856.2c-0.1-103.7,83.8-187.9,187.5-188c103.7-0.1,187.9,83.8,188,187.5
				c0.1,103.7-83.8,187.9-187.5,188C19935.9,9043.9,19851.8,8959.9,19851.7,8856.2L19851.7,8856.2z"/>
		</g>
		<g id="path28">
			<path class="st0" d="M20261.5,8748.4c0.5,3.6,0,7.1-1.8,10.4c-1.4,2.7-3.2,4.9-5.5,6.8c-2.3,1.8-4.6,3.4-6.9,4.6
				c-5.9,3-11.5,4.4-16.8,4.1c-7.2-0.4-12.4-3.9-15.9-10.6l-9.8-19.1l44.4-22.7l9.8,19.1
				C20260.3,8743.8,20261.2,8746.3,20261.5,8748.4L20261.5,8748.4z M20246,8734.9l-29,14.8l4.4,8.6c2.2,4.4,5.9,6.3,11.2,5.9
				c2.8-0.3,5.9-1.3,9.2-2.9c4.5-2.3,7.6-4.8,9.3-7.5c1.7-2.6,1.5-6-0.7-10.3L20246,8734.9L20246,8734.9z M20225.8,8694.5
				c0.7,1.9,1,3.9,0.7,5.9c-0.2,1.6-0.6,3.2-1.3,4.7c-0.7,1.5-1.7,2.9-3.2,4.3c-1.7,1.6-3.8,2.8-6.3,3.5c-2.5,0.7-5,0.3-7.6-1
				c0.9,2.3,1,4.4,0.4,6.3c-0.6,1.8-2.1,4-4.7,6.4l-2.4,2.3c-1.6,1.5-2.7,2.6-3.2,3.4c-0.8,1.1-1,2.2-0.8,3.3l-0.9,0.8l-7.8-8.4
				c0.6-1,1.1-1.7,1.5-2.3c0.8-1.2,1.8-2.2,2.8-3.3l3.3-3.2c2.3-2.2,3.4-4,3.5-5.6c0-1.5-1-3.4-3.1-5.7l-7.3-7.9l-14.3,13.4
				l-6.9-7.4l36.4-34.1l16.7,17.9C20223.6,8690.3,20225.1,8692.6,20225.8,8694.5L20225.8,8694.5z M20205.2,8683.2l-9.8,9.2l8.1,8.6
				c1.6,1.7,3,2.8,4.2,3.3c2.1,0.9,4.1,0.3,6.2-1.6c2.2-2.1,3-4.2,2.4-6.4c-0.3-1.2-1.3-2.6-2.8-4.3L20205.2,8683.2L20205.2,8683.2z
				 M20152.7,8687.6c-5.2,1.5-10.9,0.4-17.1-3.1c-6.2-3.6-9.9-7.9-11.3-13.2c-2-6.6-0.8-13.8,3.7-21.6c4.6-7.9,10.2-12.6,16.8-14
				c5.2-1.5,10.9-0.4,17.1,3.1c6.2,3.6,9.9,7.9,11.3,13.2c2.1,6.5,0.8,13.7-3.7,21.6C20165.1,8681.3,20159.5,8686,20152.7,8687.6
				L20152.7,8687.6z M20150.9,8677.8c3.6-1.4,6.8-4.6,9.7-9.4c2.8-4.9,3.9-9.2,3.3-13.1c-0.6-3.8-2.6-6.8-6.2-8.9
				c-3.6-2.1-7.2-2.4-10.8-1c-3.6,1.4-6.8,4.6-9.7,9.4c-2.8,4.9-3.9,9.2-3.3,13.1c0.6,3.9,2.7,6.8,6.3,8.9
				C20143.6,8678.9,20147.2,8679.2,20150.9,8677.8L20150.9,8677.8z M20097.9,8661.6c-4.5,2.9-10.3,3.6-17.2,2
				c-6.9-1.6-11.8-4.7-14.6-9.3c-3.9-5.7-4.8-13-2.8-21.8c2-8.9,6-15,12-18.4c4.5-2.9,10.3-3.6,17.2-2c6.9,1.6,11.8,4.7,14.6,9.3
				c3.8,5.6,4.8,12.8,2.7,21.8C20107.8,8651.9,20103.8,8658,20097.9,8661.6z M20093.2,8652.7c3.1-2.4,5.2-6.4,6.5-11.9
				c1.2-5.4,1-9.9-0.7-13.5c-1.7-3.5-4.5-5.7-8.5-6.7c-4-0.9-7.6-0.2-10.7,2.2c-3,2.4-5.2,6.4-6.5,11.8c-1.3,5.5-1,10,0.7,13.5
				c1.7,3.5,4.5,5.7,8.6,6.7C20086.6,8655.9,20090.1,8655.2,20093.2,8652.7z M20000.6,8610.1l10.9-0.8l22.3,33.3l-2.5-34.8l9.7-0.7
				l3.5,49.8l-10.4,0.7l-22.8-33.9l2.5,35.3l-9.7,0.7L20000.6,8610.1L20000.6,8610.1z M19975.8,8624.7l-25,8.6l3.5,10l22.9-7.9
				l2.8,8.2l-22.9,7.9l4.2,12.1l26.1-9l2.9,8.5l-35.7,12.3l-16.3-47.2l34.6-12L19975.8,8624.7L19975.8,8624.7z M19905.8,8646.2
				l9.6-7l4.8,35l11,15.2l-8.4,6.1l-11-15.2l-32.3-15l9.9-7.2l21.2,11.5L19905.8,8646.2L19905.8,8646.2z M19871.1,8684.6l-17.3,20
				l8,6.9l15.9-18.3l6.5,5.7l-15.9,18.3l9.7,8.4l18.1-20.9l6.8,5.9l-24.8,28.6l-37.7-32.7l24-27.6L19871.1,8684.6L19871.1,8684.6z
				 M19810.8,8757.7l16-31.5l7.8,4l-11.3,22.3l10.2,5.2l9.9-19.5l7.7,3.9l-9.9,19.5l18.6,9.5l-4.7,9.2L19810.8,8757.7
				L19810.8,8757.7z"/>
		</g>
		<g id="path30">
			<path class="st0" d="M19867.5,8957.8c0.1,2-0.2,4-1,5.9c-0.7,1.5-1.5,2.9-2.6,4.1c-1.1,1.2-2.5,2.2-4.3,3.2
				c-2.1,1-4.5,1.6-7.1,1.5c-2.6-0.1-4.8-1.1-7-3.2c0.2,2.5-0.3,4.5-1.4,6.1c-1.1,1.6-3.2,3.2-6.3,4.7l-3,1.5c-2,1-3.4,1.7-4.1,2.3
				c-1,0.8-1.6,1.8-1.7,3l-1.1,0.5l-5-10.3c0.8-0.8,1.5-1.3,2.1-1.8c1.1-0.9,2.3-1.6,3.7-2.3l4.1-2.1c2.9-1.4,4.5-2.9,5-4.4
				c0.5-1.4,0-3.5-1.3-6.3l-4.7-9.7l-17.6,8.6l-4.5-9.2l44.8-21.9l10.8,22C19866.5,8953.1,19867.3,8955.7,19867.5,8957.8
				L19867.5,8957.8z M19851,8941l-12,5.9l5.2,10.6c1,2.1,2,3.6,3,4.4c1.8,1.4,3.9,1.5,6.4,0.3c2.7-1.3,4.1-3.1,4.2-5.4
				c0-1.3-0.5-2.9-1.4-5L19851,8941L19851,8941z"/>
		</g>
		<g id="path32">
			<path class="st0" d="M19872.3,9033.5c-5.4-0.1-10.5-2.8-15.4-8c-4.8-5.2-7.2-10.5-6.9-15.9c0-6.9,3.3-13.4,9.9-19.6
				c6.7-6.2,13.4-9.1,20.2-8.5c5.4,0.1,10.5,2.8,15.4,8c4.8,5.2,7.2,10.5,6.9,15.9c0.1,6.8-3.2,13.3-9.9,19.6
				C19885.9,9031,19879.2,9033.9,19872.3,9033.5L19872.3,9033.5z M19873.4,9023.5c3.9-0.3,7.9-2.4,12-6.2c4.1-3.8,6.4-7.6,7-11.5
				c0.6-3.8-0.5-7.2-3.3-10.3c-2.8-3-6.2-4.4-10.1-4.1c-3.9,0.3-7.9,2.4-12,6.2c-4.1,3.8-6.4,7.7-7,11.6c-0.5,3.9,0.6,7.3,3.4,10.3
				C19866.1,9022.5,19869.4,9023.8,19873.4,9023.5L19873.4,9023.5z"/>
		</g>
		<g id="polygon34">
			<polygon class="st0" points="19916.8,9012.2 19950.8,9034.1 19945.9,9041.6 19933.4,9033.5 19911.1,9067.9 19902.3,9062.2 
				19924.6,9027.8 19912,9019.6 			"/>
		</g>
		<g id="polygon36">
			<polygon class="st0" points="19961.3,9038.5 19999.7,9050.9 19997,9059.4 19982.8,9054.8 19970.2,9093.8 19960.2,9090.6 
				19972.8,9051.5 19958.6,9046.9 			"/>
		</g>
		<g id="polygon38">
			<polygon class="st0" points="20048.6,9094.9 20048.3,9103.9 20010.5,9102.6 20012.2,9052.7 20048.7,9054 20048.4,9062.8 
				20022,9061.9 20021.7,9072.5 20045.9,9073.3 20045.6,9082 20021.4,9081.1 20021,9094 			"/>
		</g>
		<g id="path40">
			<path class="st0" d="M20096.9,9046.7c2,0.3,3.8,1.1,5.5,2.3c1.3,1,2.5,2.1,3.5,3.5c0.9,1.3,1.6,3,2.1,4.9
				c0.5,2.3,0.5,4.7-0.2,7.2c-0.6,2.5-2.2,4.5-4.7,6.1c2.5,0.4,4.3,1.3,5.7,2.8c1.3,1.4,2.3,3.8,3.2,7.2l0.8,3.3
				c0.5,2.2,0.9,3.7,1.3,4.5c0.6,1.2,1.4,2,2.5,2.3l0.3,1.2l-11.2,2.6c-0.5-1-0.9-1.8-1.3-2.4c-0.6-1.3-1-2.7-1.4-4.1l-1.1-4.5
				c-0.8-3.1-1.8-5-3.2-5.8c-1.3-0.8-3.4-0.8-6.4-0.1l-10.5,2.4l4.4,19.1l-9.9,2.3l-11.3-48.6l23.8-5.5
				C20092.1,9046.5,20094.8,9046.3,20096.9,9046.7L20096.9,9046.7z M20076.8,9058.9l3,13.1l11.5-2.7c2.3-0.5,3.9-1.2,5-2
				c1.8-1.4,2.4-3.4,1.8-6.2c-0.7-2.9-2.1-4.7-4.3-5.2c-1.2-0.3-2.9-0.2-5.1,0.3L20076.8,9058.9L20076.8,9058.9z"/>
		</g>
		<g id="path42">
			<path class="st0" d="M20144.8,9024.3c3.6-0.8,7.1-0.3,10.5,1.2c2.7,1.3,5.1,3,7.1,5.2c2,2.2,3.6,4.4,5,6.7c3.3,5.8,5,11.3,5,16.6
				c0,7.2-3.2,12.6-9.8,16.4l-18.6,10.8l-25-43.2l18.6-10.8C20140.2,9025.7,20142.6,9024.7,20144.8,9024.3L20144.8,9024.3z
				 M20132.1,9040.4l16.3,28.2l8.3-4.8c4.2-2.5,6-6.2,5.2-11.5c-0.4-2.8-1.6-5.8-3.4-9c-2.5-4.4-5.2-7.4-7.9-8.9
				c-2.7-1.6-6.1-1.2-10.3,1.2L20132.1,9040.4L20132.1,9040.4z"/>
		</g>
		<g id="path44">
			<path class="st0" d="M20175.7,8999l8-8.6l48.6,21l-7.7,8.3l-9.7-4.6l-12.5,13.5l5.2,9.5l-7.4,8L20175.7,8999L20175.7,8999z
				 M20198,9020.6l8.6-9.3l-18.6-8.8L20198,9020.6L20198,9020.6z"/>
		</g>
		<g id="path46">
			<path class="st0" d="M20218.1,8940.4l7-13.2l44.1,23.4l-4.6,8.6l-31.1-16.5c-0.8-0.5,26.2,25.1,26.2,25.1l-4.7,9.3
				c0,0-37-7.8-36.1-7.4l31.4,16.6l-4.5,8.6l-44.1-23.4l7.1-13.4l38.1,8.8L20218.1,8940.4L20218.1,8940.4z"/>
		</g>
		<g id="polygon48">
			<polygon class="st1" points="19997.1,8843 19997,8748.2 20038.7,8748.2 20038.7,8842.6 			"/>
		</g>
		<g id="path50">
			<path class="st0" d="M20249.4,8857.8c0-6.8,5.5-12.3,12.3-12.3c6.8,0,12.3,5.5,12.3,12.3c0,6.8-5.5,12.3-12.3,12.3
				C20254.9,8870.1,20249.4,8864.6,20249.4,8857.8L20249.4,8857.8z"/>
		</g>
		<g id="path52">
			<path class="st1" d="M20038.7,8734.3l-105.1,1.4l0,12.7l12.5,0c0,0,13.8,0,13.8,19.5c0,19.4,0.2,182.3,0.2,182.3
				c0,13.9-11.7,14.8-16.2,14.8c-9.4,0-9.4,0-9.4,0l0,13.5l90.1-0.1l0-13.5c0,0-8.3,0-11.5,0c0,0-16.3-1.2-16.3-15
				c0-17-0.1-93-0.1-93l41.8,0.1v179.2c-98.3,0.1-177.7-81.6-177.8-179.9c-0.1-98.3,79.5-178.1,177.8-178.2L20038.7,8734.3
				L20038.7,8734.3z"/>
		</g>
		<g id="path54">
			<path class="st2" d="M20038.7,9036.1c98.3-0.1,178.5-82,178.4-180.3c-0.1-98.3-80.1-177.9-178.4-177.8l0.1,56.3l85.8-1l7.7,61
				l-13.9,0c0,0-3-21-17-31.9c-9.4-7.3-21.2-14.6-41.6-14.6c-11,0-21.1,0.3-21.1,0.3v94.5c3.5,0,17.5-3.9,17.5-20.5
				c0-6.5-0.2-6.6-0.2-6.6l11.6,0l15,81.4l-13.9,0.4c-2.6-9.7-8.8-42.6-30.1-40.4L20038.7,9036.1L20038.7,9036.1z"/>
		</g>
		<g id="path56">
			<path class="st0" d="M19803.7,8857.8c0-6.8,5.5-12.3,12.3-12.3c6.8,0,12.3,5.5,12.3,12.3c0,6.8-5.5,12.3-12.3,12.3
				C19809.2,8870.1,19803.7,8864.6,19803.7,8857.8L19803.7,8857.8z"/>
		</g>
	</g>
</g>
</svg>
