<?xml version="1.0" encoding="utf-8"?>
<!-- Generator: Adobe Illustrator 21.0.2, SVG Export Plug-In . SVG Version: 6.00 Build 0)  -->
<svg version="1.1"
	 id="Capa_1" inkscape:version="0.48.2 r9819" sodipodi:docname="TSG_01.svg" xmlns:cc="http://creativecommons.org/ns#" xmlns:dc="http://purl.org/dc/elements/1.1/" xmlns:inkscape="http://www.inkscape.org/namespaces/inkscape" xmlns:rdf="http://www.w3.org/1999/02/22-rdf-syntax-ns#" xmlns:sodipodi="http://sodipodi.sourceforge.net/DTD/sodipodi-0.dtd" xmlns:svg="http://www.w3.org/2000/svg"
	 xmlns="http://www.w3.org/2000/svg" xmlns:xlink="http://www.w3.org/1999/xlink" x="0px" y="0px" viewBox="0 0 150 198.6"
	 style="enable-background:new 0 0 150 198.6;" xml:space="preserve">
<style type="text/css">
	.st0{fill:#1D1D1B;}
	.st1{fill:#E31F13;}
	.st2{fill:#FFFFFF;}
	.st3{fill:#FFE900;}
</style>
<sodipodi:namedview  bordercolor="#666666" borderopacity="1" fit-margin-bottom="0" fit-margin-left="0" fit-margin-right="0" fit-margin-top="0" gridtolerance="10" guidetolerance="10" id="namedview303" inkscape:current-layer="Capa_1" inkscape:cx="75" inkscape:cy="99.290543" inkscape:pageopacity="0" inkscape:pageshadow="2" inkscape:window-height="1018" inkscape:window-maximized="1" inkscape:window-width="1920" inkscape:window-x="-8" inkscape:window-y="-8" inkscape:zoom="4.0235453" objecttolerance="10" pagecolor="#ffffff" showgrid="false">
	</sodipodi:namedview>
<g>
	<circle class="st0" cx="75" cy="122.3" r="70.8"/>
	<circle class="st1" cx="75" cy="122.3" r="68.8"/>
	<path class="st2" d="M49.8,178.5l3,1.3l-1.2,2.7c-0.6,0.2-2,0.4-3.4-0.3c-2.5-1.1-2.7-3.3-1.9-5.1c0.8-1.7,2.5-3.1,5-2
		c1.1,0.5,2.4,1.5,2,3.3l-1.5-0.4c0.2-1.1-0.6-1.6-1-1.8c-0.6-0.3-1.3-0.4-2,0c-0.5,0.3-0.8,0.8-1.1,1.3c-0.5,1-0.7,2.6,0.9,3.3
		c0.8,0.4,1.7,0.2,1.9,0.1l0.4-0.9l-1.6-0.7L49.8,178.5z"/>
	<rect x="51.1" y="180" transform="matrix(0.326 -0.9454 0.9454 0.326 -133.9167 173.6638)" class="st2" width="7.5" height="1.5"/>
	<path class="st2" d="M58,177.9l3.1,0.8c1.1,0.3,1.4,0.5,1.6,0.6c0.8,0.5,0.9,1.5,0.7,2.2c-0.2,0.8-0.8,1.4-1.6,1.5
		c-0.3,0-0.6,0.1-0.9,0l0,0c0.5,0.5,0.7,0.8,1.2,2.2l0.5,1.7l-1.8-0.4l-0.7-1.9c-0.6-1.5-0.6-1.7-1.6-2l-0.3-0.1l-0.8,3.1l-1.5-0.4
		L58,177.9z M58.7,181.4l1.1,0.3c0.4,0.1,1.1,0.3,1.4,0.2c0.6,0,0.7-0.5,0.8-0.7c0.1-0.3,0-0.6-0.2-0.8c-0.2-0.2-0.4-0.3-1.4-0.5
		l-1.2-0.3L58.7,181.4z"/>
	<path class="st2" d="M68.2,179.8c2.4,0.3,3.4,2.1,3.2,4.3c-0.2,2-1.4,3.7-4.1,3.4c-2.8-0.3-3.4-2.5-3.2-4.3
		C64.4,180.9,65.8,179.5,68.2,179.8z M65.8,185.1c0.2,0.5,0.7,1,1.6,1.1c0.8,0.1,2.1-0.2,2.4-2.4c0.1-0.8,0.1-2.6-1.8-2.8
		c-1.7-0.2-2.2,1.2-2.4,2.3C65.5,184.3,65.7,184.8,65.8,185.1z"/>
	<polygon class="st2" points="72.7,180.4 74.2,180.4 77.3,185.4 77.3,185.4 77.3,180.3 78.7,180.3 78.8,187.8 77.2,187.9 74.2,183 
		74.2,183 74.2,187.9 72.8,187.9 	"/>
	<path class="st2" d="M86.1,187l-0.9-1.6l-3,0.4l-0.4,1.8l-1.6,0.2l1.9-7.9l1.6-0.2l4,7.1L86.1,187z M84.5,184.2l-1.4-2.6l-0.6,2.9
		L84.5,184.2z"/>
	<polygon class="st2" points="89.9,178.5 94.8,176.9 95.2,178.2 91.7,179.2 92.3,180.9 95.3,180 95.7,181.2 92.6,182.2 93.6,185.2 
		92.1,185.7 	"/>
	<path class="st2" d="M103.6,178.8c0.1,0.6,0.4,2.5-1.9,3.5c-1.9,0.8-3.7,0-4.7-2.1c-0.8-1.9-0.6-4,1.6-5c0.4-0.2,1.4-0.6,2.5-0.1
		c0.5,0.2,0.9,0.5,1.2,0.9l-1.2,0.9c-0.5-0.7-1.3-0.8-2-0.5c-1.7,0.8-0.9,2.6-0.7,3.1c0.3,0.6,0.6,1.3,1.1,1.6
		c0.4,0.3,1,0.4,1.6,0.1c0.9-0.4,1-1.3,0.9-2.1L103.6,178.8z"/>
	<circle class="st2" cx="75" cy="122.3" r="55.6"/>
	<path class="st0" d="M77.1,5.5c0.5,0,0.9,0.4,0.9,0.9v4.2c0,0.6,0.2,0.7,0.7,0.7h1.6c0.5,0,0.9,0.4,0.9,0.9v4.1
		c0,0.5-0.4,0.9-0.9,0.9h-1.5c-0.5,0-0.8,0.1-0.8,0.7v3c0,0.8,0.2,1.1,0.9,1.2l8.2,1c0.8,0.1,1.1-0.3,1.3-0.8l0.8-3
		c0.1-0.5-0.1-0.7-0.7-0.9l-1.2-0.3c-0.5-0.1-0.8-0.6-0.7-1.1l1.1-4c0.1-0.5,0.6-0.8,1.1-0.7l1.2,0.3c0.6,0.2,0.9,0.2,1.1-0.5l1.1-4
		c0.1-0.5,0.6-0.8,1.1-0.7l4,1.1c0.5,0.1,0.8,0.6,0.7,1.1l-1,3.9c-0.1,0.6-0.2,0.8,0.3,1l1.6,0.4c0.5,0.1,0.8,0.6,0.7,1.1l-1.1,4
		c-0.1,0.5-0.6,0.8-1.1,0.7l-1.4-0.4c-0.5-0.1-0.8,0-1,0.6l-0.6,2.4c-0.2,0.7-0.2,1.2,0.6,1.5l7.8,2.5c0.8,0.3,1.2,0.1,1.6-0.5
		l1-1.8c0.3-0.5,0.2-0.7-0.2-1l-1.1-0.7c-0.4-0.3-0.6-0.8-0.3-1.3l2-3.6c0.2-0.4,0.8-0.6,1.3-0.4l0.8,0.5c0.4,0.3,0.7,0.2,1.1,0.1
		l6.9-2.8c0.5-0.2,1.2-0.1,1.6,0.1l0.8,0.4c0.4,0.3,0.6,0.8,0.3,1.2L102,42.8c-0.3,0.5-0.7,0.7-1.1,0.9c-0.5,0.2-1.3,0.4-2.3,0.7
		c-4.9,1.5-14.9,4.1-23.5,4.1l0,0c-8.6,0-18.6-2.7-23.5-4.1c-1-0.3-1.8-0.5-2.3-0.7c-0.4-0.2-0.9-0.4-1.1-0.9L31.8,18
		c-0.3-0.4-0.1-1,0.3-1.2l0.8-0.4c0.4-0.3,1.2-0.3,1.6-0.1l6.9,2.8c0.4,0.2,0.7,0.2,1.1-0.1l0.8-0.5c0.4-0.2,1-0.1,1.3,0.4l2,3.6
		c0.2,0.4,0.1,1-0.3,1.3l-1.1,0.7c-0.3,0.2-0.5,0.5-0.2,1l1,1.8c0.3,0.6,0.7,0.8,1.6,0.5l7.8-2.5c0.8-0.3,0.7-0.8,0.6-1.5l-0.6-2.4
		c-0.1-0.6-0.5-0.7-1-0.6l-1.4,0.4c-0.5,0.1-1-0.2-1.1-0.7l-1.1-4c-0.1-0.5,0.2-1,0.7-1.1l1.6-0.4c0.5-0.1,0.4-0.3,0.3-1l-1-3.9
		c-0.1-0.5,0.2-1,0.7-1.1l4-1.1c0.5-0.1,1,0.2,1.1,0.7l1.1,4c0.2,0.6,0.5,0.6,1.1,0.5l1.2-0.3c0.5-0.1,1,0.2,1.1,0.7l1.1,4
		c0.1,0.5-0.2,1-0.7,1.1l-1.2,0.3c-0.6,0.1-0.8,0.4-0.7,0.9l0.8,3c0.1,0.5,0.4,1,1.3,0.8l8.2-1c0.7-0.1,0.9-0.4,0.9-1.2v-3
		c0-0.6-0.3-0.7-0.8-0.7h-1.5c-0.5,0-0.9-0.4-0.9-0.9v-4.1c0-0.5,0.4-0.9,0.9-0.9h1.6c0.5,0,0.6-0.1,0.7-0.7V6.4
		c0-0.5,0.4-0.9,0.9-0.9H77.1z"/>
	<rect x="41.5" y="88.8" transform="matrix(0.7071 -0.7071 0.7071 0.7071 -64.5152 88.8547)" class="st0" width="67" height="67"/>
	<path class="st3" d="M75,78.6c3.3,3.3,40.5,40.5,43.7,43.7c-3.3,3.3-40.5,40.5-43.7,43.7c-3.3-3.3-40.5-40.5-43.7-43.7
		C34.5,119,71.7,81.8,75,78.6z"/>
	<path class="st3" d="M76.2,7.3h-2.4h-0.1v3.4l0,0.1c-0.1,1.5-1,2.3-2.4,2.4l0,0c0,0-0.4,0-0.8,0c0,0.8,0,1.7,0,2.5
		c0.3,0,0.7,0,0.7,0c1.5,0,2.5,1,2.5,2.5l0,3.1l0,0c0,2.3-1.5,2.8-2.4,2.9l0,0l-8.2,1l0.1,0c-1.6,0.3-2.8-0.5-3.2-2.1l-0.8-3l0,0
		c-0.3-1.2,0.2-2.6,2-3l0,0c0,0,0.2-0.1,0.4-0.1c-0.2-0.8-0.4-1.6-0.6-2.4c-0.2,0-0.4,0.1-0.4,0.1c-0.4,0.1-1.3,0.4-2.1-0.1
		c-0.6-0.3-0.9-0.9-1.1-1.6l0,0c0,0-0.6-2.2-0.9-3.2c-0.8,0.2-1.6,0.4-2.4,0.6c0.3,1,0.8,3.1,0.8,3.1l0,0c0.1,0.3,0.1,0.6,0.1,0.9
		c0,0.2,0,0.4-0.1,0.5c-0.1,0.4-0.4,1.2-1.6,1.6l0,0c0,0-0.4,0.1-0.8,0.2c0.2,0.8,0.4,1.6,0.6,2.4c0.3-0.1,0.6-0.2,0.6-0.2l0,0
		c0.8-0.2,1.4-0.2,2,0.2c0.6,0.3,1,0.9,1.2,1.7l0,0l0.7,2.4c0.6,2.2-0.6,3.2-1.6,3.6l0,0L48,29.3l0,0c-2.1,0.6-3.1-0.4-3.6-1.4l0,0
		l-1-1.8c-0.2-0.4-0.4-0.9-0.4-1.3c0-0.8,0.4-1.5,1.2-2l0,0c0,0,0.2-0.1,0.5-0.3c-0.4-0.7-0.8-1.5-1.2-2.2c-0.1,0.1-0.4,0.2-0.6,0.3
		c-0.6,0.3-1.1,0.3-1.7,0c-1.6-0.7-4.9-2.1-6.3-2.8c-0.6-0.3-0.9-0.5-1-0.4c-0.2,0.1-0.1,0.2,0.2,0.6c2,3.1,13.4,20.3,15.3,23.2
		c0.1,0.1,0.2,0.4,0.2,0.4c7-4.1,16.4-6,25.5-6l0,0c9.1,0,18.5,2,25.5,6c0,0,0.2-0.2,0.2-0.4c1.9-2.9,13.3-20.1,15.3-23.2
		c0.3-0.4,0.3-0.5,0.2-0.6c-0.2-0.1-0.4,0.1-1,0.4c-1.5,0.7-4.7,2.1-6.3,2.8c-0.6,0.2-1.1,0.3-1.7,0c-0.2-0.1-0.5-0.3-0.6-0.3
		c-0.4,0.7-0.9,1.5-1.2,2.2c0.2,0.1,0.5,0.3,0.5,0.3l0,0c0.8,0.5,1.2,1.2,1.2,2c0,0.4-0.1,0.9-0.4,1.3l-1,1.8l0,0
		c-0.5,1-1.5,2-3.6,1.4l0,0l-7.8-2.6l0,0c-1.1-0.4-2.2-1.3-1.6-3.6l0.7-2.4l0,0c0.2-0.8,0.6-1.3,1.2-1.7c0.6-0.3,1.2-0.4,2-0.2l0,0
		c0,0,0.3,0.1,0.6,0.2c0.2-0.8,0.4-1.6,0.6-2.4c-0.4-0.1-0.8-0.2-0.8-0.2l0,0c-1.1-0.3-1.5-1.1-1.6-1.6c0-0.2-0.1-0.4-0.1-0.5
		c0-0.3,0.1-0.6,0.1-0.9l0,0c0,0,0.6-2.1,0.8-3.1c-0.8-0.2-1.6-0.4-2.4-0.6c-0.3,1-0.9,3.2-0.9,3.2l0,0c-0.2,0.7-0.6,1.3-1.1,1.6
		c-0.9,0.5-1.7,0.3-2.1,0.1c0,0-0.2-0.1-0.4-0.1c-0.2,0.8-0.4,1.6-0.6,2.4c0.2,0,0.4,0.1,0.4,0.1l0,0c1.7,0.4,2.3,1.8,2,3l0,0
		l-0.8,3c-0.4,1.6-1.6,2.4-3.2,2.1l0.1,0l-8.2-1l0,0c-0.9-0.1-2.4-0.6-2.4-2.9l0,0l0-3.1c0-1.5,1-2.5,2.5-2.5c0,0,0.3,0,0.7,0
		c0-0.8,0-1.7,0-2.5c-0.4,0-0.8,0-0.8,0l0,0c-1.4,0-2.3-0.9-2.4-2.4l0-0.1L76.2,7.3L76.2,7.3z"/>
	<path class="st1" d="M85.4,174l10.9-25.6l0-0.1l10.8-10.8l0,0.1l-14.7,34.5l0,0.1C90.1,172.9,87.8,173.6,85.4,174L85.4,174z"/>
	<path class="st1" d="M100.1,168.7l17.9-42l0-0.1l4.3-4.3l-1.7-1.7l0-0.1l5.2-12.1l0-0.1c0.9,3.3,1.5,6.8,1.8,10.4l0,0.1l-18.8,44
		l0,0.1C106.1,165.1,103.2,167.1,100.1,168.7L100.1,168.7z"/>
	<path class="st1" d="M74.9,169.7l-2.3,5.3l0,0.1c0.8,0,1.6,0.1,2.4,0.1c1.3,0,2.5,0,3.8-0.1l0-0.1l6.7-15.6l0-0.1L75,169.7
		L74.9,169.7L74.9,169.7z"/>
	<path class="st1" d="M66.2,161L61,173.1l0,0.1c1.9,0.5,3.8,0.9,5.7,1.2l0-0.1l3.9-9l0-0.1L66.2,161L66.2,161z"/>
	<path class="st1" d="M61.8,156.7l-6.3,14.7l0,0.1c-1.8-0.7-3.5-1.5-5.2-2.4l0-0.1l7.1-16.6l0-0.1l4.4,4.4L61.8,156.7z"/>
	<path class="st1" d="M45.5,78.5L23,131.2l0,0.1c-0.5-2.9-0.8-5.9-0.8-9c0-1.4,0.1-2.7,0.2-4.1l0-0.1l13.2-30.9l0-0.1
		C38.6,83.8,41.9,80.9,45.5,78.5L45.5,78.5z"/>
	<path class="st1" d="M61,71.4l-13,30.4l0,0.1l-10.8,10.8l0.1-0.1l16.5-38.6l0-0.1C56,73,58.5,72.1,61,71.4L61,71.4z"/>
	<path class="st1" d="M74.2,69.6l-4.5,10.6l0,0.1L58.8,91.2l0-0.1l9-21l0,0C69.9,69.7,72,69.6,74.2,69.6L74.2,69.6z"/>
	<path class="st1" d="M86.1,70.7l-4.5,10.6l-0.1,0.1l-4.3-4.3l0-0.1l3.1-7.2l0,0C82.3,70,84.2,70.3,86.1,70.7L86.1,70.7z"/>
	<path class="st1" d="M48.7,143.6l-8,18.7l0,0.1c1.5,1.3,3.1,2.5,4.7,3.6l0-0.1l7.7-18l0-0.1l-4.3-4.3L48.7,143.6z"/>
	<path class="st1" d="M44.4,139.3l-8.1,18.9l0,0.1c-1.5-1.6-2.8-3.2-4.1-5l0-0.1l7.8-18.3l0-0.1l4.3,4.3L44.4,139.3z"/>
	<path class="st1" d="M31.4,126.2l-6,14l0,0.1c0.9,2.5,2,4.8,3.2,7.1l0-0.1l7.1-16.7l0-0.1L31.4,126.2L31.4,126.2z"/>
	<path class="st1" d="M90.3,90L97,74.3l0-0.1c-1.7-0.8-3.5-1.5-5.3-2.1l0,0l-5.7,13.4l0,0.1L90.3,90L90.3,90z"/>
	<path class="st1" d="M99,98.7l7.9-18.5l0-0.1c-1.5-1.2-3.1-2.3-4.8-3.3l0,0l-7.4,17.4l0,0.1L99,98.7L99,98.7z"/>
	<path class="st1" d="M115.7,88.7l-8,18.7l0,0.1l-4.3-4.3l0-0.1l8.1-18.9l0-0.1C112.9,85.5,114.4,87.1,115.7,88.7L115.7,88.7z"/>
	<path class="st1" d="M123,100.5l-6.7,15.6l0,0.1l-4.3-4.3l0-0.1l7.5-17.7l0-0.1C120.9,96.1,122,98.2,123,100.5L123,100.5z"/>
	<path class="st2" d="M54.4,103.4v27.8c0,1.9,0.9,3.2,1.9,4.4c1.6,1.9,3.9,3.5,8,6c5.3,3.2,10.6,5.2,10.6,5.2l0.2,0.1l0.2-0.1
		c0.1,0,5.3-2,10.6-5.2c4.1-2.4,6.3-4.1,8-6c1-1.1,1.9-2.4,1.9-4.4v-27.8H54.4z"/>
	<path class="st1" d="M60.9,151.9v-12.3l0-0.1c0.9,0.6,2,1.3,3.3,2.1c2.2,1.3,4.3,2.4,6.1,3.2l0,0.1v16.4l0,0.1
		C67.8,158.8,64.5,155.5,60.9,151.9L60.9,151.9z"/>
	<path class="st1" d="M51.5,102.1v40.3l0,0.1c-3.3-3.3-6.5-6.5-9.4-9.4l0-0.1v-21.5l0-0.1C45,108.6,48.2,105.3,51.5,102.1
		L51.5,102.1z"/>
	<path class="st1" d="M79.7,83.3v20l0,0.1h9.4l0-0.1V92.8l0-0.1C85.5,89.1,82.2,85.8,79.7,83.3L79.7,83.3z"/>
	<path class="st1" d="M70.3,83.3v20l0,0h-9.4l0-0.1V92.7l0-0.1C64.5,89.1,67.8,85.8,70.3,83.3L70.3,83.3z"/>
	<path class="st1" d="M89.1,151.9v-12.3l0-0.1c-0.9,0.6-2,1.3-3.3,2.1c-2.2,1.3-4.3,2.4-6.1,3.2v0.1v16.4l0,0.1
		C82.2,158.8,85.5,155.5,89.1,151.9L89.1,151.9z"/>
	<path class="st1" d="M98.5,142.5v-40.3l0-0.1c3.3,3.3,6.5,6.5,9.4,9.4l0,0.1v21.6l0,0.1C105,136,101.8,139.3,98.5,142.5L98.5,142.5
		z"/>
	<path class="st1" d="M64.4,141.1c-4.4-2.6-6.4-4.2-7.8-5.9c-1-1.2-1.8-2.4-1.8-4.1v-27.3h40.4v27.3c0,1.7-0.7,2.9-1.8,4.1
		c-1.5,1.7-3.5,3.3-7.8,5.9c-5.3,3.2-10.6,5.2-10.6,5.2S69.8,144.3,64.4,141.1z"/>
	<path class="st2" d="M89.9,105.7c-1,0-2.2,0-3.5,0l0,0c0.4,0.6,1.1,0.9,1.8,0.9C88.9,106.6,89.6,106.3,89.9,105.7L89.9,105.7z"/>
	<path class="st2" d="M75,144.3l0-1.3c0-1.3-1.2-2.3-2.6-2.3c-1.1,0-2,0.6-2.4,1.4l0,0.1C72.2,143.2,74,144,75,144.3L75,144.3z"/>
	<path class="st2" d="M82.7,140.6c-0.8,0.1-1.5,0.4-1.9,1l-0.1,0.1C81.4,141.4,82.1,141,82.7,140.6L82.7,140.6z"/>
	<path class="st2" d="M90.9,135.2c0.4-0.4,0.8-0.8,1.1-1.1c1-1.1,1.3-1.9,1.3-2.9c0,0,0-1.8,0-3.8l0,0c-1.4,0-2.5,1.1-2.5,2.3
		L90.9,135.2C90.9,135.2,90.9,135.2,90.9,135.2L90.9,135.2z"/>
	<path class="st2" d="M87.2,138c-0.4,0.2-0.7,0.5-1.1,0.7l-0.1,0.1v-0.2c0-1.7-1.4-3.1-3-3.1c-1.7,0-3,1.4-3,3.1l0,3.5l-0.1,0
		c-1.8,0.9-3.3,1.5-4.3,1.9l-0.1,0c0-0.1,0-0.1,0-0.2l0-5.4c0-1.7-1.4-3.1-3-3.1c-1.7,0-3,1.4-3,3.1l0,3l0,0.1
		c-1.3-0.6-2.6-1.4-4-2.2l0,0c-0.2-0.1-0.3-0.2-0.5-0.3l0-0.1l0-0.6c0-1.7-1.4-3.1-3-3.1c-0.6,0-1.2,0.2-1.6,0.5l-0.1,0.1
		c-0.3-0.2-0.6-0.5-0.9-0.7l0-0.2l0-5.4c0-1.3,1.2-2.3,2.6-2.3c1.4,0,2.6,1,2.6,2.3l0,5.4c0,1.7,1.2,3,2.7,3c1.5,0,2.7-1.3,2.7-3
		l0-5.4c0-1.3,1.2-2.3,2.6-2.3s2.6,1,2.6,2.3l0,5.4c0,1.7,1.2,3,2.7,3c1.5,0,2.7-1.3,2.7-3l0-5.4c0-1.3,1.2-2.3,2.6-2.3
		c1.4,0,2.6,1,2.6,2.3l0,5.4C85.5,136.5,86.2,137.6,87.2,138L87.2,138z"/>
	<path class="st2" d="M57.1,132.9c-0.3-0.6-0.5-1.1-0.5-1.7c0,0,0-2.6,0-6.2l0.1,0c1.4-0.1,2.6-1.4,2.6-3l0-5.4
		c0-1.3,1.2-2.3,2.6-2.3c1.4,0,2.6,1,2.6,2.3l0,5.4c0,1.7,1.2,3,2.7,3c1.5,0,2.7-1.3,2.7-3l0-5.4c0-1.3,1.2-2.3,2.6-2.3
		s2.6,1,2.6,2.3l0,5.4c0,1.7,1.2,3,2.7,3c1.5,0,2.7-1.3,2.7-3l0-5.4c0-1.3,1.2-2.3,2.6-2.3c1.4,0,2.6,1,2.6,2.3l0,5.4
		c0,1.7,1.2,3,2.7,3c1.5,0,2.7-1.3,2.7-3l0-5.4c0-1.3,1.1-2.3,2.5-2.3l0,0c0,1.2,0,4.6,0,8.1l0,0c-1.6,0.1-2.9,1.4-2.9,3.1l0,5.4
		c0,1.3-1,2.3-2.2,2.3c-1.2,0-2.2-1-2.2-2.3l0-5.4c0-1.7-1.4-3.1-3-3.1c-1.7,0-3,1.4-3,3.1l0,5.4c0,1.3-1,2.3-2.2,2.3
		c-1.2,0-2.2-1-2.2-2.3l0-5.4c0-1.7-1.4-3.1-3-3.1c-1.7,0-3,1.4-3,3.1l0,5.4c0,1.3-1,2.3-2.2,2.3c-1.2,0-2.2-1-2.2-2.3l0-5.4
		c0-1.7-1.4-3.1-3-3.1c-1.7,0-3,1.4-3,3.1l0,5.4C58.8,131.9,58.1,132.7,57.1,132.9L57.1,132.9z"/>
	<path class="st2" d="M68.9,105.8c-0.4,0.5-1,0.9-1.8,0.9c-0.7,0-1.3-0.3-1.7-0.9l0-0.1C66.3,105.7,67.6,105.7,68.9,105.8
		L68.9,105.8z"/>
	<path class="st2" d="M56.7,106.6c0.7,0,1.3-0.4,1.7-0.9l0,0c-1,0-1.6,0-1.8,0C56.6,105.9,56.6,106.2,56.7,106.6L56.7,106.6z"/>
	<path class="st2" d="M56.6,119.8c0-2.8,0-5.6,0-8.1l0.1,0c1.4-0.1,2.6-1.4,2.6-3l0-3l0-0.1c1.5,0,3.4,0,5.2,0l0,0.1l0,2.9
		c0,1.7,1.2,3,2.7,3c1.5,0,2.7-1.3,2.7-3l0-3l0-0.1c2.6,0,5.1,0,5.1,0l0,0.1l0,3c0,1.7,1.2,3,2.7,3c1.5,0,2.7-1.3,2.7-3l0-2.9l0-0.1
		c1.8,0,3.5,0,5.1,0l0.1,0l0,3c0,1.7,1.2,3,2.7,3c1.5,0,2.7-1.3,2.7-3l0-3l0.1,0c1.2,0,2.1,0,2.5,0c0,0.6,0,1.8,0,3.5l-0.1,0
		c-1.6,0.1-2.9,1.4-2.9,3.1l0,5.4c0,1.3-1,2.3-2.2,2.3c-1.2,0-2.2-1-2.2-2.3l0-5.4c0-1.7-1.4-3.1-3-3.1c-1.7,0-3,1.4-3,3.1l0,5.4
		c0,1.3-1,2.3-2.2,2.3c-1.2,0-2.2-1-2.2-2.3l0-5.4c0-1.7-1.4-3.1-3-3.1c-1.7,0-3,1.4-3,3.1l0,5.4c0,1.3-1,2.3-2.2,2.3
		c-1.2,0-2.2-1-2.2-2.3l0-5.4c0-1.7-1.4-3.1-3-3.1c-1.7,0-3,1.4-3,3.1l0,5.4C58.8,118.8,57.8,119.8,56.6,119.8L56.6,119.8z"/>
	<path class="st2" d="M79.3,105.7c-1.1,0-2.3,0-3.4,0l-0.1,0c0.4,0.6,1.1,0.9,1.8,0.9C78.4,106.6,79,106.3,79.3,105.7L79.3,105.7z"
		/>
</g>
</svg>
