<?xml version="1.0" encoding="UTF-8"?>
<svg width="50px" height="50px" fill="#355c7d" version="1.1" viewBox="0 0 26 26" xmlns="http://www.w3.org/2000/svg">
<g fill="#355c7d">
<path d="m7 0c-0.55078 0-1 0.44922-1 1v3c0 0.55078 0.44922 1 1 1s1-0.44922 1-1v-3c0-0.55078-0.44922-1-1-1zm12 0c-0.55078 0-1 0.44922-1 1v3c0 0.55078 0.44922 1 1 1s1-0.44922 1-1v-3c0-0.55078-0.44922-1-1-1zm-16 2c-1.6562 0-3 1.3438-3 3v18c0 1.6562 1.3438 3 3 3h20c1.6562 0 3-1.3438 3-3v-18c0-1.6562-1.3438-3-3-3h-2v2c0 1.1055-0.89453 2-2 2s-2-0.89453-2-2v-2h-8v2c0 1.1055-0.89453 2-2 2s-2-0.89453-2-2v-2zm-1 7h22v14c0 0.55078-0.44922 1-1 1h-20c-0.55078 0-1-0.44922-1-1zm7 3v2.3125h4.8125l-3.7812 7.6562h3.4688l3.4688-8.4375v-1.5312z" fill="#355c7d"/>
</g>
</svg>
