<svg id="Capa_1" data-name="Capa 1" xmlns="http://www.w3.org/2000/svg" viewBox="0 0 318 290"><title>Copa Corregida</title><path d="M41.07,236.32l-28.74-5.79a72,72,0,0,0,32.22,35.86Z" style="fill:#f67280"/><path d="M113.31,141.29l-.16-1a72,72,0,0,0-48.63-7.39l-.43.87L86,155.43Z" style="fill:#f67280"/><path d="M31.86,149A71.42,71.42,0,0,0,8.12,190.56l1.12,1.1,27.33-14.14Z" style="fill:#f67280"/><path d="M132.17,251.11l-25.89-1.94-9.68,23.61A72,72,0,0,0,132.17,251.11Z" style="fill:#f67280"/><path d="M140.65,167.12l-2.5-.38-13.8,27.5,21.89,21.62,3.38-1.75A71.42,71.42,0,0,0,140.65,167.12Z" style="fill:#f67280"/><polygon points="66.14 225.32 62.05 198.77 85.21 186.26 103.61 205.09 91.82 229.23 66.14 225.32" style="fill:#f67280"/><path d="M217,143.57v0c25.13-15.06,49.6-53.27,47.31-110.92H149.9c0,.78-.1,5.51-.13,6.29,0,1.62-.08,3.29-.08,4.95q0,4.69.24,9.26c2.48,44.17,22.31,80.11,48.39,90.14l.33-.14v89.17l-.51-.53-22.87,24,1.87,5.68,31.92,1.33v-1.33H217v-1.12l25.88.53C211.08,227.15,217,253.86,217,143.57Z" style="fill:#f67280"/><rect x="162.78" y="262.78" width="87.09" height="19.45" style="fill:#f67280"/><path d="M100.75,112.83c-5.65-.86-7,7.69-1.3,8.55S106.41,113.69,100.75,112.83Z" style="fill:#355c7d"/><path d="M14.82,146.74a84.94,84.94,0,0,1,68.6-28.66,3.89,3.89,0,1,0,.44-7.76A92.71,92.71,0,0,0,9,141.58a3.88,3.88,0,1,0,5.81,5.16Z" style="fill:#355c7d"/><path d="M139.61,158.46A75.63,75.63,0,0,0,33.87,142.38C-19.85,181.92.44,267.88,67.34,278.06,133.68,288.12,179.4,212.51,139.61,158.46Zm-32.36,84.36L95.08,228.25l11.2-22.32,19.51-6.81L144.93,218a67.25,67.25,0,0,1-13.07,27.46ZM63.31,221l-4-24.56a2.48,2.48,0,0,0,.23-.37l22.05-11.41,17.67,17.45a3.86,3.86,0,0,0-.1.82l-11,21.84Zm83-12.46-14.86-14.68,9.16-18.26A67.2,67.2,0,0,1,146.34,208.5Zm-13-45.44c1,1.35,1.91,2.73,2.8,4.14l-12.21,24.34-18,6.28L86.4,178.51,89.52,158,114,145.3A67.76,67.76,0,0,1,133.35,163.06Zm-27.82-22.12L86.7,150.68,71.64,135.81A67.87,67.87,0,0,1,105.53,140.94Zm-43.3-3.5L81.84,156.8l-3.12,20.54L56,189.1,40.4,177.56c0-.95-4.19-26.11-4.35-27A67.72,67.72,0,0,1,62.23,137.44Zm-33,19.41,3.05,18.52-19,9.81A67.13,67.13,0,0,1,29.22,156.85ZM11.38,194.93l23.2-12,16.61,12.3L55.7,222.6,40.32,232.2c-1.15-.23-23.9-5-25.06-4.8A67.37,67.37,0,0,1,11.38,194.93Zm7.81,41,18.34,3.69,2.24,19.32A67.92,67.92,0,0,1,19.19,235.88Zm29,28-3-25.6L61,228.47l27.69,4.21,11.44,13.7L91,270.05A68.17,68.17,0,0,1,48.18,263.91Zm52,3.76,6.59-17.08,18.51,2A67.83,67.83,0,0,1,100.21,267.66Z" style="fill:#355c7d"/><path d="M293.23,281.25c0,5.44,8.23,5.44,8.23,0S293.23,275.8,293.23,281.25Z" style="fill:#355c7d"/><path d="M238.06,102.25a3.89,3.89,0,0,0,3.57-2.35A129.59,129.59,0,0,0,251.24,39c-.43-5.11-8.18-4.47-7.74.65.23,2.72.65,7,.65,7,0,18.22-3.34,35.58-9.65,50.19A3.89,3.89,0,0,0,238.06,102.25Z" style="fill:#355c7d"/><path d="M232.44,113.57c4.82,0,4.82-7.29,0-7.29a3.65,3.65,0,0,0,0,7.29Z" style="fill:#355c7d"/><path d="M267.84,8.56c0-4.82-7.29-4.82-7.29,0S267.84,13.38,267.84,8.56Z" style="fill:#355c7d"/><path d="M143.82,12.44h105.7c5.13,0,5.14-7.77,0-7.77H143.82a3.89,3.89,0,0,0,0,7.77Z" style="fill:#355c7d"/><path d="M314.45,20.84a3.89,3.89,0,0,0-3.86-3.42h-17.5a14.73,14.73,0,0,0-14.71,14.71,12.5,12.5,0,0,1-9.14,12A168.4,168.4,0,0,0,268,23.93a3.89,3.89,0,0,0-3.86-3.43H139.57a3.88,3.88,0,0,0-3.86,3.43,169.3,169.3,0,0,0-1.21,20,12.5,12.5,0,0,1-8.43-11.8,14.73,14.73,0,0,0-14.71-14.71H93.85A3.88,3.88,0,0,0,90,20.84c-.11.92-2.59,22.9,6.53,48.81,8.44,24,28.81,55.8,78,71.37.06,0,.12,0,.18,0a52,52,0,0,0,11.3,6c0,80.77,1.55,79.8-4.63,86-20.26,20.08-21.38,20.08-21.26,24.57-11.52,0-9.43-.92-9.43,19.79H122c-5.13,0-5.14,7.77,0,7.77H282.26c5.13,0,5.14-7.77,0-7.77H253.4c0-21.43,1.61-19.79-9.73-19.79.12-4.48-1-4.45-21.25-24.56a15.66,15.66,0,0,1-4.64-11.15V147a52,52,0,0,0,11.07-5.83A3.82,3.82,0,0,0,230,141c49.14-15.56,69.51-47.4,78-71.37C317,43.74,314.56,21.76,314.45,20.84Zm-171.4,7.43H260.68c5.19,52.57-16.1,102.5-47.93,112.26l-.17.07-.38.16-.32.18-.31.21-.3.25-.25.26c-.09.1-.17.19-.24.29s-.14.2-.2.31-.12.21-.18.33-.1.23-.14.34a3.83,3.83,0,0,0-.11.37c0,.11-.05.23-.07.35a3.84,3.84,0,0,0,0,.42c0,.06,0,.12,0,.18v27l-16.28,10.16V144.25c0-.06,0-.12,0-.18a3.79,3.79,0,0,0,0-.42c0-.12,0-.23-.07-.35s-.07-.25-.11-.37-.09-.23-.14-.34-.11-.22-.18-.33-.13-.21-.2-.31a3.82,3.82,0,0,0-.24-.29l-.25-.26-.3-.25-.31-.21-.32-.18-.38-.16-.17-.07C159.38,130.84,137.83,81.2,143.05,28.27Zm67,158.5-16.28,10.16v-6.39L210,180.38Zm-16.28,19.32L210,195.93v6.39l-16.28,10.16ZM97.48,25.19h13.88a7,7,0,0,1,6.94,6.94A20.28,20.28,0,0,0,134.7,52c1.46,30.08,10.93,57.11,25.31,75.12C115.94,106.91,95.76,66.43,97.48,25.19ZM245.63,277.36H158.4v-12h87.23Zm-9.71-20-.18.23H168a1.45,1.45,0,0,0-.11-.28c19.51-19.35,25.85-23,25.85-35.66L210,211.47C210,234.91,209,230.66,235.92,257.34Zm7.37-129.71c14.6-18,24.24-45.19,25.74-75.52a20.27,20.27,0,0,0,17.12-20,7,7,0,0,1,6.94-6.94H307C308.68,66.39,288.61,107.36,243.29,127.64Z" style="fill:#355c7d"/><path d="M174.25,61l-13.08-2.75a3.89,3.89,0,1,1,1.6-7.6l13.08,2.75a3.89,3.89,0,0,1-1.6,7.6Z" style="fill:#fff"/><path d="M163.46,78.24a3.88,3.88,0,0,1-.64-7.72l13.73-2.32a3.88,3.88,0,1,1,1.29,7.66l-13.73,2.32A3.8,3.8,0,0,1,163.46,78.24Z" style="fill:#fff"/><path d="M170.33,99.57a3.89,3.89,0,0,1-2-7.24l11.51-6.74a3.88,3.88,0,0,1,3.93,6.7L172.29,99A3.86,3.86,0,0,1,170.33,99.57Z" style="fill:#fff"/></svg>