<?xml version="1.0" encoding="UTF-8"?>
<svg width="50px" height="50px" version="1.1" viewBox="0 0 48 48" xmlns="http://www.w3.org/2000/svg">
<path d="m43.609 20.082h-1.6094v-0.082031h-18v8h11.305c-1.6523 4.6562-6.082 8-11.305 8-6.6289 0-12-5.3711-12-12s5.3711-12 12-12c3.0586 0 5.8438 1.1523 7.9609 3.0391l5.6562-5.6562c-3.5703-3.3281-8.3477-5.3828-13.617-5.3828-11.047 0-20 8.9531-20 20s8.9531 20 20 20 20-8.9531 20-20c0-1.3398-0.13672-2.6484-0.39062-3.918z" fill="#FFC107"/>
<path d="m6.3047 14.691l6.5742 4.8203c1.7773-4.4023 6.082-7.5117 11.121-7.5117 3.0586 0 5.8438 1.1523 7.9609 3.0391l5.6562-5.6562c-3.5703-3.3281-8.3477-5.3828-13.617-5.3828-7.6836 0-14.344 4.3359-17.695 10.691z" fill="#FF3D00"/>
<path d="m24 44c5.1641 0 9.8594-1.9766 13.41-5.1914l-6.1914-5.2383c-2.0078 1.5195-4.5039 2.4297-7.2188 2.4297-5.2031 0-9.6172-3.3164-11.281-7.9453l-6.5234 5.0234c3.3086 6.4766 10.031 10.922 17.805 10.922z" fill="#4CAF50"/>
<path d="m43.609 20.082h-1.6094v-0.082031h-18v8h11.305c-0.79297 2.2383-2.2344 4.1641-4.0898 5.5703h0.003906l6.1914 5.2383c-0.4375 0.39453 6.5898-4.8086 6.5898-14.809 0-1.3398-0.13672-2.6484-0.39062-3.918z" fill="#1976D2"/>
</svg>
