<?xml version="1.0" encoding="utf-8"?>
<!-- Generator: Adobe Illustrator 21.1.0, SVG Export Plug-In . SVG Version: 6.00 Build 0)  -->
<svg version="1.1" id="Capa_1" xmlns="http://www.w3.org/2000/svg" xmlns:xlink="http://www.w3.org/1999/xlink" x="0px" y="0px"
	 viewBox="0 0 3987.2 1049.6" style="enable-background:new 0 0 3987.2 1049.6;" xml:space="preserve">
<style type="text/css">
	.st0{fill:#FFFFFF;}
	.st1{fill:#E7BD94;}
	.st2{fill:#070308;}
	.st3{opacity:6.999999e-02;fill:#070308;enable-background:new    ;}
	.st4{opacity:8.000000e-02;fill:#070308;enable-background:new    ;}
</style>
<g>
	<path class="st0" d="M1960.3,313.6c-55.6-29.9-124-36.1-171.7-36.1c-84.5,0-143.5,7.4-171.2,11.8c-2.1,0.3-4,1.3-5.5,2.8
		c-2.3,2.3-2.7,4.7-3,6.5c-0.2,1-0.5,3-1,6.9c-1,7-3.2,22.1-7.7,53.8c-8,56-24.9,175.7-60.2,428.4c-0.4,2.9,0.5,5.8,2.4,7.9
		c1.9,2.2,4.7,3.4,7.5,3.4h176.9c5,0,9.2-3.7,9.9-8.6l16.2-117.4c40.3,2.4,81.1-1.5,118.7-11.3c45-11.8,84.1-32,112.9-58.5
		c41.3-38,62.3-87.7,62.3-147.6c0-33.1-8.2-62.3-24.3-87C2008,346.5,1987.1,328,1960.3,313.6z M1849.2,471.6
		c0,13.1-4.1,23.3-12.6,31.2c-14.7,13.7-40.7,18.3-63.5,18.2l11.9-85.3c16.5-0.8,40.8,1.9,54.3,13.6
		C1846,455.1,1849.2,462.4,1849.2,471.6z"/>
	<path class="st0" d="M2525.7,668.6c-18.2,4.4-24.2,1.3-25.9-0.3c-3.5-3.2-3.1-11.1-2.5-15.6l34.9-248.1c0.4-2.9-0.5-5.8-2.4-8
		c-1.9-2.2-4.7-3.4-7.5-3.4h-176.1c-5,0-9.2,3.7-9.9,8.7l-2.1,15.6c-22.7-22.7-50.7-33.7-84.8-33.7c-54.5,0-105.4,25.6-143.3,72
		c-37.5,45.9-58.1,107.1-58.1,172.4c0,49.4,12.7,94.3,35.7,126.5c25.2,35.2,60.9,53.9,103.1,53.9c47.7,0,87.5-17.1,121.5-52.1
		c7.4,13.6,18.1,25.1,31.7,33.7c19.2,12.2,43.1,18.4,71.1,18.4c37.1,0,79.3-5.8,105.1-14.3c3.6-1.2,6.2-4.3,6.7-8.1l15.3-106.3
		c0.5-3.3-0.7-6.6-3.2-8.8C2532.4,668.7,2529,667.8,2525.7,668.6z M2324.5,585.2c0,16.9-5.8,33.8-15.8,46.2
		c-9.8,12.1-22.3,18.8-35.3,18.8c-22.8,0-32.9-22.4-32.9-44.6c0-35.2,23.4-65,51.1-65C2314.2,540.6,2324.5,563.7,2324.5,585.2z"/>
	<path class="st0" d="M2924.2,387.7c-37.1-8.9-69.8-2.2-97.2,20c-8,6.5-14.9,13.8-20.9,21.2l3.4-24.3c0.4-2.9-0.5-5.8-2.4-7.9
		c-1.9-2.2-4.6-3.4-7.5-3.4h-165.2c-5,0-9.2,3.7-9.9,8.6l-53.9,385.7c-0.4,2.9,0.5,5.8,2.4,7.9s4.7,3.4,7.5,3.4h176.9
		c5,0,9.2-3.7,9.9-8.6l20.4-144.1c9.7-67.2,47.3-96.7,111.7-87.6c2.6,0.4,5.3-0.3,7.4-1.9c2.1-1.6,3.5-4,3.9-6.6l21.1-151.4
		C2932.5,393.7,2929.2,388.9,2924.2,387.7z"/>
	<path class="st0" d="M3491,241.1h-180.5c-5,0-9.2,3.7-9.9,8.6l-16,115c-0.4,2.9,0.5,5.8,2.4,7.9c1.9,2.2,4.6,3.4,7.5,3.4H3475
		c5,0,9.2-3.7,9.9-8.6l16-115c0.4-2.9-0.5-5.8-2.4-7.9C3496.6,242.3,3493.9,241.1,3491,241.1z"/>
	<path class="st0" d="M3469.8,668.6c-15.8,3.6-24.4,2.2-27.1-0.4c-2.2-2.1-2-6.7-1.5-10.2v-0.1l35.7-253.3c0.4-2.9-0.5-5.8-2.4-8
		c-1.9-2.2-4.7-3.4-7.5-3.4h-270.2l10.8-78.1c0.4-2.9-0.5-5.8-2.4-7.9c-1.9-2.2-4.6-3.4-7.5-3.4h-176.1c-5,0-9.2,3.7-9.9,8.6
		l-11.2,80.9h-29.1c-5,0-9.2,3.7-9.9,8.6l-18.2,127.4c-0.4,2.9,0.4,5.8,2.3,8c1.9,2.2,4.7,3.4,7.6,3.4h26.3L2960,677
		c-6,41,0.7,73.1,19.9,95.2c21.2,24.4,56,36.3,106.5,36.3c51.4,0,98.2-12.1,124.7-23.4c3.2-1.4,5.5-4.3,6-7.8l14.6-104.8
		c0.4-3.2-0.7-6.4-3-8.6c-2.3-2.2-5.6-3.2-8.7-2.6c-1.2,0.2-2.5,0.5-3.8,0.7c-7,1.4-14.3,2.8-25.7,2.8c-6.1,0-17.4-1.1-23.6-8.3
		c-4.2-4.9-5.7-12.2-4.3-21.8l13.3-94h84.7l-20.3,148c-4.6,34,2.8,63.2,21.5,84.6c20.1,23,52.3,35.2,93.2,35.2
		c37.1,0,79.3-5.8,105.1-14.3c3.6-1.2,6.2-4.3,6.7-8.1l15.3-106.3c0.5-3.3-0.7-6.5-3.1-8.8C3476.4,668.7,3473.1,667.9,3469.8,668.6z
		"/>
	<path class="st0" d="M3951,632.7h-110.5c41.2-28.9,72.7-54.2,97-82.7c33.9-39.7,49.7-81.3,49.7-130.8c0-52.3-19.3-90.5-57.4-113.7
		c-31-18.9-74.5-28-133.1-28c-68.3,0-162.8,24.3-205.2,40.7c-4,1.5-6.5,5.4-6.4,9.7l5.1,138.3c0.1,3.3,1.8,6.2,4.5,8
		c2.7,1.8,6.1,2.1,9.2,0.9c25.4-10.2,78.3-31.3,128-31.3c46.6,0,50.4,9.7,50.4,20.6c0,39-67.2,77.2-152.2,125.7
		c-27.4,15.6-55.8,31.8-85.4,49.9c-2.6,1.6-4.3,4.2-4.7,7.1l-19.7,140.5c-0.4,2.9,0.5,5.8,2.4,7.9c1.9,2.2,4.7,3.4,7.5,3.4h400.4
		c5,0,9.2-3.7,9.9-8.6l20.4-146.3c0.4-2.9-0.5-5.8-2.4-7.9C3956.6,633.9,3953.9,632.7,3951,632.7z"/>
</g>
<g>
	<g>
		<path class="st1" d="M607.2,995.1l-206-210.5c-34.7-45-97-56.4,0-155.5l397.2-406c13.8-14.1,36.3-14.1,50.1,0L1150.7,532
			c17,17.4,17,45.8,0,63.2l-391.3,400C717.6,1037.9,649.1,1037.9,607.2,995.1z"/>
		<path class="st2" d="M683.3,1049.6c-33.1,0-66.3-12.9-91.5-38.7L385,799.4l-0.8-1c-5.9-7.7-13.3-14.7-20.4-21.4
			c-16.7-15.9-35.7-34-36.2-62.6c-0.5-28.2,17.5-59.3,58.2-101l397.2-406c10.8-11,25.1-17.1,40.4-17.1s29.7,6.1,40.4,17.1
			L1166,516.3c25.5,26.1,25.5,68.6,0,94.7l-391.3,400C749.6,1036.7,716.4,1049.6,683.3,1049.6z M417.5,769.8l205.1,209.6
			c33.5,34.2,87.9,34.2,121.4,0l391.3-400c8.6-8.7,8.6-23,0-31.7L833.1,238.8c-2.5-2.6-6-4-9.6-4c-3.7,0-7.1,1.4-9.6,4l-397.2,406
			c-37.9,38.8-45.7,58.8-45.5,68.7c0.2,9.3,8.6,17.8,22.3,30.8C401.1,751.7,409.8,759.9,417.5,769.8z"/>
	</g>
	<g>
		<path class="st0" d="M1198,584.9L808.8,187c-31.3-32-31.3-84.3,0-116.3l21-21.4c31.3-32,82.5-32,113.8,0l389.2,397.9
			c31.3,32,31.3,84.3,0,116.3l-21,21.4C1280.5,616.9,1229.3,616.9,1198,584.9z"/>
		<path class="st2" d="M1254.9,626.4c-29.1,0-58.2-11.3-80.3-33.9L801.4,211c-21.4-21.8-33.1-51-33.1-82.1s11.8-60.2,33.1-82.1
			l5-5.1c21.4-21.8,49.9-33.9,80.3-33.9s58.9,12,80.3,33.9l373.2,381.5c44.3,45.3,44.3,118.9,0,164.1l-5,5.1
			C1313,615.1,1283.9,626.4,1254.9,626.4z M1205.4,561c27.3,27.9,71.7,27.9,99,0l5-5.1c27.3-27.9,27.3-73.3,0-101.2L936.2,73.2
			c-13.1-13.4-30.7-20.8-49.5-20.8s-36.3,7.4-49.5,20.8l-5,5.1c-13.1,13.4-20.4,31.4-20.4,50.6s7.2,37.2,20.4,50.6L1205.4,561z"/>
	</g>
	<polygon class="st3" points="263.4,483.8 509.2,726.8 418.8,802.6 183.4,568.8 	"/>
	<path class="st4" d="M492.2,833.1l124.1-133.9c8.3-9,19.9-14.1,32-14.1l0,0c14.7,0,28.4,7.5,36.6,20
		C716.1,753,805.1,864,913.7,775.9c135.8-110-219.5-229.2-226.3-233.8c-5.3-3.6-89.1,10-125.7,16.1c-10.8,1.8-20.6,7.7-27.4,16.5
		L427.7,712.5c-2.2,2.8-4,5.9-5.5,9.1l-19.6,43.7c-7.7,17.1-4.2,37.3,8.9,50.7l17.7,18.1C446.6,851.9,475.2,851.5,492.2,833.1z"/>
	<g>
		<path class="st1" d="M817.7,746L708.1,631.9c-36.6-29.2-88.8-26.3-122,6.8C519.4,705.2,449,825.9,401.3,784.6
			c-2.3-2-113.8-121-115.9-123.2L214,585.5c-13.8-14.1-13.8-37.1,0-51.2l302.2-308.9c17-17.4,44.8-17.4,61.8,0l301.6,308.5
			c12.4,12.6,25,25.1,38.6,36.3C1018.7,652.8,922.7,807.3,817.7,746z"/>
		<path class="st2" d="M422.3,815.3c-14.9,0-26.6-6.3-35.1-13.7c-1.4-1.2-2.9-2.5-112.6-119.5c-2.9-3.1-4.6-4.9-4.9-5.2l-71.3-75.8
			c-10.7-11-16.5-25.6-16.5-41.2c0-15.6,5.9-30.3,16.7-41.3l302.2-308.9c25.5-26.1,67.1-26.1,92.6,0L895,518.1
			c11.3,11.6,23.7,23.8,36.9,34.7c28.8,23.7,46,54.4,49.8,88.8c3.4,30.6-4.3,61.8-21.7,87.8c-16.1,24.1-39.1,41.5-64.9,48.9
			c-29,8.3-59.5,3.8-88.2-12.9l-2.6-1.5L693.6,648.6c-27.9-21.4-67.3-18.9-92.4,6.1c-17.3,17.2-35.4,38.9-52.9,59.9
			c-25.6,30.6-49.7,59.6-73.7,78.5C454.1,809.4,436.7,815.3,422.3,815.3z M415.9,768.1c3.4,2.8,10.4,7,32-10.1
			c20.4-16.2,44.2-44.7,67.3-72.3c18.2-21.8,36.9-44.3,55.7-62.9c19.9-19.8,46.1-31.5,73.8-33.1c27.7-1.5,55,7.2,76.9,24.7l1.1,0.9
			L831,728.1c41.7,22.8,76.1,1.7,93.1-23.8c20.9-31.4,23.7-81.3-19.4-116.8c-14.8-12.2-28.1-25.4-40.4-37.9L562.5,241.2
			c-8.6-8.7-22.5-8.7-31,0L229.4,550.1c-2.5,2.6-3.9,6.1-3.9,9.9s1.4,7.2,3.9,9.9l0.3,0.3l71.4,75.9c0.2,0.3,2,2.1,4.9,5.3
			C393.3,744.3,412.6,764.7,415.9,768.1z M415.4,767.6c0.1,0,0.1,0.1,0.2,0.1C415.5,767.7,415.4,767.7,415.4,767.6z"/>
	</g>
	<g>
		<path class="st0" d="M429.9,41.4L40.6,439.3c-31.3,32-31.3,84.3,0,116.3l21,21.4c31.3,32,82.5,32,113.8,0l389.2-397.9
			c31.3-32,31.3-84.3,0-116.3l-21-21.4C512.3,9.4,461.2,9.4,429.9,41.4z"/>
		<path class="st2" d="M118.5,618.5c-29.1,0-58.1-11.3-80.3-33.9l-5-5.1c-44.3-45.3-44.3-118.9,0-164.1L406.4,33.9
			C427.8,12.1,456.3,0,486.7,0c30.4,0,58.9,12,80.3,33.9l5,5.1c44.3,45.3,44.3,118.9,0,164.1L198.8,584.6
			C176.6,607.2,147.5,618.5,118.5,618.5z M486.7,44.5c-18.8,0-36.3,7.4-49.5,20.8L64,446.8c-27.3,27.9-27.3,73.3,0,101.2l5,5.1
			C82.6,567,100.6,574,118.5,574c17.9,0,35.8-7,49.5-20.9l373.2-381.5c27.3-27.9,27.3-73.3,0-101.2l-5-5.1
			C523.1,51.9,505.5,44.5,486.7,44.5z"/>
	</g>
	<path class="st3" d="M120.4,357.7c0,0-14.2,165.2,143,126.1L159.3,594.5L74,584.6l-25.4-20.8l-25.7-52.2v-59.4L120.4,357.7z"/>
	<path class="st3" d="M1256.5,370.8c0,0,14.2,165.2-143,126.1l104.1,110.7l85.3-9.9l25.4-20.8l25.7-52.2v-59.4L1256.5,370.8z"/>
	<g>
		<ellipse class="st0" cx="890" cy="126" rx="48.5" ry="49.6"/>
		<g>
			<path class="st2" d="M890.2,74.8c-25.2,0-46.2,19.2-49.6,44l0,0c0,0.1,0,0.1,0,0.2c-0.3,2.3-0.5,4.6-0.5,7
				c0,28.2,22.5,51.2,50.1,51.2s50.1-23,50.1-51.2C940.3,97.8,917.9,74.8,890.2,74.8z M911.1,159.7c-2.3-0.6-7.6-2.3-11.2-5.3
				c0.4-7.2,1.1-19.6,1.2-21.6c2.9-2,10.8-7.3,13.6-10c3.9,1.6,11.5,4.8,15.4,7.1c1,5,0.2,10.8-0.4,14.2
				C924.9,152.7,914.4,158.2,911.1,159.7z M881.4,121.5c-6,2.6-16.1,6.5-18.6,7.5c-2.2-1.6-7.2-5.4-9.3-8.1
				c-0.1-10.5,3.6-19.9,4.8-22.6c3.2-2.1,10.5-6.7,15.6-7.6c2.4,1.8,8.7,6.8,12.8,11.6C885.6,105.9,882.2,117.8,881.4,121.5z
				 M845.7,128.1c-0.8-0.9-1.6-2.1-2.2-3.8c0.4-11,4.4-21,10.9-28.9l1.7,2.9c-1.4,3.5-4.4,11.9-4.6,21.6
				C850,121.5,847.2,124.8,845.7,128.1z M887.9,100.7c-4.1-4.8-10.2-9.6-12.7-11.5c1.3-2,6.2-6.8,6.2-6.8c0.1,0,13.9-2.1,23.7,1
				c2.9,1.6,7.5,4.5,9.2,7.2c-2.3,3.3-5.3,7.6-7.3,10.3C903.4,100.1,891.8,99.5,887.9,100.7z M930.5,127.8c-4.5-2.5-12-5.6-14.8-6.8
				c-0.9-2.5-5.4-15.3-7.1-18.9c2.4-3.1,5.7-7.9,7.3-10.3c2.5,1.3,10.6,6.2,10.6,6.2c0.1,0.1,6.3,10.5,8.2,23.6
				C934.7,121.7,931.7,126.5,930.5,127.8z M936.5,120.8c-1.1-7-3.2-13.1-5.1-17.4c2.8,5.3,4.7,11.3,5.3,17.6
				C936.7,120.9,936.6,120.9,936.5,120.8z M903.7,80.2c-0.1,0.2-0.1,0.4-0.2,0.5c-9.9-2.3-21.8-0.5-22.3-0.4l0,0l-2.7-0.6
				c3.8-1,7.7-1.6,11.8-1.6C894.9,78.2,899.4,78.9,903.7,80.2z M845.3,130.5c0.3,2.9,1.7,11.9,5.8,17.3c0.1,1.1,0.2,3,0.4,5
				c-4.6-7-7.5-15.3-8-24.2C844.1,129.4,844.8,130,845.3,130.5z M854,156.2c-0.4-2-0.7-4.7-0.8-7.1c2,0.3,6.4,0.8,10-0.2
				c0,0-0.2-13.9,0.4-18.2c2.7-1,12.4-4.8,18.4-7.4c2.9,2.7,13.5,8.7,17.1,10c-0.2,3.1-0.7,13.7-1.1,20.4c-1.6,1.2-6.2,4.3-15.4,6.8
				c-6.7-1.9-19.6-13.4-19.7-13.6l0.3,1.9l-1.3,0.1c0.5,0.4,12,10.6,19.2,13.2c0.6,2,1.9,6.1,2.8,8.2c-3.2,1.1-6.7,1-9,0.7
				C866.6,168.2,859.4,163,854,156.2z M881.8,173c1.4-0.3,2.9-0.7,4.3-1.3c3.3,0.1,10.9,0.1,14.8-0.4c0.4,0.3,1.1,0.6,2,0.7
				c-4,1.2-8.3,1.8-12.7,1.8C887.4,173.8,884.6,173.6,881.8,173z M911,168.8c-4,1.3-6.4,1.4-7.7,1.2c1.9-1.8,5.7-5.5,7.7-8
				c1.9-0.8,12.9-5.9,19.1-14.8l1.8,0.3C927.4,156.8,920,164.2,911,168.8z"/>
			<path class="st0" d="M885.5,114c0,0,3.2-11.1,4.7-11.3c3.3-0.4,14.9,0,16.1,1c1.2,1,5.2,11.3,5.2,11.3s-5.4-10-6.1-10.1
				c-5.2-0.7-14.2-0.9-15.2,0.7C886.1,112,886.7,112.6,885.5,114z"/>
			<path class="st0" d="M889.1,160.8c0.6-0.1,8.7-4.4,9.6-4c0.9,0.5,7.6,3.5,7.6,3.5s-6.4-2.1-7.9-1.9S889.1,160.8,889.1,160.8z"/>
			<path class="st0" d="M847.8,127.5c0,0,3.4-5.9,4.1-5.4c0.7,0.5,9.1,7.1,9.3,8c0.2,0.8,0.7,6.2,0.7,6.2s-1.5-5.5-2-6.1
				c-0.9-1.2-7.8-6.3-8.3-6.2C851,124.1,847.8,127.5,847.8,127.5z"/>
		</g>
	</g>
	<g>
		<ellipse class="st0" cx="481.1" cy="124.4" rx="48.5" ry="49.6"/>
		<g>
			<path class="st2" d="M430.7,124.4c0,28.2,22.5,51.2,50.1,51.2s50.1-23,50.1-51.2c0-2.4-0.2-4.7-0.5-7c0-0.1,0-0.1,0-0.2l0,0
				c-3.4-24.8-24.4-44-49.6-44C453.2,73.2,430.7,96.2,430.7,124.4z M441.3,142.5c-0.6-3.4-1.4-9.2-0.4-14.2
				c3.9-2.3,11.5-5.5,15.4-7.1c2.9,2.7,10.7,8,13.6,10c0.1,2,0.8,14.4,1.2,21.6c-3.6,2.9-8.9,4.7-11.2,5.3
				C456.6,156.6,446.2,151.1,441.3,142.5z M484.4,100.7c4.1-4.9,10.4-9.8,12.8-11.6c5.1,0.9,12.4,5.5,15.6,7.6
				c1.2,2.7,4.8,12.1,4.8,22.6c-2.1,2.7-7.1,6.5-9.3,8.1c-2.6-1-12.6-4.9-18.6-7.5C488.8,116.2,485.5,104.4,484.4,100.7z
				 M519.5,118.3c-0.1-9.7-3.1-18.1-4.6-21.6l1.7-2.9c6.5,7.9,10.5,17.9,10.9,28.9c-0.6,1.7-1.5,2.9-2.2,3.8
				C523.9,123.3,521,119.9,519.5,118.3z M464,99.2c-2-2.7-5.1-7-7.3-10.3c1.7-2.7,6.4-5.6,9.2-7.2c9.8-3,23.5-1,23.7-1
				c0,0,4.9,4.8,6.2,6.8c-2.5,1.9-8.6,6.7-12.7,11.5C479.3,97.9,467.6,98.5,464,99.2z M436.4,120.1c1.9-13.2,8.1-23.5,8.2-23.6
				c0,0,8.1-4.9,10.6-6.2c1.6,2.4,4.9,7.2,7.3,10.3c-1.7,3.7-6.2,16.4-7.1,18.9c-2.9,1.2-10.4,4.2-14.8,6.8
				C439.3,124.9,436.4,120.1,436.4,120.1z M434.3,119.4c0.6-6.3,2.5-12.3,5.3-17.6c-1.9,4.3-4.1,10.4-5.1,17.4
				C434.4,119.3,434.4,119.3,434.3,119.4z M480.8,76.6c4.1,0,8,0.5,11.8,1.6l-2.7,0.6l0,0c-0.5-0.1-12.5-1.9-22.3,0.4
				c-0.1-0.2-0.1-0.4-0.2-0.5C471.6,77.3,476.1,76.6,480.8,76.6z M527.5,126.9c-0.5,8.9-3.3,17.2-8,24.2c0.2-2,0.3-3.9,0.4-5
				c4.1-5.4,5.5-14.5,5.8-17.3C526.3,128.4,526.9,127.8,527.5,126.9z M496.2,169.6c-2.3,0.3-5.8,0.4-9-0.7c0.8-2.1,2.1-6.2,2.8-8.2
				c7.2-2.6,18.7-12.8,19.2-13.2l-1.3-0.1l0.3-1.9c-0.1,0.1-13,11.7-19.7,13.6c-9.2-2.5-13.8-5.6-15.4-6.8c-0.4-6.7-1-17.3-1.1-20.4
				c3.5-1.2,14.2-7.2,17.1-10c6,2.5,15.7,6.3,18.4,7.4c0.6,4.3,0.4,18.2,0.4,18.2c3.6,0.9,8,0.5,10,0.2c-0.2,2.4-0.4,5.1-0.8,7.1
				C511.6,161.4,504.4,166.6,496.2,169.6z M480.8,172.2c-4.4,0-8.6-0.6-12.7-1.8c0.9-0.2,1.6-0.4,2-0.7c3.9,0.6,11.4,0.5,14.8,0.4
				c1.4,0.7,2.8,1.1,4.3,1.3C486.5,172,483.7,172.2,480.8,172.2z M439.1,146l1.8-0.3c6.2,8.9,17.2,13.9,19.1,14.8
				c1.9,2.5,5.8,6.3,7.7,8c-1.3,0.2-3.7,0.1-7.7-1.2C451,162.6,443.6,155.2,439.1,146z"/>
			<path class="st0" d="M485.5,112.4c0,0-3.2-11.1-4.7-11.3c-3.3-0.4-14.9,0-16.1,1s-5.2,11.3-5.2,11.3s5.4-10,6.1-10.1
				c5.2-0.7,14.2-0.9,15.2,0.7C485,110.4,484.3,111,485.5,112.4z"/>
			<path class="st0" d="M482,159.2c-0.6-0.1-8.7-4.4-9.6-4s-7.6,3.5-7.6,3.5s6.4-2.1,7.9-1.9S482,159.2,482,159.2z"/>
			<path class="st0" d="M523.3,125.9c0,0-3.4-5.9-4.1-5.4s-9.1,7.1-9.3,8c-0.2,0.8-0.7,6.2-0.7,6.2s1.5-5.5,2-6.1
				c0.9-1.2,7.8-6.3,8.3-6.2C520.1,122.5,523.3,125.9,523.3,125.9z"/>
		</g>
	</g>
</g>
</svg>
