<?xml version="1.0" encoding="utf-8"?>
<!-- Generator: Adobe Illustrator 21.1.0, SVG Export Plug-In . SVG Version: 6.00 Build 0)  -->
<svg version="1.1" id="Capa_1" xmlns="http://www.w3.org/2000/svg" xmlns:xlink="http://www.w3.org/1999/xlink" x="0px" y="0px"
	 viewBox="0 0 4512 1417.3" style="enable-background:new 0 0 4512 1417.3;" xml:space="preserve">
<style type="text/css">
	.st0{fill:#355979;}
	.st1{fill:#E7BD94;}
	.st2{fill:#070308;}
	.st3{fill:#FFFFFF;}
	.st4{opacity:6.999999e-02;fill:#070308;}
	.st5{opacity:8.000000e-02;fill:#070308;}
</style>
<g>
	<path class="st0" d="M2268.7,499.5c-55.6-29.9-124-36.1-171.7-36.1c-84.5,0-143.5,7.4-171.2,11.8c-2.1,0.3-4,1.3-5.5,2.8
		c-2.3,2.3-2.7,4.7-3,6.5c-0.2,1-0.5,3-1,6.9c-1,7-3.2,22.1-7.7,53.8c-8,56-24.9,175.7-60.2,428.4c-0.4,2.9,0.5,5.8,2.4,7.9
		c1.9,2.2,4.7,3.4,7.5,3.4h176.9c5,0,9.2-3.7,9.9-8.6l16.2-117.4c40.3,2.4,81.1-1.5,118.7-11.3c45-11.8,84.1-32,112.9-58.5
		c41.3-38,62.3-87.7,62.3-147.6c0-33.1-8.2-62.3-24.3-87C2316.4,532.4,2295.5,513.9,2268.7,499.5z M2157.6,657.5
		c0,13.1-4.1,23.3-12.6,31.2c-14.7,13.7-40.7,18.3-63.5,18.2l11.9-85.3c16.5-0.8,40.8,1.9,54.3,13.6
		C2154.4,641,2157.6,648.3,2157.6,657.5z"/>
	<path class="st0" d="M2834.1,854.5c-18.2,4.4-24.2,1.3-25.9-0.3c-3.5-3.2-3.1-11.1-2.5-15.6l34.9-248.1c0.4-2.9-0.5-5.8-2.4-8
		c-1.9-2.2-4.7-3.4-7.5-3.4h-176.1c-5,0-9.2,3.7-9.9,8.7l-2.1,15.6c-22.7-22.7-50.7-33.7-84.8-33.7c-54.5,0-105.4,25.6-143.3,72
		c-37.5,45.9-58.1,107.1-58.1,172.4c0,49.4,12.7,94.3,35.7,126.5c25.2,35.2,60.9,53.9,103.1,53.9c47.7,0,87.5-17.1,121.5-52.1
		c7.4,13.6,18.1,25.1,31.7,33.7c19.2,12.2,43.1,18.4,71.1,18.4c37.1,0,79.3-5.8,105.1-14.3c3.6-1.2,6.2-4.3,6.7-8.1l15.3-106.3
		c0.5-3.3-0.7-6.6-3.2-8.8C2840.8,854.6,2837.4,853.7,2834.1,854.5z M2632.9,771.1c0,16.9-5.8,33.8-15.8,46.2
		c-9.8,12.1-22.3,18.8-35.3,18.8c-22.8,0-32.9-22.4-32.9-44.6c0-35.2,23.4-65,51.1-65C2622.6,726.5,2632.9,749.6,2632.9,771.1z"/>
	<path class="st0" d="M3232.6,573.6c-37.1-8.9-69.8-2.2-97.2,20c-8,6.5-14.9,13.8-20.9,21.2l3.4-24.3c0.4-2.9-0.5-5.8-2.4-7.9
		c-1.9-2.2-4.6-3.4-7.5-3.4h-165.2c-5,0-9.2,3.7-9.9,8.6L2879,973.5c-0.4,2.9,0.5,5.8,2.4,7.9s4.7,3.4,7.5,3.4h176.9
		c5,0,9.2-3.7,9.9-8.6l20.4-144.1c9.7-67.2,47.3-96.7,111.7-87.6c2.6,0.4,5.3-0.3,7.4-1.9c2.1-1.6,3.5-4,3.9-6.6l21.1-151.4
		C3240.9,579.6,3237.6,574.8,3232.6,573.6z"/>
	<path class="st0" d="M3799.4,427h-180.5c-5,0-9.2,3.7-9.9,8.6l-16,115c-0.4,2.9,0.5,5.8,2.4,7.9c1.9,2.2,4.6,3.4,7.5,3.4h180.5
		c5,0,9.2-3.7,9.9-8.6l16-115c0.4-2.9-0.5-5.8-2.4-7.9C3805,428.2,3802.3,427,3799.4,427z"/>
	<path class="st0" d="M3778.2,854.5c-15.8,3.6-24.4,2.2-27.1-0.4c-2.2-2.1-2-6.7-1.5-10.2c0,0,0-0.1,0-0.1l35.7-253.3
		c0.4-2.9-0.5-5.8-2.4-8c-1.9-2.2-4.7-3.4-7.5-3.4h-270.2L3516,501c0.4-2.9-0.5-5.8-2.4-7.9c-1.9-2.2-4.6-3.4-7.5-3.4h-176.1
		c-5,0-9.2,3.7-9.9,8.6l-11.2,80.9h-29.1c-5,0-9.2,3.7-9.9,8.6l-18.2,127.4c-0.4,2.9,0.4,5.8,2.3,8c1.9,2.2,4.7,3.4,7.6,3.4h26.3
		l-19.5,136.3c-6,41,0.7,73.1,19.9,95.2c21.2,24.4,56,36.3,106.5,36.3c51.4,0,98.2-12.1,124.7-23.4c3.2-1.4,5.5-4.3,6-7.8
		l14.6-104.8c0.4-3.2-0.7-6.4-3-8.6c-2.3-2.2-5.6-3.2-8.7-2.6c-1.2,0.2-2.5,0.5-3.8,0.7c-7,1.4-14.3,2.8-25.7,2.8
		c-6.1,0-17.4-1.1-23.6-8.3c-4.2-4.9-5.7-12.2-4.3-21.8l13.3-94h84.7l-20.3,148c-4.6,34,2.8,63.2,21.5,84.6
		c20.1,23,52.3,35.2,93.2,35.2c37.1,0,79.3-5.8,105.1-14.3c3.6-1.2,6.2-4.3,6.7-8.1l15.3-106.3c0.5-3.3-0.7-6.5-3.1-8.8
		C3784.8,854.6,3781.5,853.8,3778.2,854.5z"/>
	<path class="st0" d="M4259.4,818.6h-110.5c41.2-28.9,72.7-54.2,97-82.7c33.9-39.7,49.7-81.3,49.7-130.8
		c0-52.3-19.3-90.5-57.4-113.7c-31-18.9-74.5-28-133.1-28c-68.3,0-162.8,24.3-205.2,40.7c-4,1.5-6.5,5.4-6.4,9.7l5.1,138.3
		c0.1,3.3,1.8,6.2,4.5,8c2.7,1.8,6.1,2.1,9.2,0.9c25.4-10.2,78.3-31.3,128-31.3c46.6,0,50.4,9.7,50.4,20.6
		c0,39-67.2,77.2-152.2,125.7c-27.4,15.6-55.8,31.8-85.4,49.9c-2.6,1.6-4.3,4.2-4.7,7.1l-19.7,140.5c-0.4,2.9,0.5,5.8,2.4,7.9
		c1.9,2.2,4.7,3.4,7.5,3.4H4239c5,0,9.2-3.7,9.9-8.6l20.4-146.3c0.4-2.9-0.5-5.8-2.4-7.9C4265,819.8,4262.3,818.6,4259.4,818.6z"/>
</g>
<g>
	<g>
		<path class="st1" d="M915.6,1181l-206-210.5c-34.7-45-97-56.4,0-155.5l397.2-406c13.8-14.1,36.3-14.1,50.1,0l302.2,308.9
			c17,17.4,17,45.8,0,63.2l-391.3,400C1026,1223.8,957.5,1223.8,915.6,1181z"/>
		<path class="st2" d="M991.7,1235.5c-33.1,0-66.3-12.9-91.5-38.7L693.4,985.3l-0.8-1c-5.9-7.7-13.3-14.7-20.4-21.4
			c-16.7-15.9-35.7-34-36.2-62.6c-0.5-28.2,17.5-59.3,58.2-101l397.2-406c10.8-11,25.1-17.1,40.4-17.1c15.3,0,29.7,6.1,40.4,17.1
			l302.2,308.9c25.5,26.1,25.5,68.6,0,94.7l-391.3,400C1058,1222.6,1024.8,1235.5,991.7,1235.5z M725.9,955.7L931,1165.3
			c33.5,34.2,87.9,34.2,121.4,0l391.3-400c8.6-8.7,8.6-23,0-31.7l-302.2-308.9c-2.5-2.6-6-4-9.6-4c-3.7,0-7.1,1.4-9.6,4l-397.2,406
			c-37.9,38.8-45.7,58.8-45.5,68.7c0.2,9.3,8.6,17.8,22.3,30.8C709.5,937.6,718.2,945.8,725.9,955.7z"/>
	</g>
	<g>
		<path class="st3" d="M1506.4,770.8l-389.2-397.9c-31.3-32-31.3-84.3,0-116.3l21-21.4c31.3-32,82.5-32,113.8,0l389.2,397.9
			c31.3,32,31.3,84.3,0,116.3l-21,21.4C1588.9,802.8,1537.7,802.8,1506.4,770.8z"/>
		<path class="st2" d="M1563.3,812.3c-29.1,0-58.2-11.3-80.3-33.9l-373.2-381.5c-21.4-21.8-33.1-51-33.1-82.1s11.8-60.2,33.1-82.1
			l5-5.1c21.4-21.8,49.9-33.9,80.3-33.9s58.9,12,80.3,33.9l373.2,381.5c44.3,45.3,44.3,118.9,0,164.1l-5,5.1
			C1621.4,801,1592.3,812.3,1563.3,812.3z M1513.8,746.9c27.3,27.9,71.7,27.9,99,0l5-5.1c27.3-27.9,27.3-73.3,0-101.2l-373.2-381.5
			c-13.1-13.4-30.7-20.8-49.5-20.8c-18.8,0-36.3,7.4-49.5,20.8l-5,5.1c-13.1,13.4-20.4,31.4-20.4,50.6c0,19.2,7.2,37.2,20.4,50.6
			L1513.8,746.9z"/>
	</g>
	<polygon class="st4" points="571.8,669.7 817.6,912.7 727.2,988.5 491.8,754.7 	"/>
	<path class="st5" d="M800.6,1019l124.1-133.9c8.3-9,19.9-14.1,32-14.1h0c14.7,0,28.4,7.5,36.6,20c31.2,47.9,120.2,158.9,228.8,70.8
		c135.8-110-219.5-229.2-226.3-233.8c-5.3-3.6-89.1,10-125.7,16.1c-10.8,1.8-20.6,7.7-27.4,16.5L736.1,898.4c-2.2,2.8-4,5.9-5.5,9.1
		L711,951.2c-7.7,17.1-4.2,37.3,8.9,50.7l17.7,18.1C755,1037.8,783.6,1037.4,800.6,1019z"/>
	<g>
		<path class="st1" d="M1126.1,931.9l-109.6-114.1c-36.6-29.2-88.8-26.3-122,6.8c-66.7,66.5-137.1,187.2-184.8,145.9
			c-2.3-2-113.8-121-115.9-123.2l-71.4-75.9c-13.8-14.1-13.8-37.1,0-51.2l302.2-308.9c17-17.4,44.8-17.4,61.8,0L1188,719.8
			c12.4,12.6,25,25.1,38.6,36.3C1327.1,838.7,1231.1,993.2,1126.1,931.9z"/>
		<path class="st2" d="M730.7,1001.2c-14.9,0-26.6-6.3-35.1-13.7c-1.4-1.2-2.9-2.5-112.6-119.5c-2.9-3.1-4.6-4.9-4.9-5.2L506.8,787
			c-10.7-11-16.5-25.6-16.5-41.2c0-15.6,5.9-30.3,16.7-41.3l302.2-308.9c25.5-26.1,67.1-26.1,92.6,0L1203.4,704
			c11.3,11.6,23.7,23.8,36.9,34.7c28.8,23.7,46,54.4,49.8,88.8c3.4,30.6-4.3,61.8-21.7,87.8c-16.1,24.1-39.1,41.5-64.9,48.9
			c-29,8.3-59.5,3.8-88.2-12.9l-2.6-1.5L1002,834.5c-27.9-21.4-67.3-18.9-92.4,6.1c-17.3,17.2-35.4,38.9-52.9,59.9
			C831.1,931.1,807,960.1,783,979C762.5,995.3,745.1,1001.2,730.7,1001.2z M724.3,954c3.4,2.8,10.4,7,32-10.1
			c20.4-16.2,44.2-44.7,67.3-72.3c18.2-21.8,36.9-44.3,55.7-62.9c19.9-19.8,46.1-31.5,73.8-33.1c27.7-1.5,55,7.2,76.9,24.7l1.1,0.9
			L1139.4,914c41.7,22.8,76.1,1.7,93.1-23.8c20.9-31.4,23.7-81.3-19.4-116.8c-14.8-12.2-28.1-25.4-40.4-37.9L870.9,427.1
			c-8.6-8.7-22.5-8.7-31,0L537.8,736c-2.5,2.6-3.9,6.1-3.9,9.9s1.4,7.2,3.9,9.9l0.3,0.3l71.4,75.9c0.2,0.3,2,2.1,4.9,5.3
			C701.7,930.2,721,950.6,724.3,954z M723.8,953.5c0.1,0,0.1,0.1,0.2,0.1C723.9,953.6,723.8,953.6,723.8,953.5z"/>
	</g>
	<g>
		<path class="st3" d="M738.3,227.3L349,625.2c-31.3,32-31.3,84.3,0,116.3l21,21.4c31.3,32,82.5,32,113.8,0L873,365
			c31.3-32,31.3-84.3,0-116.3l-21-21.4C820.7,195.3,769.6,195.3,738.3,227.3z"/>
		<path class="st2" d="M426.9,804.4c-29.1,0-58.1-11.3-80.3-33.9l-5-5.1c-44.3-45.3-44.3-118.9,0-164.1l373.2-381.5
			c21.4-21.8,49.9-33.9,80.3-33.9c30.4,0,58.9,12,80.3,33.9l5,5.1c44.3,45.3,44.3,118.9,0,164.1L507.2,770.5
			C485,793.1,455.9,804.4,426.9,804.4z M795.1,230.4c-18.8,0-36.3,7.4-49.5,20.8L372.4,632.7c-27.3,27.9-27.3,73.3,0,101.2l5,5.1
			c13.6,13.9,31.6,20.9,49.5,20.9c17.9,0,35.8-7,49.5-20.9l373.2-381.5c27.3-27.9,27.3-73.3,0-101.2l-5-5.1
			C831.5,237.8,813.9,230.4,795.1,230.4z"/>
	</g>
	<path class="st4" d="M428.8,543.6c0,0-14.2,165.2,143,126.1L467.7,780.4l-85.3-9.9L357,749.7l-25.7-52.2v-59.4L428.8,543.6z"/>
	<path class="st4" d="M1564.9,556.7c0,0,14.2,165.2-143,126.1L1526,793.5l85.3-9.9l25.4-20.8l25.7-52.2v-59.4L1564.9,556.7z"/>
	<g>
		<ellipse class="st3" cx="1198.4" cy="311.9" rx="48.5" ry="49.6"/>
		<g>
			<path class="st2" d="M1198.6,260.7c-25.2,0-46.2,19.2-49.6,44h0c0,0.1,0,0.1,0,0.2c-0.3,2.3-0.5,4.6-0.5,7
				c0,28.2,22.5,51.2,50.1,51.2c27.6,0,50.1-23,50.1-51.2C1248.7,283.7,1226.3,260.7,1198.6,260.7z M1219.5,345.6
				c-2.3-0.6-7.6-2.3-11.2-5.3c0.4-7.2,1.1-19.6,1.2-21.6c2.9-2,10.8-7.3,13.6-10c3.9,1.6,11.5,4.8,15.4,7.1c1,5,0.2,10.8-0.4,14.2
				C1233.3,338.6,1222.8,344.1,1219.5,345.6z M1189.8,307.4c-6,2.6-16.1,6.5-18.6,7.5c-2.2-1.6-7.2-5.4-9.3-8.1
				c-0.1-10.5,3.6-19.9,4.8-22.6c3.2-2.1,10.5-6.7,15.6-7.6c2.4,1.8,8.7,6.8,12.8,11.6C1194,291.8,1190.6,303.7,1189.8,307.4z
				 M1154.1,314c-0.8-0.9-1.6-2.1-2.2-3.8c0.4-11,4.4-21,10.9-28.9l1.7,2.9c-1.4,3.5-4.4,11.9-4.6,21.6
				C1158.4,307.4,1155.6,310.7,1154.1,314z M1196.3,286.6c-4.1-4.8-10.2-9.6-12.7-11.5c1.3-2,6.2-6.8,6.2-6.8c0.1,0,13.9-2.1,23.7,1
				c2.9,1.6,7.5,4.5,9.2,7.2c-2.3,3.3-5.3,7.6-7.3,10.3C1211.8,286,1200.2,285.4,1196.3,286.6z M1238.9,313.7
				c-4.5-2.5-12-5.6-14.8-6.8c-0.9-2.5-5.4-15.3-7.1-18.9c2.4-3.1,5.7-7.9,7.3-10.3c2.5,1.3,10.6,6.2,10.6,6.2
				c0.1,0.1,6.3,10.5,8.2,23.6C1243.1,307.6,1240.1,312.4,1238.9,313.7z M1244.9,306.7c-1.1-7-3.2-13.1-5.1-17.4
				c2.8,5.3,4.7,11.3,5.3,17.6C1245.1,306.8,1245,306.8,1244.9,306.7z M1212.1,266.1c-0.1,0.2-0.1,0.4-0.2,0.5
				c-9.9-2.3-21.8-0.5-22.3-0.4l0,0l-2.7-0.6c3.8-1,7.7-1.6,11.8-1.6C1203.3,264.1,1207.8,264.8,1212.1,266.1z M1153.7,316.4
				c0.3,2.9,1.7,11.9,5.8,17.3c0.1,1.1,0.2,3,0.4,5c-4.6-7-7.5-15.3-8-24.2C1152.5,315.3,1153.2,315.9,1153.7,316.4z M1162.4,342.1
				c-0.4-2-0.7-4.7-0.8-7.1c2,0.3,6.4,0.8,10-0.2c0,0-0.2-13.9,0.4-18.2c2.7-1,12.4-4.8,18.4-7.4c2.9,2.7,13.5,8.7,17.1,10
				c-0.2,3.1-0.7,13.7-1.1,20.4c-1.6,1.2-6.2,4.3-15.4,6.8c-6.7-1.9-19.6-13.4-19.7-13.6l0.3,1.9l-1.3,0.1
				c0.5,0.4,12,10.6,19.2,13.2c0.6,2,1.9,6.1,2.8,8.2c-3.2,1.1-6.7,1-9,0.7C1175,354.1,1167.8,348.9,1162.4,342.1z M1190.2,358.9
				c1.4-0.3,2.9-0.7,4.3-1.3c3.3,0.1,10.9,0.1,14.8-0.4c0.4,0.3,1.1,0.6,2,0.7c-4,1.2-8.3,1.8-12.7,1.8
				C1195.8,359.7,1193,359.5,1190.2,358.9z M1219.4,354.7c-4,1.3-6.4,1.4-7.7,1.2c1.9-1.8,5.7-5.5,7.7-8c1.9-0.8,12.9-5.9,19.1-14.8
				l1.8,0.3C1235.8,342.7,1228.4,350.1,1219.4,354.7z"/>
			<path class="st3" d="M1193.9,299.9c0,0,3.2-11.1,4.7-11.3c3.3-0.4,14.9,0,16.1,1c1.2,1,5.2,11.3,5.2,11.3s-5.4-10-6.1-10.1
				c-5.2-0.7-14.2-0.9-15.2,0.7C1194.5,297.9,1195.1,298.5,1193.9,299.9z"/>
			<path class="st3" d="M1197.5,346.7c0.6-0.1,8.7-4.4,9.6-4c0.9,0.5,7.6,3.5,7.6,3.5s-6.4-2.1-7.9-1.9S1197.5,346.7,1197.5,346.7z"
				/>
			<path class="st3" d="M1156.2,313.4c0,0,3.4-5.9,4.1-5.4c0.7,0.5,9.1,7.1,9.3,8c0.2,0.8,0.7,6.2,0.7,6.2s-1.5-5.5-2-6.1
				c-0.9-1.2-7.8-6.3-8.3-6.2C1159.4,310,1156.2,313.4,1156.2,313.4z"/>
		</g>
	</g>
	<g>
		<ellipse class="st3" cx="789.5" cy="310.3" rx="48.5" ry="49.6"/>
		<g>
			<path class="st2" d="M739.1,310.3c0,28.2,22.5,51.2,50.1,51.2c27.6,0,50.1-23,50.1-51.2c0-2.4-0.2-4.7-0.5-7c0-0.1,0-0.1,0-0.2h0
				c-3.4-24.8-24.4-44-49.6-44C761.6,259.1,739.1,282.1,739.1,310.3z M749.7,328.4c-0.6-3.4-1.4-9.2-0.4-14.2
				c3.9-2.3,11.5-5.5,15.4-7.1c2.9,2.7,10.7,8,13.6,10c0.1,2,0.8,14.4,1.2,21.6c-3.6,2.9-8.9,4.7-11.2,5.3
				C765,342.5,754.6,337,749.7,328.4z M792.8,286.6c4.1-4.9,10.4-9.8,12.8-11.6c5.1,0.9,12.4,5.5,15.6,7.6
				c1.2,2.7,4.8,12.1,4.8,22.6c-2.1,2.7-7.1,6.5-9.3,8.1c-2.6-1-12.6-4.9-18.6-7.5C797.2,302.1,793.9,290.3,792.8,286.6z
				 M827.9,304.2c-0.1-9.7-3.1-18.1-4.6-21.6l1.7-2.9c6.5,7.9,10.5,17.9,10.9,28.9c-0.6,1.7-1.5,2.9-2.2,3.8
				C832.3,309.2,829.4,305.8,827.9,304.2z M772.4,285.1c-2-2.7-5.1-7-7.3-10.3c1.7-2.7,6.4-5.6,9.2-7.2c9.8-3,23.5-1,23.7-1
				c0,0,4.9,4.8,6.2,6.8c-2.5,1.9-8.6,6.7-12.7,11.5C787.7,283.8,776,284.4,772.4,285.1z M744.8,306c1.9-13.2,8.1-23.5,8.2-23.6
				c0,0,8.1-4.9,10.6-6.2c1.6,2.4,4.9,7.2,7.3,10.3c-1.7,3.7-6.2,16.4-7.1,18.9c-2.9,1.2-10.4,4.2-14.8,6.8
				C747.7,310.8,744.8,306,744.8,306z M742.7,305.3c0.6-6.3,2.5-12.3,5.3-17.6c-1.9,4.3-4.1,10.4-5.1,17.4
				C742.8,305.2,742.8,305.2,742.7,305.3z M789.2,262.5c4.1,0,8,0.5,11.8,1.6l-2.7,0.6l0,0c-0.5-0.1-12.5-1.9-22.3,0.4
				c-0.1-0.2-0.1-0.4-0.2-0.5C780,263.2,784.5,262.5,789.2,262.5z M835.9,312.8c-0.5,8.9-3.3,17.2-8,24.2c0.2-2,0.3-3.9,0.4-5
				c4.1-5.4,5.5-14.5,5.8-17.3C834.7,314.3,835.3,313.7,835.9,312.8z M804.6,355.5c-2.3,0.3-5.8,0.4-9-0.7c0.8-2.1,2.1-6.2,2.8-8.2
				c7.2-2.6,18.7-12.8,19.2-13.2l-1.3-0.1l0.3-1.9c-0.1,0.1-13,11.7-19.7,13.6c-9.2-2.5-13.8-5.6-15.4-6.8c-0.4-6.7-1-17.3-1.1-20.4
				c3.5-1.2,14.2-7.2,17.1-10c6,2.5,15.7,6.3,18.4,7.4c0.6,4.3,0.4,18.2,0.4,18.2c3.6,0.9,8,0.5,10,0.2c-0.2,2.4-0.4,5.1-0.8,7.1
				C820,347.3,812.8,352.5,804.6,355.5z M789.2,358.1c-4.4,0-8.6-0.6-12.7-1.8c0.9-0.2,1.6-0.4,2-0.7c3.9,0.6,11.4,0.5,14.8,0.4
				c1.4,0.7,2.8,1.1,4.3,1.3C794.9,357.9,792.1,358.1,789.2,358.1z M747.5,331.9l1.8-0.3c6.2,8.9,17.2,13.9,19.1,14.8
				c1.9,2.5,5.8,6.3,7.7,8c-1.3,0.2-3.7,0.1-7.7-1.2C759.4,348.5,752,341.1,747.5,331.9z"/>
			<path class="st3" d="M793.9,298.3c0,0-3.2-11.1-4.7-11.3c-3.3-0.4-14.9,0-16.1,1c-1.2,1-5.2,11.3-5.2,11.3s5.4-10,6.1-10.1
				c5.2-0.7,14.2-0.9,15.2,0.7C793.4,296.3,792.7,296.9,793.9,298.3z"/>
			<path class="st3" d="M790.4,345.1c-0.6-0.1-8.7-4.4-9.6-4s-7.6,3.5-7.6,3.5s6.4-2.1,7.9-1.9S790.4,345.1,790.4,345.1z"/>
			<path class="st3" d="M831.7,311.8c0,0-3.4-5.9-4.1-5.4c-0.7,0.5-9.1,7.1-9.3,8c-0.2,0.8-0.7,6.2-0.7,6.2s1.5-5.5,2-6.1
				c0.9-1.2,7.8-6.3,8.3-6.2C828.5,308.4,831.7,311.8,831.7,311.8z"/>
		</g>
	</g>
</g>
</svg>
