<svg id="Capa_1" data-name="Capa 1" xmlns="http://www.w3.org/2000/svg" viewBox="0 0 58 73"><title>Assets</title><rect x="20.14" y="5.52" width="17.58" height="44.19" style="fill:#fff"/><rect x="2.53" y="5.52" width="17.61" height="44.19" style="fill:#38882a"/><rect x="37.72" y="5.52" width="17.61" height="44.19" style="fill:#e13202"/><path d="M35,36.15v-17c3.49,0,5.43.56,7.61,3.58.28.4.48.62,1.34.62h2.47c1.54,0,1.72-.66,1.15-1.9A13.24,13.24,0,0,0,43,16.28a11.25,11.25,0,0,0-6.34-1.9H23.24a11.78,11.78,0,0,0-4.65.93,12.17,12.17,0,0,0-3.93,2.78,13.36,13.36,0,0,0-2.84,4.34,13.55,13.55,0,0,0-1,5.09,13.57,13.57,0,0,0,3.55,9.55,11.5,11.5,0,0,0,8.8,3.87H36.88A11.25,11.25,0,0,0,43,39.06a13.24,13.24,0,0,0,4.61-5.2c.57-1.23.39-1.89-1.15-1.9H44c-.86,0-1.05.22-1.34.61C40.46,35.59,38.53,36.15,35,36.15Z" style="fill:#fff"/><path d="M2,5V50.23H55.85V5Zm52.8,1V49.19H3.05V6Z" style="fill:#00348d"/><path d="M2,51.58V63.07a5.37,5.37,0,0,0,1.62,3.82,6.09,6.09,0,0,0,4.29,1.74H23.16a7.24,7.24,0,0,1,5.33,3.24l.44.68.44-.68c.71-1.1,2.75-3.2,5.34-3.24H49.94a6.08,6.08,0,0,0,4.29-1.74,5.37,5.37,0,0,0,1.62-3.82V51.58Z" style="fill:#00348d"/><polygon points="28.93 52.89 30.44 57.6 35.39 57.6 31.38 60.51 32.91 65.22 28.93 62.29 24.94 65.22 26.48 60.51 22.47 57.6 27.42 57.6 28.93 52.89" style="fill:#fff"/><path d="M27.55,36.69l.56-.28-.18-.18-.39-.43V31.17a9.81,9.81,0,0,0,2.07,3.48l.32.33a4.63,4.63,0,0,0,.33-.35,10.17,10.17,0,0,0,2.65-7.13,9.49,9.49,0,0,0-2.73-6.81l-.25-.26-.3.32a9.7,9.7,0,0,0-2.09,3.39v-4.5c.18-.21.38-.42.57-.62l-.57-.3V16.27l.52.2a11.35,11.35,0,0,1,1.85,1,11.23,11.23,0,0,1,1.84-1,11.73,11.73,0,0,1,10.41.83,11.75,11.75,0,0,1,4.25,4.78H43.75a10.11,10.11,0,0,0-3.4-3.19,8.77,8.77,0,0,0-4.27-1A8.38,8.38,0,0,0,31.75,19a11.48,11.48,0,0,1,2.58,3.87,12.39,12.39,0,0,1,.87,4.64,13.08,13.08,0,0,1-.75,4.52,11.44,11.44,0,0,1-2.23,3.75c-.16.19-.34.38-.52.55a8.48,8.48,0,0,0,4.37,1.15,8.91,8.91,0,0,0,4.23-1,9.31,9.31,0,0,0,3.28-3h2.64a11.47,11.47,0,0,1-4.15,4.57,10.9,10.9,0,0,1-5.85,1.62,11.21,11.21,0,0,1-6.36-1.84,9.69,9.69,0,0,1-1.52.84,6.72,6.72,0,0,1-.8.33ZM14.49,27.56a10,10,0,0,0,2.68,7.1,8.7,8.7,0,0,0,6.61,2.85,8.51,8.51,0,0,0,3.76-.82V39a11.35,11.35,0,0,1-3.91.67,10.81,10.81,0,0,1-8.17-3.5,12.16,12.16,0,0,1-3.29-8.67,11.84,11.84,0,0,1,.9-4.62A12.21,12.21,0,0,1,15.7,19a11.5,11.5,0,0,1,3.66-2.52,11.14,11.14,0,0,1,4.31-.83,11.37,11.37,0,0,1,3.88.64v2.44a8.76,8.76,0,0,0-3.91-.88,8.47,8.47,0,0,0-3,.55A9,9,0,0,0,17.95,20a10.16,10.16,0,0,0-3.46,7.56ZM27.55,35.8V31.17A10.86,10.86,0,0,1,27,27.56a10,10,0,0,1,.57-3.42v-4.5a11.52,11.52,0,0,0-2,3.28,12,12,0,0,0-.9,4.62A12.13,12.13,0,0,0,27.55,35.8Z" style="fill:#00348d"/></svg>