<svg id="Capa_1" data-name="Capa 1" xmlns="http://www.w3.org/2000/svg" viewBox="0 0 65 68"><title>Assets</title><path d="M32.58,68.28c-3.68-3.45-5.82-4.11-8.15-4.27a32,32,0,0,1-9.73-2.5,23.07,23.07,0,0,1-8.45-6.05,18.89,18.89,0,0,1-4-8.21,20.09,20.09,0,0,1-.34-6A24.23,24.23,0,0,1,4.4,32.31c2.08-4,5.09-6.82,4.86-11.55-.06-2.94-2.56-5.2-5.3-8.19H4l7.4-9.09h0A39.19,39.19,0,0,0,15,5.16a19.5,19.5,0,0,0,7.15,1.41A20.44,20.44,0,0,0,32.58,3.33,20.44,20.44,0,0,0,43,6.57a19.5,19.5,0,0,0,7.15-1.41,39.18,39.18,0,0,0,3.6-1.69h0l7.41,9.09h0c-2.74,3-5.24,5.26-5.3,8.19-.23,4.73,2.77,7.58,4.86,11.55a24.22,24.22,0,0,1,2.53,8.95,20.1,20.1,0,0,1-.34,6,18.89,18.89,0,0,1-4,8.21,23.07,23.07,0,0,1-8.45,6.05A31.93,31.93,0,0,1,40.72,64c-2.32.16-4.47.83-8.15,4.27Z" style="fill:#fff"/><path d="M32.58,69.14l-.43-.4c-3.43-3.22-5.44-3.94-7.76-4.1a32.73,32.73,0,0,1-9.94-2.55,23.83,23.83,0,0,1-8.67-6.22,19.44,19.44,0,0,1-4.18-8.48,20.73,20.73,0,0,1-.35-6.18A24.77,24.77,0,0,1,3.84,32c.57-1.09,1.21-2.1,1.83-3.07,1.67-2.63,3.11-4.9,3-8.15v0c0-2.32-1.84-4.24-4.11-6.68L3.49,13l-.37-.4,8.07-9.91.45.23c1,.51,2.35,1.2,3.54,1.66A19,19,0,0,0,22.1,5.94,19.66,19.66,0,0,0,32.25,2.79l.32-.19.32.19A19.66,19.66,0,0,0,43,5.94,19,19,0,0,0,50,4.58c1.19-.46,2.55-1.15,3.54-1.66L54,2.68,62,12.59l-.37.4-1,1.11c-2.27,2.43-4.06,4.35-4.11,6.67v0c-.16,3.25,1.28,5.52,3,8.15.62,1,1.26,2,1.83,3.07a24.76,24.76,0,0,1,2.6,9.18,20.74,20.74,0,0,1-.35,6.18,19.44,19.44,0,0,1-4.18,8.49,23.83,23.83,0,0,1-8.67,6.22,32.71,32.71,0,0,1-9.94,2.55c-2.32.16-4.33.89-7.76,4.1ZM9.88,20.74c.18,3.65-1.44,6.19-3.15,8.88-.6,1-1.23,1.93-1.78,3a23.52,23.52,0,0,0-2.46,8.72,19.43,19.43,0,0,0,.33,5.79A18.16,18.16,0,0,0,6.73,55a22.58,22.58,0,0,0,8.22,5.89,31.38,31.38,0,0,0,9.52,2.45c2.43.17,4.66.92,8.1,4,3.45-3.14,5.6-3.87,8.1-4a31.37,31.37,0,0,0,9.52-2.45A22.58,22.58,0,0,0,58.42,55a18.16,18.16,0,0,0,3.91-7.93,19.45,19.45,0,0,0,.33-5.79,23.51,23.51,0,0,0-2.46-8.72c-.55-1-1.17-2-1.78-3-1.71-2.69-3.32-5.23-3.15-8.88.06-2.8,2.09-5,4.45-7.5l.65-.7L53.63,4.27c-1,.49-2.13,1.07-3.21,1.48A20.22,20.22,0,0,1,43,7.2,20.92,20.92,0,0,1,32.58,4.06,20.92,20.92,0,0,1,22.11,7.2a20.18,20.18,0,0,1-7.38-1.45c-1.07-.41-2.25-1-3.21-1.48L4.79,12.55l.65.7C7.79,15.76,9.82,17.94,9.88,20.74Z" style="fill:#001780"/><path d="M5.08,48.32a17.67,17.67,0,0,1-.74-6.61A22.18,22.18,0,0,1,6,34.89c1.1-2.69,2.83-4.71,4.14-7.2a14,14,0,0,0,1.69-6.83c-.06-2.81-1.32-5.05-4.48-8.42h0L12,6.61h0A22.57,22.57,0,0,0,22.12,9.09,21.78,21.78,0,0,0,32.58,6.2,21.78,21.78,0,0,0,43,9.09,22.57,22.57,0,0,0,53.11,6.61h0l4.74,5.84h0c-2.73,2.91-4,5-4.39,7.31h0L5.08,48.32Z" style="fill:#e13202"/><path d="M32.58,64.95A13.34,13.34,0,0,0,25,61.53c-6.42-.6-12.61-3-16.53-7.33a16,16,0,0,1-2.81-4.28h0l47.7-28.15h0a14.24,14.24,0,0,0,1.68,5.93c1.31,2.49,3,4.5,4.14,7.2a22.18,22.18,0,0,1,1.61,6.82,16.29,16.29,0,0,1-4.15,12.49c-3.92,4.31-10.11,6.73-16.53,7.33a13.34,13.34,0,0,0-7.55,3.41Z" style="fill:#001780"/><path d="M16.24,26.24c.41-.18.89-.66.89-1h0V14.33h0c0-.46-.39-.74-.89-1h2.84a11.7,11.7,0,0,1,3.09.28,4,4,0,0,1,1.59.94,5.44,5.44,0,0,1,1.35,2.18,9.23,9.23,0,0,1,.46,3,10,10,0,0,1-.46,3.15A5.42,5.42,0,0,1,23.75,25a3.93,3.93,0,0,1-1.55.93,9.65,9.65,0,0,1-2.7.28H16.24Zm3.47-2.58h.43a2.73,2.73,0,0,0,2.14-1.14,4.62,4.62,0,0,0,.69-2.8,4.29,4.29,0,0,0-.69-2.7,2.75,2.75,0,0,0-2.14-1.19h-.43v7.83ZM30.14,39.31A1.45,1.45,0,0,0,31,38.25h0V27.59h0c0-.51-.38-.84-.89-1.12H35c-.5.28-.89.61-.89,1.12h0V38.27h0A1.45,1.45,0,0,0,35,39.33h0l-4.87,0Zm21.3,12.83H47.74l-1.07-8.43-2.21,8.43h-2.2l-2.2-8.42L39,52.15H35.3c.33-.22.78-.55.84-1h0l1.6-10.8h0c.07-.44-.51-.83-.84-1h4.25l2.22,8.37,2.22-8.37h4.28c-.52.34-.9.65-.84,1h0L50.58,51h0c.08.52.28.74.85,1.14Z" style="fill:#fff"/></svg>