<svg id="Capa_1" data-name="Capa 1" xmlns="http://www.w3.org/2000/svg" viewBox="0 0 65 67"><title>Assets</title><path d="M63.35,44.27c0-.07,0-.13,0-.2-.06-4.69-1.68-7.95-3.25-11.11-.48-1-.92-1.86-1.32-2.79a16.15,16.15,0,0,1-1.54-6.45,12,12,0,0,1,.11-1.6,21.06,21.06,0,0,1,5.38-11.48L53.42,2.06A19.2,19.2,0,0,1,42.7,5.15,20.52,20.52,0,0,1,32.48,2.37,20.52,20.52,0,0,1,22.27,5.15h0a19.2,19.2,0,0,1-10.72-3.1L2.25,10.64A21.06,21.06,0,0,1,7.62,22.13a12.06,12.06,0,0,1,.11,1.6,16.15,16.15,0,0,1-1.54,6.45c-.4.93-.85,1.83-1.32,2.79-1.57,3.16-3.19,6.42-3.25,11.11,0,.07,0,.13,0,.2,0,6.11,3.52,11.23,9.44,13.73A38,38,0,0,0,19,60.08c1.95.37,4,.74,6.16,1.35a19,19,0,0,1,7.33,3.37,19,19,0,0,1,7.33-3.37c2.19-.6,4.21-1,6.16-1.35A38,38,0,0,0,53.91,58C59.83,55.5,63.35,50.37,63.35,44.27ZM7.1,35.06c1.86-3.6,4-7.69,3.51-12.8A23.43,23.43,0,0,0,6.26,11L12,5.68A22,22,0,0,0,22.16,8.12h0A23.13,23.13,0,0,0,32.48,5.7,23.13,23.13,0,0,0,42.79,8.12h0A22,22,0,0,0,53,5.68l2.29,2.12L5.22,48.18C4,44.54,4.59,39.94,6.93,35.4ZM52.73,56.9a40.07,40.07,0,0,1-7.4,1.83c-1.94.36-3.94.73-5.89,1.26a20.56,20.56,0,0,0-6.53,2.73l-.43.31L32,62.72A20.56,20.56,0,0,0,25.51,60c-1.95-.53-4-.9-5.89-1.26a40.07,40.07,0,0,1-7.4-1.83A14.56,14.56,0,0,1,5,51.1l-.33-.53L57.55,7.87l3.17,2.93-.44.54A21.65,21.65,0,0,0,55.82,22.4c-.42,4.67,1.5,8.39,3.35,12l.17.34C62,39.8,62.56,44.88,61,49,59.7,52.56,56.91,55.22,52.73,56.9Z" style="fill:#fff"/><path d="M61.42,32.3c-.46-.94-.9-1.82-1.29-2.71a13.53,13.53,0,0,1-1.33-7.26A19.72,19.72,0,0,1,64.3,11.09l.5-.54L53.61.21l-.48.29A17.92,17.92,0,0,1,42.7,3.67,19.25,19.25,0,0,1,32.85.88L32.48.67l-.37.21a19.26,19.26,0,0,1-9.85,2.79A17.92,17.92,0,0,1,11.82.51L11.35.21l-.41.38L.16,10.55l.5.54A19.72,19.72,0,0,1,6.15,22.33a13.54,13.54,0,0,1-1.33,7.26c-.38.89-.82,1.78-1.29,2.71C2,35.45.19,39,.13,44,0,50.87,3.91,56.59,10.48,59.36a39.08,39.08,0,0,0,8.24,2.18c1.92.36,3.9.73,6,1.32A17.57,17.57,0,0,1,32,66.32l.45.35.46-.35a17.57,17.57,0,0,1,7.27-3.46c2.14-.59,4.12-1,6-1.32a39.09,39.09,0,0,0,8.24-2.18C61,56.59,64.91,50.87,64.83,44,64.77,39,63,35.45,61.42,32.3ZM46,60.08c-1.95.37-4,.74-6.16,1.35a19,19,0,0,0-7.33,3.37,19,19,0,0,0-7.33-3.37c-2.19-.6-4.21-1-6.16-1.35A38,38,0,0,1,11.05,58c-5.92-2.5-9.44-7.62-9.44-13.73,0-.07,0-.13,0-.2C1.67,39.38,3.29,36.12,4.86,33c.47-1,.92-1.86,1.32-2.79a16.15,16.15,0,0,0,1.54-6.45,12.06,12.06,0,0,0-.11-1.6A21.06,21.06,0,0,0,2.25,10.64l9.29-8.59a19.2,19.2,0,0,0,10.72,3.1h0A20.52,20.52,0,0,0,32.48,2.37,20.52,20.52,0,0,0,42.7,5.15a19.2,19.2,0,0,0,10.72-3.1l9.29,8.59a21.06,21.06,0,0,0-5.38,11.48,12,12,0,0,0-.11,1.6,16.15,16.15,0,0,0,1.54,6.45c.4.93.85,1.83,1.32,2.79,1.57,3.16,3.19,6.42,3.25,11.11,0,.07,0,.13,0,.2,0,6.11-3.52,11.23-9.44,13.73A38,38,0,0,1,46,60.08Z" style="fill:#005ca7"/><path d="M59.64,48.48C61,44.76,60.45,40.11,58,35.4l-.17-.33c-1.86-3.6-4-7.69-3.51-12.79A23.43,23.43,0,0,1,58.7,11L57.44,9.79,6.57,50.87a13.43,13.43,0,0,0,6.21,4.65,39.09,39.09,0,0,0,7.11,1.75c2,.36,4,.74,6,1.29a23,23,0,0,1,6.57,2.66,23,23,0,0,1,6.57-2.66c2-.55,4-.93,6-1.29a39.08,39.08,0,0,0,7.11-1.75C56,54,58.46,51.64,59.64,48.48ZM46.56,53.8,44.93,45,40.7,53.82,36.47,45,34.84,53.8l-2-.3,2.9-14.82,5,10.71,5-10.71,2.9,14.82Z" style="fill:#fff"/><path d="M59.34,34.72l-.17-.34c-1.85-3.59-3.77-7.31-3.35-12a21.65,21.65,0,0,1,4.46-11.06l.44-.54L57.55,7.87,4.63,50.57,5,51.1a14.56,14.56,0,0,0,7.28,5.79,40.07,40.07,0,0,0,7.4,1.83c1.94.36,3.94.73,5.89,1.26A20.56,20.56,0,0,1,32,62.72l.43.31.43-.31A20.56,20.56,0,0,1,39.44,60c1.95-.53,4-.9,5.89-1.26a40.07,40.07,0,0,0,7.4-1.83c4.18-1.68,7-4.33,8.3-7.9C62.56,44.88,62,39.8,59.34,34.72ZM45.06,57.27c-2,.36-4,.74-6,1.29a23,23,0,0,0-6.57,2.66,23,23,0,0,0-6.57-2.66c-2-.55-4-.93-6-1.29a39.09,39.09,0,0,1-7.11-1.75,13.43,13.43,0,0,1-6.21-4.65L57.44,9.79,58.7,11a23.43,23.43,0,0,0-4.36,11.31c-.46,5.1,1.65,9.19,3.51,12.79l.17.33c2.43,4.71,3,9.36,1.61,13.09-1.17,3.15-3.68,5.52-7.46,7A39.08,39.08,0,0,1,45.06,57.27Z" style="fill:#005ca7"/><path d="M5.22,48.18,55.28,7.79,53,5.68A22,22,0,0,1,42.8,8.12h0A23.13,23.13,0,0,1,32.48,5.7,23.13,23.13,0,0,1,22.17,8.12h0A22,22,0,0,1,12,5.68L6.26,11a23.43,23.43,0,0,1,4.36,11.31c.46,5.11-1.65,9.19-3.51,12.8l-.17.33C4.59,39.94,4,44.54,5.22,48.18Zm21.92-24a7.45,7.45,0,0,1-7.45-7.45A7.38,7.38,0,0,1,21,12.5a5.29,5.29,0,0,1,1.17,1.16,5.8,5.8,0,0,0,.28,6.62h.15a5.76,5.76,0,0,0,1.18-3.51,5.84,5.84,0,1,0-2.92,5A8.14,8.14,0,0,0,22.08,23a7.45,7.45,0,1,1,.43-12.14h.11a7.36,7.36,0,0,1,4.51-1.53,7.45,7.45,0,1,1,0,14.89Z" style="fill:#005ca7"/><path d="M27.14,9.32a7.36,7.36,0,0,0-4.51,1.53h-.11A7.37,7.37,0,0,0,18,9.32,7.45,7.45,0,1,0,22.08,23a8.14,8.14,0,0,1-1.17-1.18,5.84,5.84,0,1,1,1.74-1.53h-.15a5.8,5.8,0,0,1-.28-6.62A5.29,5.29,0,0,0,21,12.5a7.38,7.38,0,0,0-1.35,4.27,7.45,7.45,0,1,0,7.45-7.45Zm0,13.27a5.78,5.78,0,0,1-3.31-1l0-.13a7.42,7.42,0,0,0,0-9.3l0-.13a5.82,5.82,0,1,1,3.31,10.61Z" style="fill:#fff"/><path d="M27.14,10.94a5.78,5.78,0,0,0-3.31,1l0,.13a7.42,7.42,0,0,1,0,9.3l0,.13a5.82,5.82,0,1,0,3.31-10.61Z" style="fill:#005ca7"/><polygon points="40.7 49.39 35.75 38.68 32.85 53.5 34.84 53.8 36.47 45.01 40.7 53.82 44.93 45.01 46.56 53.8 48.55 53.5 45.65 38.68 40.7 49.39" style="fill:#005ca7"/></svg>