<svg id="Capa_1" data-name="Capa 1" xmlns="http://www.w3.org/2000/svg" viewBox="0 0 332 348"><title>Assets</title><path d="M253.16,268,305,267.9a12.8,12.8,0,0,1,12.83,12.77l.12,47.13a12.8,12.8,0,0,1-12.77,12.83l-82.65.2c-8.75,0-9.66-7.83-9.68-16Z" style="fill:#f67280"/><path d="M284.3,171.57c-3.16-5.35-12.52-11.6-24.9.52A27,27,0,1,1,278.62,195C284.47,187.14,288.89,179.33,284.3,171.57Z" style="fill:#6c5b7b"/><path d="M140.5,199.91c2.86.14-53.55-6.88-69-30.35L64.74,187.4s.61,25.26,68.61,35.76Z" style="fill:#6c5b7b"/><path d="M10.23,308.15c0,6.65-10.06,6.65-10.06,0S10.23,301.49,10.23,308.15Z" style="fill:#355c7d"/><path d="M278.2,112.29a4.52,4.52,0,0,1-3.19-7.71l7.76-7.76c4.22-4.22,10.62,2.16,6.39,6.39C280.89,111.48,280.62,112.29,278.2,112.29Z" style="fill:#355c7d"/><path d="M243.36,111l-7.76-7.76C231.37,99,237.77,92.6,242,96.82l7.76,7.76a4.52,4.52,0,0,1-6.39,6.39Z" style="fill:#355c7d"/><path d="M257.6,98.86V86.51c0-6,9-6,9,0V98.86C266.64,104.83,257.6,104.83,257.6,98.86Z" style="fill:#355c7d"/><path d="M7.33,283.6c8.63-35.93,24.1-81.22,35.59-110.16,2.2-5.55,10.61-2.22,8.4,3.34-11.38,28.65-26.67,73.45-35.2,108.94a4.52,4.52,0,1,1-8.79-2.11Z" style="fill:#355c7d"/><path d="M18.46,339.28c-.74,5.93,8.23,7,9,1.12,5.74-46,22.76-101.91,37.26-141.18,7.84,6.92,29.9,23.24,68.07,28.42,4.14.56,4.59-2.35,11.49-16.13,7.3,22,15.91,54.64,21,69.23,2,5.65,10.5,2.67,8.54-3-7.05-20.31-22-79.46-26.77-81.83a5.24,5.24,0,0,0-1.87-.48c-11.63-.38-25.21,1.26-40.95-6C85.22,180.76,80.45,175,75.34,167.1a4.52,4.52,0,0,0-7.94.68C51.8,204.16,25.89,279.84,18.46,339.28ZM68.14,190.06c1.55-4,3-7.81,4.49-11.34,5.63,6.77,13,12.16,27.76,19,14.28,6.57,27,6.73,37.3,6.74l-6.9,13.79C89.75,211.78,69.45,191.42,68.14,190.06Z" style="fill:#355c7d"/><path d="M197.4,13.81c-3-7.37-10.89,3-34.79.53C142,12.2,137,1.3,115.48.46,87.67-.62,65.8,11.71,55.65,37.75c-5.73,14.7-4.5,32,3.64,51.42a6.45,6.45,0,0,0,1,1.84c-.06,10.19,6.38,21,14.82,26.61,0,.08,0,.16,0,.23,5.54,19.68,3.49,34.83-.28,42.44-2.66,5.36,5.44,9.36,8.1,4,5.07-10.22,5.94-25.93,2.54-42.15a37.7,37.7,0,0,0,8.81,1.09c6,0,6-9,0-9-19.61-.07-28.42-19.55-23.71-28.8,6.57-12.94,21.25-4.43,26.1,9.91a4.52,4.52,0,0,0,8.69-.45l2.82-12.49A11.7,11.7,0,0,1,122,73.57a84.29,84.29,0,0,0,41.27-1.48c2.26.14,8.67-2.05,12.3-3.74.65,5.5.25,9.84,1,18.23,1,10.86,10.51,22.57,12.74,31.93-1,.41-2.4.85-3.36,1.16-9.73,3.11-9.48,4.94-9.4,12.7,0,1.06,0,2.25,0,3.29-12.67,3.84-14.7,3.75-15.43,7.1s1.3,4.24,10,11.95c-.46,1.59-.82,3.47-1.23,5.66-.56,3-1.72,9.1-3,10.22-3.55,2.19-11.55,1.46-21.88-2-16.05-5.42-22.79-11.22-27.1-16.6-3.75-4.66-10.78,1-7,5.67,6.56,8.18,15,13.13,25.11,17.22v14.23a4.51,4.51,0,0,0,9,0V178c35.32,10.73,31.59-10.57,34.95-21.12.08-.08.17-.14.25-.22a4.52,4.52,0,0,0-.39-6.38l-5.18-4.58c11.56-3.51,10.73-1.56,11-16.35,4.51-1.81,13.88-3.16,13-10.11-1.41-11.5-12.21-24.32-13-33.47-.89-9.72-.11-14.41-1.65-22.36C199.92,51.53,204.41,31.27,197.4,13.81ZM179.64,55.26c-2.26.87-24.44,16.19-55.72,9.47C113.58,62.51,102.1,68.42,99.23,81c-9.6-12.53-25-15.54-34.49-3.16C52.48,40,75,7.93,115.13,9.49c22.87.89,35.08,22,75.17,11.54C193.69,33.64,190.2,46.74,179.64,55.26Z" style="fill:#355c7d"/><path d="M60.45,291c2.27,18.2,10.22,40.75,17.59,40.75,1.86,0-1.28,1.3,54.43-28.72,8,32.7,6.06,36.79,10.89,38a4.5,4.5,0,0,0,4.19-1.13c1.74-1.67,29.73-28.59,51.06-54.86.95.67,22.72,16.28,23.82,16.66-7.13,12.6-14.5,26.82-19.63,39.75a4.52,4.52,0,1,0,8.4,3.33c12.21-30.81,38.53-70.63,40.78-74,.37-.2,19.74-15.75,31.07-21.6,10.92-5.65,18.34-7.65,22-14.37,4-7.63,2.42-15.72,3.33-33.09,38.08-18.42,28.47-76.88-17.82-79.09-.91,0-82.48,10.78-83.38,10.9-5.9.78-4.77,9.74,1.18,9l82.19-10.83a32.63,32.63,0,0,1,32.39,32.59c0,22.66-22.62,37.54-41,31.13,5.75-7.53,11.8-16.6,6.25-26-5.36-9.09-17.94-11.56-29.66,1.83a32.48,32.48,0,0,1,3-22.11c2.78-5.28-5.22-9.49-8-4.2A41.43,41.43,0,0,0,248.74,166c-12.32-10.53-29-16.92-39.1-19.39-5.81-1.41-7.94,7.36-2.14,8.78,15.36,3.75,35,13.55,43.5,26.5-5.71,9.82-21.52,19.42-24.1,27.16-.15.4-13.82,36.94-13.87,37.37-13.59,27.9-42.87,58.4-66,81.38-6.6-32.82-16.71-81-45.7-100.17-5-3.3-10,4.24-5,7.53,17.28,11.45,27.47,36.34,33.79,58.92l-51,27.46c-5.75-8.45-8.94-25.22-9.75-31.61C68.67,284,59.7,285.06,60.45,291Zm187.68-28.55-25.6-16c2.84-7.31,8.32-22.1,11.41-30.43.09-.25,1.7-4.63,1.83-4.85,2.2-3.55,19.17-17.67,21.53-22,8.77-16.31,15.37-18.18,17.8-18.23a6.08,6.08,0,0,1,5.26,3.08c6,10.11-24.91,31.2-13,36.35a4.51,4.51,0,0,0,5.94-2.35,31.16,31.16,0,0,1,2.93-5.07,36.36,36.36,0,0,0,23,2C297.9,247,304.19,219.22,248.12,262.46Zm-43.9,15.45c6.29-8.22,11.62-16.14,14.93-22.93l22.94,14.37c-3.17,4.87-8.89,13.84-15.24,24.67C226.31,293.55,204.8,278.31,204.22,277.9Z" style="fill:#355c7d"/><path d="M167.69,102.76a4.51,4.51,0,0,1-6.36.42,4.76,4.76,0,0,0-6.27,0c-4.48,3.92-10.42-2.86-5.93-6.78C158.39,88.3,173.12,96.55,167.69,102.76Z" style="fill:#355c7d"/></svg>