<svg id="Capa_1" data-name="Capa 1" xmlns="http://www.w3.org/2000/svg" viewBox="0 0 612 612"><title>Ilustracion Call center</title><polygon points="404.2 148.92 404.2 148.92 404.2 148.92 404.2 148.92" style="fill:none"/><path d="M309.26,94.5c-2.11,0-4.28-.07-6.48-.07q-7.4,0-14.14.37,6.74-.38,14.13-.38C305,94.42,307.14,94.44,309.26,94.5Z" style="fill:none"/><path d="M315.48,94.73l-3-.13c.57,0,1.16,0,1.73.06Z" style="fill:none"/><path d="M312.4,94.6l-3.14-.1,1.63,0Z" style="fill:none"/><path d="M267.66,115.61a147.65,147.65,0,0,1,17-2.23A152.31,152.31,0,0,0,267.66,115.61Z" style="fill:none"/><path d="M305.77,112.74h-3q-7.93,0-14.94.43,7-.43,14.95-.44C303.79,112.72,304.78,112.72,305.77,112.74Z" style="fill:none"/><path d="M356.05,120.94l-.91-.38.53.21Z" style="fill:none"/><path d="M392.32,213v-.6c0-1.26,0-2.51,0-3.76,0-.68,0-1.35,0-2s0-1.15,0-1.71c0-.78,0-1.54,0-2.31,0-.51,0-1,0-1.53,0-1,0-2-.05-3l0-1.32-.06-2.59,0-1c0-1.09-.07-2.16-.11-3.24,0-.38,0-.76-.05-1.13,0-.88-.08-1.75-.12-2.62,0-.28,0-.55,0-.83-.06-1.07-.13-2.12-.21-3.18,0-.33-.05-.67-.07-1-.07-.85-.13-1.69-.22-2.53l-.06-.8c-.1-1-.21-2-.32-3,0-.31-.07-.62-.1-.92-.1-.81-.2-1.62-.31-2.43,0-.26-.06-.51-.1-.76-.13-1-.29-2-.44-2.92-.05-.28-.09-.55-.14-.83-.13-.78-.28-1.56-.42-2.32-.05-.25-.09-.5-.14-.75-.18-.93-.39-1.86-.61-2.77-.05-.26-.11-.5-.17-.76-.18-.74-.37-1.48-.56-2.2l-.18-.72c-.25-.89-.51-1.76-.78-2.63-.07-.23-.15-.45-.23-.68-.23-.71-.47-1.4-.72-2.07l-.25-.7c-.32-.83-.64-1.65-1-2.46-.08-.21-.17-.4-.26-.61-.29-.66-.6-1.3-.9-1.95l-.31-.66c-.39-.78-.79-1.54-1.21-2.3l-.31-.52c-.35-.62-.72-1.23-1.1-1.83-.12-.21-.26-.41-.39-.62-.46-.72-.94-1.44-1.46-2.13l-.33-.43c-.43-.58-.88-1.16-1.33-1.71-.15-.19-.31-.38-.47-.56-.55-.67-1.13-1.32-1.73-2-.11-.12-.23-.24-.35-.35-.51-.54-1.06-1.08-1.61-1.6l-.54-.51c-.66-.61-1.33-1.2-2-1.78l-.34-.26c-.63-.51-1.27-1-1.94-1.49l-.63-.45c-.77-.54-1.56-1.08-2.38-1.59l-.28-.17c-.76-.46-1.54-.91-2.34-1.36l-.7-.38c-.89-.48-1.81-1-2.76-1.41l-.15-.07c-.91-.44-1.86-.85-2.82-1.25l-.91-.38-1.3-.51-1.11-.41-1.37-.49-1.16-.39-1.43-.45-1.21-.36-1.48-.42c-.42-.11-.84-.24-1.26-.34l-1.53-.39-1.33-.32-1.55-.34-1.43-.31-1.56-.3-1.54-.29-1.54-.26-1.67-.27c-.49-.08-1-.14-1.5-.22l-1.83-.26-1.45-.17-2-.23-1.34-.13-2.23-.22-1.18-.09c-.83-.06-1.66-.13-2.51-.18l-.92-.05c-1-.06-1.91-.12-2.89-.16l-.48,0c-1.84-.09-3.72-.15-5.65-.19-1,0-1.93,0-2.91-.05h-3v212c1.14,0,2.28,0,3.41-.08l.49,0c1.12-.05,2.23-.13,3.33-.24l.33,0c1.06-.1,2.12-.24,3.18-.38l.3,0c1.1-.16,2.18-.35,3.26-.55l.48-.09q3.29-.66,6.51-1.58l.39-.11c1.07-.32,2.14-.66,3.2-1l.14-.05q3.32-1.14,6.53-2.58l.12-.06a86.08,86.08,0,0,0,21.22-13.69,103.29,103.29,0,0,0,25.41-34.08.08.08,0,0,1,0-.05q1.88-4,3.47-8.21a1.15,1.15,0,0,0,.05-.13c.32-.84.63-1.68.92-2.53.05-.16.11-.34.17-.51.26-.74.5-1.49.75-2.24l.18-.6c.25-.78.49-1.56.72-2.35,0-.14.09-.29.13-.43.54-1.88,1-3.77,1.5-5.68.05-.24.1-.48.16-.72.15-.7.32-1.4.46-2.09.07-.32.13-.65.21-1l.37-1.91.18-1c.12-.65.23-1.3.34-1.95l.15-1c.13-.89.27-1.8.38-2.7l.06-.5q.17-1.28.31-2.59c0-.37.07-.74.1-1.11.06-.62.12-1.22.16-1.84,0-.42.07-.84.1-1.25,0-.58.07-1.17.11-1.75l.06-1.27c0-.61.05-1.22.07-1.84,0-.39,0-.78,0-1.18,0-.83,0-1.67,0-2.51,0-.15,0-.31,0-.46C392.33,216.8,392.32,214.89,392.32,213ZM352.61,202.6a8.58,8.58,0,0,0-12,0,9.13,9.13,0,0,1-12.91-.16c-12-12.36,19-31.09,37.63-12.91C374,198,361.24,211,352.61,202.6Z" style="fill:#e4e7e8"/><path d="M302.77,112.73q-7.93,0-14.94.43c-1.08.06-2.14.13-3.18.23a152.31,152.31,0,0,0-17,2.23l-.9.17c-1.19.24-2.35.49-3.49.76-.89.21-1.76.42-2.63.65-1.46.38-2.87.79-4.25,1.22s-2.7.88-4,1.35-2.53,1-3.73,1.5a52.87,52.87,0,0,0-19.53,14l-.08.1c-.41.48-.82,1-1.21,1.47-14.65,18.6-14.65,47-14.65,81.95a120.19,120.19,0,0,0,13,54.92c15.73,30.6,44.17,51.08,76.58,51.08Zm-14.61,89.35a9.12,9.12,0,0,1-12.88.86,10,10,0,0,0-6.49-2.4c-6,.09-6.34,4.66-12.21,4.66a9.13,9.13,0,0,1-6.88-3.12c-8.15-9.33,5.78-19.59,18.83-19.78C281.38,181.93,296.6,192.43,288.16,202.08Z" style="fill:#fff"/><path d="M390.62,123.39l.13.15c-.43-.49-.84-1-1.29-1.48C389.86,122.5,390.24,122.95,390.62,123.39Z" style="fill:#ee7381"/><path d="M404.2,148.92c-.13-.43-.28-.85-.41-1.27l-.09-.26c-.12-.39-.26-.78-.39-1.17-.07-.18-.13-.37-.2-.55l-.4-1.1-.22-.56c-.23-.62-.46-1.21-.71-1.82-.09-.25-.2-.48-.3-.73s-.26-.61-.39-.91l-.34-.77c-.12-.3-.26-.58-.39-.87s-.3-.66-.46-1-.37-.78-.56-1.17-.31-.62-.47-.92l-.4-.77c-.15-.29-.31-.58-.47-.87l-.4-.73-.33-.56c-.12-.22-.25-.43-.38-.65s-.31-.52-.47-.78-.4-.67-.61-1-.29-.45-.44-.68-.39-.6-.6-.89-.28-.42-.42-.63c-.33-.47-.65-.93-1-1.4l-.36-.47-.76-1-.46-.58c-.24-.31-.48-.61-.74-.91l-.31-.38a61.19,61.19,0,0,1,6.53,9.07c.56.94,1.09,1.89,1.58,2.83A72.12,72.12,0,0,1,404.2,148.92Z" style="fill:#ee7381"/><path d="M275.28,202.94a9.13,9.13,0,0,0,12.88-.86c8.44-9.65-6.79-20.16-19.64-19.79-13,.19-27,10.46-18.83,19.78a9.11,9.11,0,0,0,6.88,3.12c5.87,0,6.2-4.56,12.22-4.66A9.94,9.94,0,0,1,275.28,202.94Z" style="fill:#365d7e"/><path d="M365.37,189.54c-18.65-18.18-49.67.55-37.63,12.9a9.13,9.13,0,0,0,12.91.17,8.58,8.58,0,0,1,12,0C361.24,211,374,198,365.37,189.54Z" style="fill:#365d7e"/><path d="M490.56,481.87c-4.06-54.24-38.2-106.24-88.62-127.51-1.62-.68-3.67-1.64-6-2.69-11.48-5.23-29.7-13-36.9-3.35q-1.7,1.72-3.54,3.35l-1.11,1c-23,19.57-59.21,23.68-86,9.65-4.72-2.46-9.48-6.84-14.38-10.61-3.92-3-7.92-5.65-12.07-6.6-7.75-1.79-19.33,3.69-26.68,6.51l-.23.09A154.73,154.73,0,0,0,167.25,381c-28.69,25.85-47.07,62.26-50,100.85a8.89,8.89,0,0,0,3.23,7.54c19,15.53,40.58,27.32,62.38,38.36a248.31,248.31,0,0,0,68.51,22.55,292.78,292.78,0,0,0,235.91-60.91A8.88,8.88,0,0,0,490.56,481.87Zm-68.61,28.3V461.68a8.9,8.9,0,1,0-17.8,0V518a271.71,271.71,0,0,1-49.75,14.6,277.75,277.75,0,0,1-49.54,4.84c-.31,0-.62,0-.94,0s-.62,0-.93,0a277.75,277.75,0,0,1-49.54-4.84A271.48,271.48,0,0,1,203.7,518V461.68a8.9,8.9,0,1,0-17.8,0v48.49a270.91,270.91,0,0,1-50.44-31.56c6.8-63.14,54-98.11,84.51-110.65a132.24,132.24,0,0,1,16.54-4.68c18.52,17,43.1,25.19,67.41,25,24.32.21,48.89-8,67.42-25A132.25,132.25,0,0,1,387.88,368c30.45,12.54,77.71,47.51,84.51,110.65A271.23,271.23,0,0,1,421.95,510.17Z" style="fill:#365d7e"/><path d="M421.95,510.17V461.68a8.9,8.9,0,1,0-17.8,0V518a271.71,271.71,0,0,1-49.75,14.6,277.75,277.75,0,0,1-49.54,4.84c-.31,0-.62,0-.94,0s-.62,0-.93,0a277.75,277.75,0,0,1-49.54-4.84A271.48,271.48,0,0,1,203.7,518V461.68a8.9,8.9,0,1,0-17.8,0v48.49a270.91,270.91,0,0,1-50.44-31.56c6.8-63.14,54-98.11,84.51-110.65a132.24,132.24,0,0,1,16.54-4.68c18.52,17,43.1,25.19,67.41,25,24.32.21,48.89-8,67.42-25A132.25,132.25,0,0,1,387.88,368c30.45,12.54,77.71,47.51,84.51,110.65A271.23,271.23,0,0,1,421.95,510.17Z" style="fill:#ee7381"/><path d="M466.54,17.33v0A.11.11,0,0,0,466.54,17.33Z" style="fill:#fff"/><path d="M337.49,277.82c-20.86,15.81-45.06,16.5-66.83,0-9.62-7.29,1.41-21.83,11-14.55,14.77,11.19,30,11.19,44.78,0a9.13,9.13,0,0,1,11,14.55Z" style="fill:#365d7e"/><path d="M365.36,240.06c-1.45,8.49-2.65,16.64-7.22,23.58s6,14,10.6,7a44.6,44.6,0,0,0,3.18-5.73c3.44-7.41,4.66-15.09,5.94-22.7.76-4.45-2.53-7.12-5.94-7.34A6,6,0,0,0,365.36,240.06Z" style="fill:#ee7381"/><path d="M233.5,232.72a6.34,6.34,0,0,0-5.3,7.24c7.77,50.25,25.17,30.4,20.16,22.9C238.35,247.86,244.54,231,233.5,232.72Z" style="fill:#ec6667"/><path d="M233.5,232.72a6.34,6.34,0,0,0-5.3,7.24c7.77,50.25,25.17,30.4,20.16,22.9C238.35,247.86,244.54,231,233.5,232.72Z" style="fill:#ee7382"/><circle cx="477.95" cy="526.49" r="9.04" transform="translate(-16.86 15.81) rotate(-1.86)" style="fill:#365d7e"/><path d="M450.42,542.12a8.19,8.19,0,0,0-10.78-4.2,333.17,333.17,0,0,1-122.8,28l-.76,0a334.3,334.3,0,0,1-164.52-37.31c-9.61-5-17.13,9.54-7.54,14.52a350.69,350.69,0,0,0,172.58,39.14l.78,0A349.93,349.93,0,0,0,446.22,552.9,8.18,8.18,0,0,0,450.42,542.12Z" style="fill:#365d7e"/><path d="M405.25,152.18c-1.84-9.32-4-18.48-6.28-27.36a182.25,182.25,0,0,0-10.68-30.76c-7.94-17.23-15.29-23.7-16.1-24.38a7.35,7.35,0,0,0-9.27-.12l-12.58,10L339.86,68.29a7.35,7.35,0,0,0-9.79-.81L314.93,79.06l-13.7-10a7.38,7.38,0,0,0-8.21-.31L276.31,79.14,261.07,68.89a7.37,7.37,0,0,0-9.21.82L236.13,85.13c-1.26-.81-2.67-1.69-4.11-2.57-8.54-5.17-13.05-7.18-17.29-5.43s-5,4.88-7.27,20.62h-.17L206.15,107c-1,7.09-2.06,15.65-3.29,25.58-2.11,17.22-4.1,34.52-5.11,43.31l-1.62,13.37c-1,16-1.24,30.12-1.24,30.12.4,44.4,22.45,83.13,54.93,103.6a98.59,98.59,0,0,0,52.89,15.5c44.29,0,81.81-31,97.58-69.66C415.14,232.48,412.87,190.93,405.25,152.18ZM222.65,93.3c3.17,1.87,7,4.3,10.29,6.52a7.33,7.33,0,0,0,9.22-.81l15.67-15.36,14.22,9.57a7.41,7.41,0,0,0,8,.13l16.53-10.28,14.12,10.31a7.37,7.37,0,0,0,8.78-.09l14.21-10.86,10.58,11.38a7.36,7.36,0,0,0,9.9.72l12.37-9.85c3.83,5.27,9.92,15.56,15.49,33.18-8.68-6.81-20-12.13-34.8-15.56l-2.66-.6-2.76-.54c-.91-.17-1.85-.35-2.8-.51q-2.86-.48-5.89-.89c-1.5-.21-3-.39-4.6-.56h0l-3.16-.32h0c-1.6-.14-3.23-.28-4.89-.39l-1.69-.11-1.91-.11q-6.74-.35-14.14-.35-3.31,0-6.48.06l-3.14.1H293l-3,.13c-1.07,0-2.12.09-3.2.16l-1.55.1c-34.1,2.34-54.34,12.1-66.6,23.57C220.2,109.89,221.61,99.72,222.65,93.3ZM379.29,271.37c-15.73,29.61-44.17,49.42-76.58,49.42-1.14,0-2.28,0-3.41-.07l-.49,0c-1.12-.05-2.23-.13-3.33-.23l-.33,0c-1.06-.1-2.12-.24-3.18-.37l-.3,0c-1.1-.16-2.18-.34-3.26-.53l-.48-.09c-2.2-.43-4.36-.93-6.51-1.53l-.39-.11c-1.07-.31-2.14-.64-3.2-1l-.14-.05q-3.32-1.11-6.53-2.49l-.12-.06a86.48,86.48,0,0,1-21.22-13.25,100.33,100.33,0,0,1-25.41-33,.08.08,0,0,0,0-.05q-1.88-3.88-3.47-7.94a1.15,1.15,0,0,1-.05-.13c-.32-.81-.63-1.62-.92-2.45l-.17-.49c-.26-.72-.5-1.44-.75-2.16l-.18-.57c-.25-.76-.49-1.51-.72-2.28,0-.13-.09-.28-.13-.42-.54-1.82-1-3.64-1.5-5.5-.05-.23-.1-.46-.16-.69-.15-.68-.32-1.35-.46-2-.07-.31-.13-.63-.21-.93l-.37-1.85-.18-1c-.12-.63-.23-1.25-.34-1.88l-.15-.93c-.13-.87-.27-1.74-.38-2.62l-.06-.48c-.11-.83-.22-1.66-.31-2.5,0-.36-.07-.72-.1-1.08-.06-.6-.12-1.18-.16-1.78,0-.41-.07-.81-.1-1.21,0-.56-.07-1.13-.11-1.7l-.06-1.23c0-.58-.05-1.18-.07-1.78,0-.38,0-.75,0-1.14,0-.8,0-1.62,0-2.43,0-.15,0-.3,0-.45,0-1.88,0-3.72,0-5.56v-.57c0-1.22,0-2.43,0-3.63,0-.66,0-1.31,0-2s0-1.11,0-1.65c0-.76,0-1.49,0-2.24,0-.49,0-1,0-1.48,0-1,0-1.95.05-2.91l0-1.28.06-2.5,0-.93c0-1,.07-2.09.11-3.13,0-.37,0-.74.05-1.1,0-.85.08-1.69.12-2.53,0-.27,0-.53,0-.8.06-1,.13-2.05.21-3.08,0-.32.05-.65.07-1,.07-.82.13-1.64.22-2.45l.06-.77c.1-1,.21-2,.32-3,0-.3.07-.6.1-.89.1-.78.19-1.57.31-2.35,0-.25.06-.5.1-.74.13-1,.29-1.9.44-2.83.05-.27.09-.53.14-.8.13-.76.28-1.51.42-2.25.05-.24.09-.48.14-.72.18-.91.39-1.81.61-2.69.05-.25.11-.48.17-.73.18-.72.37-1.44.56-2.12.06-.25.12-.47.18-.7.25-.86.51-1.71.78-2.54l.23-.66c.23-.69.47-1.34.72-2,.08-.24.16-.45.25-.68.32-.81.64-1.6,1-2.38.08-.21.17-.39.26-.6.29-.63.6-1.25.9-1.88l.31-.64c.39-.76.79-1.5,1.21-2.23l.31-.5c.35-.61.72-1.2,1.1-1.78l.39-.6c.46-.7.94-1.39,1.46-2.06.1-.14.22-.28.33-.42.43-.56.88-1.12,1.33-1.65.15-.19.31-.37.47-.55.55-.65,1.13-1.27,1.73-1.89a3.61,3.61,0,0,1,.35-.34c.51-.53,1.06-1,1.61-1.55l.54-.5c.66-.58,1.33-1.16,2-1.71a3.53,3.53,0,0,1,.34-.25c.63-.5,1.27-1,1.94-1.45l.63-.43c.77-.53,1.56-1,2.38-1.54l.28-.17c.76-.44,1.54-.88,2.34-1.31.23-.12.46-.26.7-.37.89-.47,1.81-.92,2.76-1.36l.15-.07c.91-.42,1.86-.82,2.82-1.21l.38-.16.53-.19,1.3-.5c.37-.12.74-.27,1.11-.4l1.37-.47,1.16-.38,1.43-.43c.4-.12.8-.25,1.21-.35l1.48-.41,1.26-.33,1.53-.38,1.33-.31,1.55-.33,1.43-.3,1.56-.29,1.54-.28c.5-.09,1-.16,1.54-.25l1.67-.26c.49-.08,1-.14,1.5-.21l1.83-.26,1.45-.16c.66-.07,1.32-.15,2-.22l1.34-.13,2.23-.21,1.18-.09c.83-.06,1.66-.13,2.51-.17l.92-.05c1-.06,1.91-.12,2.89-.16l.48,0c1.84-.08,3.72-.14,5.65-.18,1,0,1.93,0,2.91-.05s2,0,3,0c5.29,0,10.27.15,14.95.43,1.08.06,2.14.12,3.18.22a153.12,153.12,0,0,1,17,2.15l.9.16c1.19.24,2.35.48,3.49.74.89.19,1.76.41,2.63.63,1.46.37,2.87.77,4.25,1.18s2.7.85,4,1.31,2.53.94,3.73,1.45a52.91,52.91,0,0,1,19.53,13.5l.08.1c.41.47.82.94,1.21,1.43,14.65,18,14.65,45.53,14.65,79.3A113.31,113.31,0,0,1,379.29,271.37Z" style="fill:#365d7e"/><path d="M382,117.86c-8.68-6.81-20-12.13-34.8-15.56l-2.66-.6-2.76-.54c-.91-.17-1.85-.35-2.8-.51q-2.86-.48-5.89-.89c-1.5-.21-3-.39-4.6-.56h0l-3.16-.32h0c-1.6-.14-3.23-.28-4.89-.39l-1.69-.11-1.91-.11q-6.74-.35-14.14-.35-3.31,0-6.48.06l-3.14.1H293l-3,.13c-1.07,0-2.12.09-3.2.16l-1.55.1c-34.1,2.34-54.34,12.1-66.6,23.57,1.55-12.15,3-22.32,4-28.74,3.17,1.87,7,4.3,10.29,6.52a7.33,7.33,0,0,0,9.22-.81l15.67-15.36,14.22,9.57a7.41,7.41,0,0,0,8,.13l16.53-10.28,14.12,10.31a7.37,7.37,0,0,0,8.78-.09l14.21-10.86,10.58,11.38a7.36,7.36,0,0,0,9.9.72l12.37-9.85C370.36,90,376.46,100.24,382,117.86Z" style="fill:#ee7381"/><path d="M187.25,231.79A5.36,5.36,0,1,1,178.1,228a5.36,5.36,0,0,1,9.15,3.79Z" style="fill:#365d7e"/><path d="M305.19,44.16V33.44H256.94v11a85.78,85.78,0,0,0-80.41,85.51v10.72h-5.36a26.8,26.8,0,0,0-26.81,26.8v64.33a26.81,26.81,0,0,0,26.81,26.81h38.19l-.67-117.94H187.25V129.94a75.06,75.06,0,0,1,69.69-74.79V65.6h48.25V54.88H267.66V44.16ZM198,151.38v96.5h-26.8a16.09,16.09,0,0,1-16.09-16.09V167.46a16.09,16.09,0,0,1,16.09-16.08h5.36v59a5.36,5.36,0,1,0,10.72,0v-59Z" style="fill:#365d7e"/><path d="M187.25,151.38v59a5.36,5.36,0,1,1-10.72,0v-59h-5.36a16.09,16.09,0,0,0-16.09,16.08v64.33a16.09,16.09,0,0,0,16.09,16.09H198v-96.5Zm-1.57,84.21A5.36,5.36,0,0,1,178.1,228a5.36,5.36,0,0,1,9.15,3.79A5.33,5.33,0,0,1,185.68,235.59Z" style="fill:#e4e7e8"/><path d="M418.29,255.25V280a26.8,26.8,0,0,1-26.8,26.8H321.56a5.36,5.36,0,0,0-5.36,5.36h0a5.36,5.36,0,0,0,5.36,5.36h69.93A37.53,37.53,0,0,0,429,280V255.25Z" style="fill:#ee7381"/><rect x="298.06" y="306.85" width="10.72" height="10.72" rx="5.36" ry="5.36" style="fill:#ee7381"/><path d="M429.2,231.79a5.36,5.36,0,1,1-1.57-3.79A5.36,5.36,0,0,1,429.2,231.79Z" style="fill:#365d7e"/><path d="M435.27,140.66h-5.37V129.94A85.78,85.78,0,0,0,349.5,44.43v-11H301.24V44.16h37.53V54.88H301.24V65.6H349.5V55.15a75.06,75.06,0,0,1,69.69,74.79v10.72H397.74l-.67,117.94h38.2a26.81,26.81,0,0,0,26.8-26.81V167.46A26.8,26.8,0,0,0,435.27,140.66Zm16.08,91.13a16.09,16.09,0,0,1-16.08,16.09H408.46v-96.5h10.72v59a5.36,5.36,0,1,0,10.72,0v-59h5.37a16.08,16.08,0,0,1,16.08,16.08Z" style="fill:#365d7e"/><path d="M435.27,151.38h-5.37v59a5.36,5.36,0,1,1-10.72,0v-59H408.46v96.5h26.81a16.09,16.09,0,0,0,16.08-16.09V167.46A16.08,16.08,0,0,0,435.27,151.38Zm-11.43,85.78a5.36,5.36,0,1,1,5.36-5.37A5.33,5.33,0,0,1,423.84,237.16Z" style="fill:#e4e7e8"/><rect x="267.66" y="44.16" width="71.11" height="10.72" style="fill:#e4e7e8"/></svg>