<svg id="Capa_1" data-name="Capa 1" xmlns="http://www.w3.org/2000/svg" viewBox="0 0 328 307"><title>Assets</title><path d="M183.73,113s-4-62,9.44-64.71l9.28,4.64,13.13-7.72L228.7,52.9l13.15-7.72,15.36,8.47,13.48-6.07c7.45,37.25,6.53,21.88,4,67.41L261.92,90.06,241,82l-18.87-1.35-20.22,4.72-9.44,10.11Z" style="fill:#f67280"/><path d="M4.9,254.72s5.31-53.85,59.16-66c0,0,33.37,28.07,67.51,0,0,0,56.89,11.38,63,65.23C194.53,254,105,337.4,4.9,254.72Z" style="fill:#f67280"/><path d="M121.88,149.32c2.83-4.3,3.57-9.35,4.47-14.61s8.61-3.8,7.74,1.31c-1,5.94-1.93,12-5.65,17.61C125.59,158,119,153.66,121.88,149.32Z" style="fill:#f67280"/><path d="M68.07,134.64a3.93,3.93,0,0,1,3.28-4.48c6.84-1.09,3,9.38,9.21,18.67C83.66,153.47,72.89,165.77,68.07,134.64Z" style="fill:#f86464"/><path d="M65.64,188.33a50.92,50.92,0,0,0,34,13Z" style="fill:#f67280"/><circle cx="177.42" cy="288.81" r="4.33" style="fill:#355c7d"/><path d="M279.7,182.84c5.72,0,5.73-8.66,0-8.66S274,182.84,279.7,182.84Z" style="fill:#355c7d"/><path d="M77.77,125.2H89.54c5.18,0,5.18-7.83,0-7.83H77.77a3.92,3.92,0,1,0,0,7.83Z" style="fill:#355c7d"/><path d="M114.76,125.2h11.77c5.18,0,5.18-7.83,0-7.83H114.76a3.92,3.92,0,1,0,0,7.83Z" style="fill:#355c7d"/><path d="M84.74,158.49c9.76,7.4,21.07,7.75,31.3,0,4.12-3.13-.6-9.37-4.73-6.24-7.18,5.44-14.66,5.45-21.84,0C85.34,149.12,80.61,155.36,84.74,158.49Z" style="fill:#355c7d"/><path d="M158.91,293.68a159.17,159.17,0,0,1-59.19,11.5h-.36a160,160,0,0,1-78.12-20.41c-4.52-2.53-8.34,4.3-3.83,6.83a167.86,167.86,0,0,0,82,21.41h.37A167,167,0,0,0,161.82,301a3.92,3.92,0,1,0-2.92-7.27Z" style="fill:#355c7d"/><path d="M99.36,295.53h.33a150.07,150.07,0,0,0,62.07-13.62,3.86,3.86,0,0,0,.67-.3,148.92,148.92,0,0,0,35.76-23.27,3.92,3.92,0,0,0,1.32-3.24c-3.23-42.17-38.83-68.16-64.06-70.48a5.31,5.31,0,0,0-1.45-.19,4.22,4.22,0,0,0-.5,0,3.89,3.89,0,0,0-2.44,1,46.93,46.93,0,0,1-62.8,0,4.05,4.05,0,0,0-3.16-1C28.37,189.58.17,224.13.08,256.16a4,4,0,0,0,1.34,3A149.9,149.9,0,0,0,99.36,295.53Zm-34.85-103a54.78,54.78,0,0,0,70.34,0,69.6,69.6,0,0,1,56.67,61.29,141,141,0,0,1-27.12,18.18V246.19a3.92,3.92,0,1,0-7.83,0v29.47a142.24,142.24,0,0,1-56.89,12h-.32A142.2,142.2,0,0,1,46,277.26V246.19c0-5.18-7.83-5.18-7.83,0v27.65A141.65,141.65,0,0,1,8.05,254.46,69.39,69.39,0,0,1,64.51,192.51Z" style="fill:#355c7d"/><path d="M217,122.75a3.92,3.92,0,0,0,5.53-.37c3.62-4.14-2.91-8.65-8.43-8.49s-11.57,4.49-8.08,8.49a3.91,3.91,0,0,0,3,1.34c2.52,0,2.66-2,5.24-2A4.27,4.27,0,0,1,217,122.75Z" style="fill:#355c7d"/><path d="M239.47,122.53a3.92,3.92,0,0,0,5.54.07,3.68,3.68,0,0,1,5.14,0c3.7,3.62,9.18-2,5.47-5.61C247.61,109.2,234.3,117.23,239.47,122.53Z" style="fill:#355c7d"/><path d="M238.92,148.63c-6.33,4.8-12.88,4.8-19.21,0-4.13-3.12-8.86,3.11-4.73,6.24,9.34,7.08,19.72,6.78,28.67,0a3.92,3.92,0,0,0-4.73-6.24Z" style="fill:#355c7d"/><path d="M228.75,182.86c25.36,0,46-23.64,46.27-52.8,14.23-56.38-3.6-86.32-3.6-86.32a3.4,3.4,0,0,0-.79-.83c-2.48-2-7.49-.85-11.9,3.82C257.16,48.4,256.53,49,255,49c-1.37,0-2-.61-3.6-2.48-1.78-2.09-4.47-5.24-9.57-5.24s-7.79,3.15-9.56,5.24c-6.66,7.82-6.09-5.24-16.7-5.24-5.1,0-7.78,3.15-9.56,5.24-1.59,1.87-2.22,2.48-3.57,2.48-3.74,0-5-6.88-13.08-7a3.31,3.31,0,0,0-1.12.17,4,4,0,0,0-2.17,1.56c-2.51,3.72-16.57,34.9-3.6,86.32C182.74,159.23,203.39,182.86,228.75,182.86Zm0-7.86c-21.19,0-38.43-20.4-38.43-45.48,0-27.39,0-45.49,38.43-45.49s38.43,18.09,38.43,45.49C267.18,154.6,249.94,175,228.75,175ZM191.42,50.58c2.17,1.66,4.64,6.25,11,6.25,5.1,0,7.78-3.15,9.56-5.24,1.59-1.87,2.22-2.48,3.57-2.48s2,.61,3.56,2.48c1.77,2.09,4.46,5.25,9.55,5.25s7.79-3.15,9.56-5.24c1.6-1.87,2.22-2.48,3.58-2.48s2,.61,3.59,2.48c1.78,2.09,4.47,5.24,9.57,5.24,6.42,0,8.89-4.6,11.07-6.25,2.74,6.63,8.37,26.17,6.2,49C268,85.83,257,76.18,228.75,76.18s-39.23,9.65-43.52,23.39C183.22,78.46,187.94,59,191.42,50.58Z" style="fill:#355c7d"/><path d="M327.87,238.42c-3.58-20.74-15.24-39.63-32.82-53.18-4.11-3.16-8.88,3-4.78,6.2,9.28,7.15,25.5,22.94,29.88,48.31a3.92,3.92,0,0,0,7.72-1.33Z" style="fill:#355c7d"/><path d="M253.5,188.82c-6.09,6.22-15.11,9.78-24.83,9.78-9.54,0-18.91-3.81-25.06-10.18a4,4,0,0,0-3.77-1.06,65.17,65.17,0,0,0-23.5,9.24,3.92,3.92,0,0,0,4.23,6.59,57.18,57.18,0,0,1,19-7.79c16.32,15,43.29,14.46,58.67-.24,10.48,1.2,41.47,16.61,45.18,51a119.72,119.72,0,0,1-22.21,13.9V238.73a3.92,3.92,0,0,0-7.83,0v24.81c-26.84,10.7-53.31,10.54-81.34,4.09a3.92,3.92,0,1,0-1.76,7.63,235.71,235.71,0,0,0,29.8,4.41c2.88.19,5.81.29,8.72.29a128.57,128.57,0,0,0,81.19-29,3.91,3.91,0,0,0,1.42-3.32C307.91,201,259,181.51,253.5,188.82Z" style="fill:#355c7d"/><path d="M49.39,72.18a51.61,51.61,0,0,0-.67,7.08A13.28,13.28,0,0,0,39,92v6c0,6.6,4.92,13.26,14.22,13.26-.27,4.91-.29,10-.29,15.42,0,32.13,21.09,57.3,48,57.3s48-25.17,48-57.3c0-5.39,0-10.5-.28-15.42,10,0,14.88-6.53,14.88-13.26V92A13.28,13.28,0,0,0,151.7,78.86a51.59,51.59,0,0,0-.67-6.78C156.58,68.64,193.2,32,145.21.64a3.93,3.93,0,0,0-5.41,5.47c.09.13,8.89,13.55,5.33,24.32-1.56,4.72-5.48,8.38-11.6,10.92a51.37,51.37,0,0,0-66.65,0c-6.18-2.54-10.13-6.21-11.7-11C51.61,19.67,60.41,6.25,60.49,6.12A3.93,3.93,0,0,0,55.08.64C39.62,10.73,31.42,22.37,30.71,35.23,29.68,53.81,46,70.24,49.39,72.18ZM141,126.77c0,27.73-17.64,49.45-40.15,49.45S60.74,154.5,60.74,126.77c0-5.43,0-10.59.3-15.42h79.71C141,116.18,141,121.33,141,126.77ZM155.64,92v6a5.41,5.41,0,0,1-5.41,5.41h-98a5.41,5.41,0,0,1-5.41-5.41V92a5.41,5.41,0,0,1,5.41-5.41h98A5.41,5.41,0,0,1,155.64,92ZM152.84,17c14.32,15.26,10.24,32.23-4,46.56a51.53,51.53,0,0,0-9.38-16.27C151.62,41,156,30.22,152.84,17Zm-9,61.82h-39.7V64.25c0-5.19-7.86-5.2-7.86,0V78.78H56.59a43.66,43.66,0,0,1,87.25,0ZM47.45,17C44.36,30,48.5,41,61,47.3a51.52,51.52,0,0,0-9.37,16.32C37.27,49.33,33,32.31,47.45,17Z" style="fill:#355c7d"/></svg>