<?xml version="1.0" encoding="utf-8"?>
<!-- Generator: Adobe Illustrator 21.0.2, SVG Export Plug-In . SVG Version: 6.00 Build 0)  -->
<svg version="1.1" id="Ebene_1" xmlns="http://www.w3.org/2000/svg" xmlns:xlink="http://www.w3.org/1999/xlink" x="0px" y="0px"
	 viewBox="0 0 566 566" style="enable-background:new 0 0 566 566;" xml:space="preserve">
<style type="text/css">
	.st0{fill:#FFFFFF;}
	.st1{fill:#D6B61A;}
</style>
<g>
	<path d="M283,0c156.3,0,283,126.7,283,283c0,156.3-126.7,283-283,283C126.7,566,0,439.3,0,283C0,126.7,126.7,0,283,0z"/>
	<circle class="st0" cx="283" cy="283" r="189.1"/>
	<path d="M359.7,301.6l68.3,89.4c22.5-30.1,35.7-67.5,35.7-107.9c0-99.8-80.9-180.8-180.8-180.8c-99.9,0-180.8,80.9-180.8,180.8
		c0,40.5,13.3,77.8,35.7,107.9l68.3-89.4c0.8,11.5,3.4,31.2,12,52l-51.8,67.7c31.5,26.5,72.1,42.5,116.5,42.5
		c44.4,0,85-16,116.5-42.5l-51.8-67.7C356.3,332.8,358.9,313.1,359.7,301.6z"/>
	<path class="st1" d="M142.6,83.1c-3.4-13,13-42.5,44.6-49.6C187.1,33.5,146,96.1,142.6,83.1z"/>
	<path class="st1" d="M125.4,107.9c4.5,6.3,14.7-47.1,12.2-58c0,0-14.7,26.9-15.5,40C122,89.8,117,96.1,125.4,107.9z"/>
	<path class="st1" d="M126.2,128.5c0,0,2.9-19.4,11.3-29.8c8.4-10.5,50.4-42.5,53-46.2c0,0-2,23.1-15.5,33.2
		C151.9,102.8,126.2,128.5,126.2,128.5z"/>
	<path class="st1" d="M124.5,138.6c0,0,16-29,52.1-29.9c0,0-14.9,14.5-26.5,20.6C140.8,134.3,124.5,138.6,124.5,138.6z"/>
	<path class="st1" d="M80,189.4c0.8,2.5,13-21.8,19.8-30.2c6.7-8.4,22.7-48.4,13-57.2c0,0-10.5,19.7-16.4,26.5
		c-3.2,3.6-11.1,23.7-14.7,38.7C78.6,180,79.6,188.2,80,189.4z"/>
	<path class="st1" d="M78.3,204.6c0,0,35.3-17.2,39.5-46.2c0,0-15.3,11.4-23.1,20.6C87,188,78.3,204.6,78.3,204.6z"/>
	<path class="st1" d="M69.9,276.8c0.8,16.8,21.1-23.5,15.2-58.4C85,218.4,68.2,239.8,69.9,276.8z"/>
	<path class="st1" d="M62.8,265.5c0,0-2.1-12.6,1.7-33.2c3.7-20.6,6.3-31.5,4.6-44.5c-1.7-13-8-19.7-8-19.7s-3.4,14.7-5.9,23.1
		c-2.5,8.4-3.4,36.1-3.4,42.9C51.8,254.5,62.8,265.5,62.8,265.5z"/>
	<path class="st1" d="M82.5,139.8c0,0,24.8-32.7,20.6-54.1c0,0-10.5,3.4-16.4,21.4C80.8,125.1,82.5,139.8,82.5,139.8z"/>
	<path class="st1" d="M75.8,170.5c0,0,0.8-26-1.7-35.3c-2.5-9.3-5.9-21.4-5.9-21.4s-8.2,17.6-6.2,27.7
		C66.2,162.9,75.8,170.5,75.8,170.5z"/>
	<path class="st1" d="M46.1,211.9c0,0,4.2-35.5,3.5-45.2c-0.7-9.8-1.4-16-5.6-16c-4.2,0-5.6,7.7-6.3,16.7
		C37.1,176.4,46.1,211.9,46.1,211.9z"/>
	<path class="st1" d="M48.9,251.5c2.1,4.2-2.8-16.7-4.2-23.7c-1.4-7-9-22.3-11.8-25.7c-2.8-3.5-6.3-8.4-6.3-8.4s-2.1,11.1,0,19.5
		C28.7,221.6,46.8,247.4,48.9,251.5z"/>
	<path class="st1" d="M88.6,355.2c0,0,2.8-27.8,0.7-39.7c-2.1-11.8-4.9-17.4-7.7-21.6c-2.8-4.2-5.6,11.8-5.6,11.8s1.4,20.2,4.2,29.9
		C83,345.5,88.6,355.2,88.6,355.2z"/>
	<path class="st1" d="M77.5,343.4c0,0-5.6-16-7.7-28.5c-2.1-12.5-5.6-28.5-9-34.8c-3.5-6.3-11.1-21.6-24.4-23.7c0,0,6.3,17.4,9,28.5
		c2.8,11.1,7.7,28.5,13.9,38.3C65.6,333,77.5,343.4,77.5,343.4z"/>
	<path class="st1" d="M56.6,331.6c0,0-13.9-21.6-25.8-26.5s-13.9-5.6-19.5-5.6c0,0,2.1,11.8,13.2,18.1L42,326L56.6,331.6z"/>
	<path class="st1" d="M47.5,310c0,0-6.3-23-11.8-32.7c-5.6-9.7-11.1-16-21.6-20.2c0,0,4.2,13.2,7.7,23c0,0,3.5,10.4,14.6,20.2
		L47.5,310z"/>
	<path class="st1" d="M113.6,415.8c0,0-11.8-11.8-16-20.2c-4.2-8.4-14.6-27.1-20.9-34.8c-6.3-7.7-13.9-16-31.3-17.4
		c0,0,10.4,12.5,13.9,20.2c3.5,7.7,20.9,32,27.8,36.9C94.2,405.4,113.6,415.8,113.6,415.8z"/>
	<path class="st1" d="M125.5,420c7,7-4.2-38.3-24.4-55c0,0-0.7,13.9,2.8,26.4C103.9,391.4,118.5,413,125.5,420z"/>
	<path class="st1" d="M92.8,415.1c0,0-11.8-13.2-32.7-19.5c-20.9-6.3-23.7-1.4-23.7-1.4s13.9,11.8,22.3,13.9
		C67,410.2,92.8,415.1,92.8,415.1z"/>
	<path class="st1" d="M67.7,389.3c0,0-13.2-25.1-24.4-32.7c0,0-4.9-5.6-18.8-9c0,0,6.3,18.1,12.5,21.6L58,383.1L67.7,389.3z"/>
	<path class="st1" d="M177,466.6c0,0-13.2-4.2-23.7-10.4c-10.4-6.3-22.3-20.9-34.8-26.4c-12.5-5.6-16.7-7-34.8-5.6
		c0,0,16,10.4,22.3,16.7c0,0,30.6,21.6,45.2,23.7L177,466.6z"/>
	<path class="st1" d="M188.1,467.3c0,0-15.3-25.8-23-30.6c-7.7-4.9-15.3-7.7-24.4-9.7c0,0,7,16,15.3,20.9
		C164.5,452.7,188.1,467.3,188.1,467.3z"/>
	<path class="st1" d="M156.1,472.2c9-0.7-20.9-7-40.4-6.3c0,0-11.8,0.7-24.4,4.2c0,0,12.5,7,27.8,7
		C119.2,477,147.1,472.9,156.1,472.2z"/>
	<path class="st1" d="M120.6,458.9c8.3,2.8-22.3-19.5-32-22.3c-9.7-2.8-16-3.5-25.1-2.8c0,0,7,9.7,20.2,15.3
		C96.9,454.8,112.3,456.2,120.6,458.9z"/>
	<path class="st1" d="M266.1,490.3c0,0-15.3-12.5-30.6-16.7c-15.3-4.2-16-4.2-31.3-2.8c0,0,12.5,11.1,27.8,15.3
		C247.3,490.3,266.1,490.3,266.1,490.3z"/>
	<path class="st1" d="M249.4,496.5c0,0-25.8-3.5-39-8.4c-13.2-4.9-18.8-9-32-10.4c-13.2-1.4-27.8,3.5-31.3,9.1
		c0,0,23.7,4.9,29.9,7.7c6.3,2.8,32.7,9,41.8,7.7c2.5-0.4,10-1,13.6-1.6C242.1,498.8,249.4,496.5,249.4,496.5z"/>
	<path class="st1" d="M193,506.3c3.5,0.7-31.3-11.8-44.5-11.1c-13.2,0.7-14.6-2.1-23.7,0.7c0,0,14.6,11.1,23.7,11.1
		C157.5,507,189.5,505.6,193,506.3z"/>
	<path class="st1" d="M227.1,508.4c6.3,0-16.7,11.8-39.7,15.3c-23,3.5-25.1,0.7-25.1,0.7s16-11.1,29.2-13.2
		C204.8,509.1,220.8,508.4,227.1,508.4z"/>
	<path class="st1" d="M273,497.9c0,0-24.4,18.8-29.2,23.7c-4.9,4.9-25.1,23-48.7,21.6c0,0,16.7-13.9,20.2-18.8
		c3.5-4.9,25.1-19.5,37.6-21.6C265.4,500.7,273,497.9,273,497.9z"/>
	<path class="st1" d="M277.9,502.8c0,0-5.6,20.9-16.7,34.8c-11.1,13.9-15.3,13.9-15.3,13.9s0-14.6,5.6-22.3
		C257,521.6,277.9,502.8,277.9,502.8z"/>
	<path class="st1" d="M423.4,83.1c3.4-13-13-42.5-44.5-49.6C378.9,33.5,420,96.1,423.4,83.1z"/>
	<path class="st1" d="M440.6,107.9c-4.5,6.3-14.7-47.1-12.2-58c0,0,14.7,26.9,15.5,40C444,89.8,449,96.1,440.6,107.9z"/>
	<path class="st1" d="M439.8,128.5c0,0-2.9-19.4-11.3-29.8c-8.4-10.5-50.4-42.5-53-46.2c0,0,1.9,23.1,15.5,33.2
		C414.1,102.8,439.8,128.5,439.8,128.5z"/>
	<path class="st1" d="M441.5,138.6c0,0-16-29-52.1-29.9c0,0,14.9,14.5,26.5,20.6C425.2,134.3,441.5,138.6,441.5,138.6z"/>
	<path class="st1" d="M486,189.4c-0.8,2.5-13-21.8-19.7-30.2c-6.7-8.4-22.6-48.4-13-57.2c0,0,10.5,19.7,16.4,26.5
		c3.2,3.6,11.1,23.7,14.7,38.7C487.4,180,486.4,188.2,486,189.4z"/>
	<path class="st1" d="M487.7,204.6c0,0-35.3-17.2-39.5-46.2c0,0,15.3,11.4,23.1,20.6C479,188,487.7,204.6,487.7,204.6z"/>
	<path class="st1" d="M496.1,276.8c-0.8,16.8-21.1-23.5-15.2-58.4C481,218.4,497.8,239.8,496.1,276.8z"/>
	<path class="st1" d="M503.2,265.5c0,0,2.1-12.6-1.7-33.2c-3.7-20.6-6.3-31.5-4.6-44.5c1.7-13,8-19.7,8-19.7s3.4,14.7,5.9,23.1
		c2.5,8.4,3.4,36.1,3.4,42.9C514.2,254.5,503.2,265.5,503.2,265.5z"/>
	<path class="st1" d="M483.5,139.8c0,0-24.8-32.7-20.6-54.1c0,0,10.5,3.4,16.4,21.4C485.2,125.1,483.5,139.8,483.5,139.8z"/>
	<path class="st1" d="M490.2,170.5c0,0-0.9-26,1.7-35.3c2.5-9.3,5.9-21.4,5.9-21.4s8.2,17.6,6.2,27.7
		C499.8,162.9,490.2,170.5,490.2,170.5z"/>
	<path class="st1" d="M519.9,211.9c0,0-4.2-35.5-3.5-45.2c0.7-9.8,1.4-16,5.6-16c4.2,0,5.6,7.7,6.3,16.7
		C528.9,176.4,519.9,211.9,519.9,211.9z"/>
	<path class="st1" d="M517.1,251.5c-2.1,4.2,2.8-16.7,4.2-23.7c1.4-7,9-22.3,11.8-25.7c2.8-3.5,6.3-8.4,6.3-8.4s2.1,11.1,0,19.5
		C537.3,221.6,519.2,247.4,517.1,251.5z"/>
	<path class="st1" d="M477.4,355.2c0,0-2.8-27.8-0.7-39.7c2.1-11.8,4.9-17.4,7.7-21.6c2.8-4.2,5.6,11.8,5.6,11.8s-1.4,20.2-4.2,29.9
		C483,345.5,477.4,355.2,477.4,355.2z"/>
	<path class="st1" d="M488.5,343.4c0,0,5.6-16,7.7-28.5c2.1-12.5,5.6-28.5,9.1-34.8c3.5-6.3,11.1-21.6,24.4-23.7
		c0,0-6.3,17.4-9,28.5c-2.8,11.1-7.7,28.5-13.9,38.3C500.4,333,488.5,343.4,488.5,343.4z"/>
	<path class="st1" d="M509.4,331.6c0,0,13.9-21.6,25.8-26.5c11.8-4.9,13.9-5.6,19.5-5.6c0,0-2.1,11.8-13.2,18.1L524,326L509.4,331.6
		z"/>
	<path class="st1" d="M518.5,310c0,0,6.3-23,11.8-32.7c5.6-9.7,11.1-16,21.6-20.2c0,0-4.2,13.2-7.7,23c0,0-3.5,10.4-14.6,20.2
		L518.5,310z"/>
	<path class="st1" d="M452.3,415.8c0,0,11.8-11.8,16-20.2c4.2-8.4,14.6-27.1,20.9-34.8c6.3-7.7,13.9-16,31.3-17.4
		c0,0-10.4,12.5-13.9,20.2c-3.5,7.7-20.9,32-27.8,36.9C471.8,405.4,452.3,415.8,452.3,415.8z"/>
	<path class="st1" d="M440.5,420c-7,7,4.2-38.3,24.4-55c0,0,0.7,13.9-2.8,26.4C462.1,391.4,447.5,413,440.5,420z"/>
	<path class="st1" d="M473.2,415.1c0,0,11.8-13.2,32.7-19.5c20.9-6.3,23.7-1.4,23.7-1.4s-13.9,11.8-22.3,13.9
		C499,410.2,473.2,415.1,473.2,415.1z"/>
	<path class="st1" d="M498.3,389.3c0,0,13.2-25.1,24.4-32.7c0,0,4.9-5.6,18.8-9c0,0-6.3,18.1-12.5,21.6L508,383.1L498.3,389.3z"/>
	<path class="st1" d="M389,466.6c0,0,13.2-4.2,23.7-10.4c10.4-6.3,22.3-20.9,34.8-26.4c12.5-5.6,16.7-7,34.8-5.6
		c0,0-16,10.4-22.3,16.7c0,0-30.6,21.6-45.2,23.7L389,466.6z"/>
	<path class="st1" d="M377.9,467.3c0,0,15.3-25.8,23-30.6c7.6-4.9,15.3-7.7,24.4-9.7c0,0-7,16-15.3,20.9
		C401.5,452.7,377.9,467.3,377.9,467.3z"/>
	<path class="st1" d="M409.9,472.2c-9-0.7,20.9-7,40.4-6.3c0,0,11.8,0.7,24.4,4.2c0,0-12.5,7-27.8,7
		C446.8,477,418.9,472.9,409.9,472.2z"/>
	<path class="st1" d="M445.4,458.9c-8.4,2.8,22.3-19.5,32-22.3c9.7-2.8,16-3.5,25.1-2.8c0,0-7,9.7-20.2,15.3
		C469.1,454.8,453.7,456.2,445.4,458.9z"/>
	<path class="st1" d="M299.9,490.3c0,0,15.3-12.5,30.6-16.7c15.3-4.2,16-4.2,31.3-2.8c0,0-12.5,11.1-27.8,15.3
		C318.7,490.3,299.9,490.3,299.9,490.3z"/>
	<path class="st1" d="M316.6,496.5c0,0,25.8-3.5,39-8.4c13.2-4.9,18.8-9,32-10.4c13.2-1.4,27.8,3.5,31.3,9.1c0,0-23.7,4.9-29.9,7.7
		c-6.3,2.8-32.7,9-41.8,7.7c-2.5-0.4-10-1-13.6-1.6C323.9,498.8,316.6,496.5,316.6,496.5z"/>
	<path class="st1" d="M373,506.3c-3.5,0.7,31.3-11.8,44.5-11.1c13.2,0.7,14.6-2.1,23.7,0.7c0,0-14.6,11.1-23.7,11.1
		C408.5,507,376.5,505.6,373,506.3z"/>
	<path class="st1" d="M338.9,508.4c-6.3,0,16.7,11.8,39.7,15.3c23,3.5,25.1,0.7,25.1,0.7s-16-11.1-29.2-13.2
		C361.2,509.1,345.2,508.4,338.9,508.4z"/>
	<path class="st1" d="M293,497.9c0,0,24.4,18.8,29.2,23.7c4.9,4.9,25.1,23,48.7,21.6c0,0-16.7-13.9-20.2-18.8
		c-3.5-4.9-25.1-19.5-37.6-21.6C300.6,500.7,293,497.9,293,497.9z"/>
	<path class="st1" d="M288.1,502.8c0,0,5.6,20.9,16.7,34.8c11.1,13.9,15.3,13.9,15.3,13.9s0-14.6-5.6-22.3
		C309,521.6,288.1,502.8,288.1,502.8z"/>
	<path class="st0" d="M157.9,249c-2.3-1.6-5.8-2.8-10.3-3.7l-17.1-3.3c-3.4-0.7-5.6-1.4-6.4-2.2c-0.8-0.8-1.2-2.3-1.1-4.4l-1.2-0.2
		l-2.4,12.1l1.2,0.2c0.6-1.9,1.4-3.1,2.5-3.6c1-0.5,3.3-0.4,6.9,0.3l17.1,3.3c4.2,0.8,7.2,1.8,9,3c3.3,2.2,4.5,5.4,3.7,9.7
		c-0.8,3.9-3,6.2-6.8,7c-2.1,0.4-4.8,0.2-8.3-0.4l-21-4.1c-2.4-0.5-3.9-1.1-4.4-1.8c-0.6-0.7-0.7-2.1-0.5-4.2l-1.2-0.2l-2.9,14.9
		l1.2,0.2c0.6-1.9,1.3-3.1,2.1-3.6c0.8-0.5,2.4-0.5,4.8,0l20.5,4c4.1,0.8,7.4,0.9,10.1,0.2c5-1.2,8.1-4.6,9.2-10.2
		C163.7,256.3,162.2,252,157.9,249z"/>
	<path class="st0" d="M169,211.8c-1.9-2-4.2-3.7-6.8-4.9c-7.3-3.5-13.5-3.6-18.6-0.2c-2.9,1.9-5.2,4.7-7.1,8.5l-5.5,11.3l1,0.5
		c0.9-1.5,1.7-2.3,2.5-2.5c0.8-0.2,2.1,0.2,4,1.1l23.4,11.4c2,1,3.1,1.8,3.4,2.5c0.3,0.7,0.1,1.9-0.4,3.5l0.9,0.5l5.7-11.7
		c1.5-3.1,2.3-6,2.4-8.7c0-1.4-0.2-2.9-0.7-4.5C172.3,216.1,170.9,213.8,169,211.8z M168.9,232c-0.5,1.1-1,1.7-1.4,1.9
		c-0.4,0.2-1.1,0.1-1.9-0.3l-26.7-13c-0.9-0.4-1.4-0.9-1.5-1.3c-0.1-0.5,0.1-1.2,0.6-2.1c1.9-3.8,4.5-6.3,7.9-7.4
		c4-1.4,8.7-0.7,14.1,1.9c6,2.9,9.5,6.6,10.4,11.1C171,225.6,170.5,228.7,168.9,232z"/>
	<path class="st0" d="M185.5,205.6c-0.8,0.1-2.1-0.5-3.9-1.9l-20.8-15.6c-1.7-1.3-2.7-2.3-2.8-3.2c-0.2-0.8,0.3-2,1.3-3.6l-0.9-0.7
		l-8.3,11.1l0.9,0.7c1.2-1.5,2.3-2.2,3.1-2.3c0.8-0.1,2.1,0.5,3.8,1.8l20.8,15.7c1.8,1.4,2.8,2.4,2.9,3.2c0.1,0.8-0.4,2-1.4,3.6
		l0.8,0.6l8.3-11l-0.8-0.6C187.3,204.7,186.3,205.5,185.5,205.6z"/>
	<path class="st0" d="M193.3,196.5c-1.2-0.2-2.9-1.5-5-3.9L173,175.7l36.8,10l0.6-0.5l-20.6-22.9c-2.1-2.3-3.1-3.9-3.3-5
		c-0.1-1,0.4-2.2,1.6-3.6l-0.7-0.8l-8.2,7.3l0.7,0.8c1.4-1,2.5-1.4,3.3-1.3c1.2,0.2,2.9,1.5,5.1,3.9l13.1,14.5l-32.2-8.9l-6,5.4
		l0.7,0.8c0.7-0.6,1.4-1,1.9-1.1c0.5-0.2,1.4-0.1,2.5,0.2l1.1,0.3l17.2,19.1c2.1,2.3,3.2,3.9,3.3,4.9c0.2,1-0.4,2.2-1.7,3.7l0.7,0.8
		l8.2-7.4l-0.7-0.8C195.2,196.2,194.1,196.6,193.3,196.5z"/>
	<path class="st0" d="M199.6,148.5c0.7,0.3,1.6,1.4,2.6,3.2l12.2,23c1,1.9,1.5,3.3,1.3,4c-0.2,0.7-1,1.6-2.4,2.6l0.5,0.9l22.3-11.9
		l-2.8-9.7l-1.1,0.6c0.5,3.5,0.3,6-0.6,7.5c-0.9,1.5-2.8,2.9-5.6,4.4c-2.6,1.4-4.2,2.1-4.8,2.2c-0.6,0.1-1.2-0.4-1.7-1.4l-6.8-12.8
		l6.4-3.4c1.7-0.9,3-1.2,3.9-0.8c0.8,0.4,1.9,1.5,3.3,3.3l1-0.5l-6.4-11.9l-1,0.5c0.8,2.2,1.1,3.7,0.9,4.6c-0.1,0.9-1.1,1.8-2.8,2.8
		l-6.4,3.4l-6.1-11.5c-0.4-0.7-0.5-1.2-0.5-1.5c0-0.3,0.3-0.7,0.9-1l5.6-3c2.4-1.3,4.2-1.8,5.2-1.5c1.1,0.3,2.4,1.5,3.9,3.6l1-0.6
		l-4.1-7.3l-21.9,11.7l0.5,1C197.7,148.4,198.9,148.2,199.6,148.5z"/>
	<path class="st0" d="M238.6,128.7c-2.5,0.7-4.3,2.1-5.3,4.4c-1,2.3-1.1,4.9-0.4,7.7c0.6,2.2,1.7,3.9,3.5,5.4c0.9,0.8,2.1,1.4,3.5,2
		l4.7,2c2.7,1.1,4.5,2,5.4,2.7c1.4,1.1,2.4,2.5,2.9,4.4c0.6,2,0.4,3.8-0.3,5.2c-0.7,1.4-1.8,2.3-3.3,2.7c-2.7,0.7-5.2,0-7.7-2.1
		c-1.4-1.2-2.9-3-4.3-5.3l-1,0.3l4.6,11.7l1-0.3c-0.1-0.5-0.1-0.9,0-1.4c0.1-0.5,0.4-0.8,0.9-0.9c0.2-0.1,1.2,0,2.9,0.3
		c1.7,0.3,3.3,0.2,4.6-0.2c2.8-0.7,4.8-2.4,6-4.8c1.3-2.5,1.5-5.2,0.7-8.1c-0.6-2.2-1.6-4-3-5.3c-1.4-1.3-3.7-2.6-6.7-3.9l-4.8-2
		c-1.8-0.7-3.2-1.5-4.2-2.4c-1-0.8-1.7-2-2.1-3.4c-0.4-1.6-0.3-3,0.4-4.1c0.7-1.2,1.6-1.9,2.9-2.2c1.6-0.4,3.4-0.1,5.4,0.9
		c2,1,3.9,3.2,5.6,6.6l1.1-0.3l-4.2-11.8l-0.9,0.3c0,0.6,0,1.2-0.1,1.5c-0.1,0.4-0.4,0.7-1,0.8c-0.2,0.1-1.1,0-2.7-0.3
		C241,128.4,239.7,128.4,238.6,128.7z"/>
	<path class="st0" d="M259.2,125.8c1.7,0,2.9,0.4,3.4,1c0.5,0.6,0.9,1.9,1,4l1.8,25.9c0.2,2.2,0,3.6-0.5,4.2c-0.5,0.6-1.5,1-3.3,1.4
		l0.1,1l25.2-1.8l1.4-10l-1.3,0.1c-1,3.4-2.2,5.6-3.6,6.6c-1.4,1-3.7,1.5-6.9,1.8c-2.9,0.2-4.7,0.2-5.3,0c-0.6-0.2-0.9-0.8-1-2
		l-1-14.4l7.2-0.5c2-0.1,3.3,0.1,3.9,0.8c0.6,0.7,1.1,2.1,1.7,4.4l1.1-0.1l-0.9-13.5l-1.1,0.1c-0.2,2.3-0.5,3.8-1,4.6
		c-0.5,0.8-1.7,1.2-3.7,1.4l-7.2,0.5l-0.9-13c0-0.8,0-1.3,0.1-1.6c0.1-0.3,0.6-0.5,1.2-0.5l6.3-0.4c2.7-0.2,4.5,0.1,5.4,0.8
		s1.6,2.3,2.1,4.9l1.2-0.1l-0.7-8.4l-24.8,1.7L259.2,125.8z"/>
	<path class="st0" d="M308,142.2c-1.9,6.1-1.9,11.6-0.2,16.6c1.9,5.4,5.6,8.9,11.1,10.6c3.3,1,6.8,0.8,10.4-0.6c2.1-0.8,4-2,5.7-3.4
		l-0.6-1.5c-2.1,1.3-3.9,2.3-5.5,2.8c-2.7,0.9-5.4,0.9-8,0.1c-3.7-1.1-6.2-3.7-7.5-7.9c-1.3-4.1-1.1-9.1,0.6-14.8
		c1.9-6.2,4.5-10.7,7.9-13.6c3.4-2.8,6.8-3.7,10.4-2.6c3.5,1.1,5.9,3.6,7,7.5c0.6,2.1,0.7,4.6,0.6,7.7l1.2,0.4l3.9-14.5l-1.1-0.3
		c-0.4,0.7-0.8,1.1-1.4,1.3c-0.5,0.2-1,0.2-1.5,0.1c-0.2-0.1-1.2-0.8-3-2c-1.7-1.3-3.5-2.2-5.4-2.8c-5.3-1.6-10.3-0.7-15,2.7
		C313.1,131.2,310,136,308,142.2z"/>
	<path class="st0" d="M337.5,171.9c-1,0.5-2.1,0.5-3.2,0l-0.6,0.9l7.9,4.9l0.6-0.9c-0.9-0.7-1.4-1.2-1.6-1.6
		c-0.3-0.7-0.2-1.4,0.3-2.3c0.3-0.4,0.7-0.9,1.4-1.5c0.7-0.6,2.5-2.2,5.6-4.8l10.4,6.5l-1.3,5.8c-0.2,0.8-0.4,1.6-0.7,2.3
		c-0.3,0.7-0.5,1.2-0.6,1.4c-0.5,0.7-0.9,1.1-1.4,1.1c-0.4,0-1.3-0.4-2.5-0.9l-0.6,0.9l10.1,6.3l0.6-0.9c-0.8-0.7-1.3-1.5-1.4-2.1
		c-0.1-0.7,0.1-2.2,0.6-4.5l7.7-34.3l-0.8-0.5l-23.5,19.2C340.8,169.7,338.6,171.4,337.5,171.9z M362.8,154.3l-3.9,16.5l-9.1-5.7
		L362.8,154.3z"/>
	<path class="st0" d="M386.4,202.5c-3.5,1.4-6.1,1.9-7.7,1.4c-1.6-0.5-3.8-2.3-6.7-5.3c-0.7-0.8-1.2-1.3-1.5-1.6
		c-0.2-0.3-0.5-0.6-0.7-0.9c-0.3-0.5-0.4-0.9-0.3-1.3c0.2-0.4,0.5-0.8,1-1.2l20.5-19.1c1.4-1.3,2.5-2,3.4-2c0.8,0,1.9,0.6,3.1,1.8
		l0.8-0.7l-9-9.7l-0.8,0.7c1.1,1.4,1.5,2.5,1.4,3.3c-0.1,0.8-0.9,1.9-2.5,3.3l-19,17.7c-1.6,1.5-2.8,2.3-3.6,2.3
		c-0.7,0-1.8-0.6-3.1-1.7l-0.8,0.7l17.2,18.4l9-5.2L386.4,202.5z"/>
	<path class="st0" d="M400.4,231.6l0.5-1.3c-2.1-0.3-3.9-0.8-5.2-1.4c-2.3-1-4.1-2.5-5.3-4.6c-1.7-2.9-1.8-6-0.3-9.5
		c1.6-3.5,4.6-6.6,9-9.2c4.9-2.9,9.2-4.3,13-4.2c3.8,0.1,6.6,1.6,8.3,4.4c1.7,2.8,1.7,5.8,0.1,9c-0.9,1.7-2.2,3.5-4.1,5.3l0.5,0.9
		l11-7.1l-0.5-0.8c-0.6,0.2-1.2,0.2-1.6,0c-0.5-0.2-0.8-0.5-1-0.8c-0.1-0.2-0.4-1.2-0.7-3.1c-0.4-1.9-1-3.5-1.9-4.9
		c-2.5-4.2-6.3-6.5-11.3-7c-4.8-0.5-9.6,0.8-14.5,3.7c-4.8,2.9-8,6.4-9.8,10.7c-1.9,4.6-1.6,9.1,1,13.4c1.6,2.6,3.9,4.5,7.1,5.7
		C396.6,231.2,398.5,231.6,400.4,231.6z"/>
	<path class="st0" d="M403.6,243l24.6-8.5c2-0.7,3.4-0.9,4.2-0.6c0.8,0.3,1.5,1.4,2.3,3.1l1-0.4l-4.5-13.1l-1,0.4
		c0.5,1.8,0.6,3.1,0.1,3.9c-0.4,0.7-1.6,1.4-3.6,2.1l-24.6,8.5c-2.1,0.7-3.6,0.9-4.3,0.6c-0.7-0.4-1.4-1.4-2.2-3.2l-1,0.3l4.5,13.1
		l1-0.3c-0.5-1.8-0.5-3.1-0.2-3.8C400.2,244.4,401.4,243.7,403.6,243z"/>
	<path class="st0" d="M441.6,259c-0.7-4.2-2.9-7.4-6.8-9.7c-4.2-2.5-9.4-3.3-15.6-2.3c-5.9,0.9-10.4,3.1-13.7,6.6
		c-3.2,3.4-4.5,7.3-3.8,11.7c0.6,4,2.8,7.2,6.6,9.6c4.2,2.6,9.4,3.4,15.7,2.4c6.2-1,10.9-3.3,14.1-7
		C441.1,267,442.2,263.2,441.6,259z M436.4,267c-2.5,2.4-6.9,4.1-13.2,5.1c-6.2,1-10.9,0.7-14-0.8c-3.1-1.5-4.9-3.6-5.3-6.3
		c-0.4-2.8,0.6-5.4,3.2-7.7c2.6-2.4,6.9-4,13-5c6.1-1,10.7-0.7,13.9,0.7c3.2,1.5,5,3.6,5.5,6.3C439.9,262.1,438.9,264.6,436.4,267z"
		/>
	<path class="st0" d="M218.6,35.1c0.8-0.6,1.5-0.9,2-1.1c0.8-0.2,1.5,0,1.9,0.6c0.4,0.6,0.7,1.6,1,2.8l7.8,36.9
		c0.5,2.4,0.4,4-0.2,4.9c-0.6,0.9-2.2,1.7-4.8,2.4l0.3,1.2l18-3.8l-0.2-1.1c-2.4,0.4-4.1,0.4-5.1,0c-1-0.4-1.7-1.6-2.1-3.6l-10.2-48
		c-0.1-0.2-0.1-0.4-0.1-0.4c0-0.1-0.1-0.2-0.2-0.3l-0.4,0.1l-10.1,9.9l0.2,1.1C217.1,36.2,217.8,35.6,218.6,35.1z"/>
	<path class="st0" d="M253.7,42.5c1.2,1.6,3.3,3.8,6.3,6.5c-2.7,2.6-4.5,4.8-5.6,6.6c-1.6,2.8-2.2,5.9-2,9.3c0.3,4,1.8,7.2,4.5,9.5
		c2.7,2.3,5.8,3.3,9.4,3c3.9-0.3,7-1.8,9.2-4.7c2.2-2.8,3.1-6.2,2.9-10.1c-0.2-3.4-1.3-6.4-3-8.8c-1.8-2.4-4.6-5.2-8.5-8.4
		c2.6-2.1,4.4-3.8,5.5-5.4c1.9-2.7,2.8-5.6,2.6-8.8c-0.2-3.1-1.4-5.8-3.7-8c-2.2-2.2-5.1-3.2-8.6-3c-3.8,0.3-6.8,1.7-9,4.4
		c-2.2,2.7-3.2,5.8-2.9,9.4C250.9,37.2,251.9,40,253.7,42.5z M270.8,58.3c1.5,1.7,2.3,4.1,2.6,7c0.2,2.6-0.3,4.8-1.5,6.6
		c-1.2,1.8-3,2.8-5.5,3c-2.4,0.2-4.4-0.8-6.1-2.9c-1.7-2.1-2.6-5-2.9-8.7c-0.1-2.2,0.1-4.5,0.8-6.8c0.7-2.4,1.9-4.4,3.7-6
		C266.4,54,269.4,56.6,270.8,58.3z M257,25.3c1.2-1.7,2.8-2.6,4.8-2.7c2.6-0.2,4.6,0.6,6,2.3c1.4,1.7,2.2,3.8,2.4,6.4
		c0.2,3-0.3,5.5-1.5,7.7c-0.7,1.3-2,2.9-3.9,4.8c-2.6-1.8-4.8-3.7-6.5-5.7c-1.7-2.1-2.6-4.4-2.8-7C255.3,28.9,255.8,27,257,25.3z"/>
	<path class="st0" d="M297.6,69.9c-1.8,1.8-4.1,3.2-6.9,4.3c-1.6,0.6-3.5,1.1-5.8,1.6l0.2,1.7c3.6-0.3,6.7-0.8,9.2-1.7
		c4.4-1.5,8.1-4.1,11.2-7.7c2.7-3.1,4.8-6.8,6.4-10.9c1.6-4.1,2.6-8.3,2.9-12.4c0.5-5.9-0.3-11.3-2.5-16.2c-2.2-5-5.7-7.7-10.4-8.1
		c-4-0.4-7.5,1.2-10.4,4.7c-2.9,3.5-4.6,8.2-5.1,13.9c-0.4,4.5,0.3,8.5,2.2,12c1.9,3.4,4.7,5.3,8.4,5.6c0.9,0.1,2,0,3.1-0.2
		c2.2-0.4,4.2-1.3,5.9-2.6l1.2-1c-0.5,2.2-1.7,5-3.3,8.3C302.2,64.5,300.1,67.4,297.6,69.9z M304.6,52.2c-1.7,0.9-3.2,1.3-4.7,1.1
		c-3.2-0.3-5.3-2.2-6.2-5.6c-0.9-3.5-1.2-7.2-0.9-11.1c0.4-4.8,1.4-8.3,2.9-10.6c1.5-2.3,3.4-3.3,5.5-3.2c2.9,0.3,5,2.2,6.2,5.9
		c1.2,3.7,1.6,8.3,1.1,13.9c-0.1,1.1-0.2,2.5-0.5,4.3c-0.2,1.7-0.4,2.7-0.5,3C307.2,50.5,306.3,51.3,304.6,52.2z"/>
	<path class="st0" d="M329.4,82.5c4,1,7.7-0.1,11.1-3.4c3.5-3.3,5.8-7.3,7-12.1c1.3-5.4,1.2-9.8-0.3-13.3c-1.6-3.5-4-5.6-7.4-6.5
		c-1.7-0.4-3.5-0.4-5.4,0c-1.1,0.2-2.4,0.7-3.9,1.4c1.2-2.7,2.9-5.4,5-8s4.1-4.6,6.1-6.2c2-1.5,4-2.5,6.2-3.1
		c2.2-0.6,4.7-0.8,7.5-0.8l0.2-1.3c-6.6-1.6-13.2-0.3-19.9,4c-7.6,5.2-12.5,12.5-14.8,21.8c-1.8,7.2-1.7,13.4,0.2,18.5
		C322.8,78.6,325.7,81.6,329.4,82.5z M325.9,59.1c0.8-3.3,1.7-5.6,2.7-6.9c1.7-2.2,4.2-2.8,7.4-2c3.5,0.9,5.5,3.8,5.8,8.7
		c0.2,2.9-0.1,6.2-1,9.7c-0.9,3.6-2.2,6.6-4,9c-1.8,2.4-4,3.3-6.5,2.6c-3.2-0.8-5-3.4-5.4-7.9C324.5,67.8,324.9,63.4,325.9,59.1z"/>
	<path class="st0" d="M218.3,353.5c10.4,25.1,29.5,51.7,64.7,67.1c35.2-15.4,54.3-42,64.7-67.1L283,268.9L218.3,353.5z"/>
	<path class="st0" d="M360,200.4h-77h-77v90.8c0,0-0.1,3.9,0.3,10.4L283,201.2l76.7,100.3c0.4-6.5,0.3-10.4,0.3-10.4V200.4z"/>
</g>
</svg>
